G04 #@! TF.GenerationSoftware,KiCad,Pcbnew,(5.0.0-rc2-dev-444-g2974a2c10)*
G04 #@! TF.CreationDate,2019-08-12T19:19:49-07:00*
G04 #@! TF.ProjectId,Classic MIDI FeatherWing,436C6173736963204D49444920466561,v01*
G04 #@! TF.SameCoordinates,Original*
G04 #@! TF.FileFunction,Copper,L2,Bot,Signal*
G04 #@! TF.FilePolarity,Positive*
%FSLAX46Y46*%
G04 Gerber Fmt 4.6, Leading zero omitted, Abs format (unit mm)*
G04 Created by KiCad (PCBNEW (5.0.0-rc2-dev-444-g2974a2c10)) date 08/12/19 19:19:49*
%MOMM*%
%LPD*%
G01*
G04 APERTURE LIST*
%ADD10O,2.700000X2.000000*%
%ADD11C,2.000000*%
%ADD12C,2.300000*%
%ADD13R,1.800000X1.300000*%
%ADD14C,1.700000*%
%ADD15C,3.000000*%
%ADD16C,0.685800*%
%ADD17C,0.203200*%
%ADD18C,0.152400*%
%ADD19C,0.254000*%
G04 APERTURE END LIST*
D10*
X135342000Y-111680000D03*
X135342000Y-109180000D03*
X130342000Y-106680000D03*
X135342000Y-104180000D03*
X135342000Y-101680000D03*
X167172000Y-101680000D03*
X167172000Y-104180000D03*
X172172000Y-106680000D03*
X167172000Y-109180000D03*
X167172000Y-111680000D03*
D11*
X173983253Y-109197642D03*
D12*
X161483253Y-101697642D03*
X163983253Y-99197642D03*
X163983253Y-106697642D03*
X163983253Y-114197642D03*
D11*
X173983253Y-104197642D03*
D12*
X161483253Y-111697642D03*
D11*
X128329253Y-104183642D03*
D12*
X140829253Y-111683642D03*
X138329253Y-114183642D03*
X138329253Y-106683642D03*
X138329253Y-99183642D03*
D11*
X128329253Y-109183642D03*
D12*
X140829253Y-101683642D03*
D13*
X149962453Y-100594642D03*
X147778053Y-100594642D03*
D14*
X132106253Y-116850642D03*
X134646253Y-116850642D03*
X137186253Y-116850642D03*
X139726253Y-116850642D03*
X142266253Y-116850642D03*
X144806253Y-116850642D03*
X147346253Y-116850642D03*
X149886253Y-116850642D03*
X152426253Y-116850642D03*
X154966253Y-116850642D03*
X157506253Y-116850642D03*
X160046253Y-116850642D03*
X162586253Y-116850642D03*
X165126253Y-116850642D03*
X167666253Y-116850642D03*
X170206253Y-116850642D03*
X142266253Y-96530642D03*
X144806253Y-96530642D03*
X147346253Y-96530642D03*
X149886253Y-96530642D03*
X152426253Y-96530642D03*
X154966253Y-96530642D03*
X157506253Y-96530642D03*
X160046253Y-96530642D03*
X162586253Y-96530642D03*
X165126253Y-96530642D03*
X167666253Y-96530642D03*
X170206253Y-96530642D03*
D15*
X128296253Y-115580642D03*
X128296253Y-97800642D03*
D16*
X146330253Y-103896642D03*
X171450000Y-99695000D03*
X171450000Y-113665000D03*
X151638000Y-101727000D03*
X148844000Y-111506000D03*
X151283253Y-113929642D03*
X152426253Y-106685642D03*
X160427253Y-106533442D03*
X151283253Y-105039642D03*
X157252253Y-108595642D03*
X156236253Y-103515642D03*
D17*
X152426253Y-112786642D02*
X151283253Y-113929642D01*
X152426253Y-106685642D02*
X152426253Y-112786642D01*
X160427253Y-106533442D02*
X160427253Y-109738642D01*
X157379253Y-112786642D02*
X152426253Y-112786642D01*
X160427253Y-109738642D02*
X157379253Y-112786642D01*
D18*
X140825611Y-101680000D02*
X140829253Y-101683642D01*
X148245653Y-101864642D02*
X147778053Y-101397042D01*
X149998987Y-101864642D02*
X148245653Y-101864642D01*
X155271063Y-103820452D02*
X151954796Y-103820451D01*
X147778053Y-101397042D02*
X147778053Y-100594642D01*
X151283253Y-103148908D02*
X151141987Y-103007642D01*
X151283253Y-105039642D02*
X151283253Y-103148908D01*
X151954796Y-103820451D02*
X151141987Y-103007642D01*
X151141987Y-103007642D02*
X149998987Y-101864642D01*
X157252253Y-105166642D02*
X157252253Y-104455452D01*
X157252253Y-105166642D02*
X157252253Y-105039642D01*
X157252253Y-108595642D02*
X157252253Y-105166642D01*
X155906063Y-104455452D02*
X155347253Y-103896642D01*
X157252253Y-104455452D02*
X155906063Y-104455452D01*
X155855253Y-104404642D02*
X155347253Y-103896642D01*
X155347253Y-103896642D02*
X155271063Y-103820452D01*
X166319190Y-115657705D02*
X166319190Y-114045256D01*
X166319190Y-114045256D02*
X161544001Y-109270065D01*
X161544001Y-109270065D02*
X161544000Y-104074452D01*
X157887253Y-103820452D02*
X157252253Y-104455452D01*
X165126253Y-116850642D02*
X166319190Y-115657705D01*
X161544000Y-104074452D02*
X161290000Y-103820452D01*
X161290000Y-103820452D02*
X157887253Y-103820452D01*
X149962453Y-101397042D02*
X149962453Y-100594642D01*
X152081053Y-103515642D02*
X149962453Y-101397042D01*
X156236253Y-103515642D02*
X152081053Y-103515642D01*
X156721186Y-103515642D02*
X156236253Y-103515642D01*
X167666253Y-116850642D02*
X166624000Y-115808389D01*
X166624000Y-115808389D02*
X166624000Y-113919000D01*
X166624000Y-113919000D02*
X161848810Y-109143810D01*
X161848810Y-109143810D02*
X161848809Y-103948195D01*
X161848809Y-103948195D02*
X161416256Y-103515642D01*
X161416256Y-103515642D02*
X156721186Y-103515642D01*
X140825611Y-111680000D02*
X140829253Y-111683642D01*
X146330253Y-104381575D02*
X146330253Y-103896642D01*
X146330253Y-107808987D02*
X146330253Y-104381575D01*
X142455598Y-111683642D02*
X146330253Y-107808987D01*
X140829253Y-111683642D02*
X142455598Y-111683642D01*
D19*
G36*
X143575253Y-96285781D02*
X143575253Y-96775503D01*
X143762661Y-97227948D01*
X144108947Y-97574234D01*
X144561392Y-97761642D01*
X145051114Y-97761642D01*
X145503559Y-97574234D01*
X145849845Y-97227948D01*
X146037253Y-96775503D01*
X146037253Y-96285781D01*
X145923850Y-96012000D01*
X146228656Y-96012000D01*
X146115253Y-96285781D01*
X146115253Y-96775503D01*
X146302661Y-97227948D01*
X146648947Y-97574234D01*
X147101392Y-97761642D01*
X147591114Y-97761642D01*
X148043559Y-97574234D01*
X148389845Y-97227948D01*
X148577253Y-96775503D01*
X148577253Y-96285781D01*
X148463850Y-96012000D01*
X148768656Y-96012000D01*
X148655253Y-96285781D01*
X148655253Y-96775503D01*
X148842661Y-97227948D01*
X149188947Y-97574234D01*
X149641392Y-97761642D01*
X150131114Y-97761642D01*
X150583559Y-97574234D01*
X150929845Y-97227948D01*
X151117253Y-96775503D01*
X151117253Y-96285781D01*
X151003850Y-96012000D01*
X151308656Y-96012000D01*
X151195253Y-96285781D01*
X151195253Y-96775503D01*
X151382661Y-97227948D01*
X151728947Y-97574234D01*
X152181392Y-97761642D01*
X152671114Y-97761642D01*
X153123559Y-97574234D01*
X153469845Y-97227948D01*
X153657253Y-96775503D01*
X153657253Y-96285781D01*
X153543850Y-96012000D01*
X153848656Y-96012000D01*
X153735253Y-96285781D01*
X153735253Y-96775503D01*
X153922661Y-97227948D01*
X154268947Y-97574234D01*
X154721392Y-97761642D01*
X155211114Y-97761642D01*
X155663559Y-97574234D01*
X156009845Y-97227948D01*
X156197253Y-96775503D01*
X156197253Y-96285781D01*
X156083850Y-96012000D01*
X156388656Y-96012000D01*
X156275253Y-96285781D01*
X156275253Y-96775503D01*
X156462661Y-97227948D01*
X156808947Y-97574234D01*
X157261392Y-97761642D01*
X157751114Y-97761642D01*
X158203559Y-97574234D01*
X158549845Y-97227948D01*
X158737253Y-96775503D01*
X158737253Y-96285781D01*
X158623850Y-96012000D01*
X158928656Y-96012000D01*
X158815253Y-96285781D01*
X158815253Y-96775503D01*
X159002661Y-97227948D01*
X159348947Y-97574234D01*
X159801392Y-97761642D01*
X160291114Y-97761642D01*
X160743559Y-97574234D01*
X161089845Y-97227948D01*
X161277253Y-96775503D01*
X161277253Y-96285781D01*
X161163850Y-96012000D01*
X161468656Y-96012000D01*
X161355253Y-96285781D01*
X161355253Y-96775503D01*
X161542661Y-97227948D01*
X161888947Y-97574234D01*
X162341392Y-97761642D01*
X162831114Y-97761642D01*
X163283559Y-97574234D01*
X163629845Y-97227948D01*
X163817253Y-96775503D01*
X163817253Y-96285781D01*
X163703850Y-96012000D01*
X164008656Y-96012000D01*
X163895253Y-96285781D01*
X163895253Y-96775503D01*
X164082661Y-97227948D01*
X164428947Y-97574234D01*
X164881392Y-97761642D01*
X165371114Y-97761642D01*
X165823559Y-97574234D01*
X166169845Y-97227948D01*
X166357253Y-96775503D01*
X166357253Y-96285781D01*
X166243850Y-96012000D01*
X166548656Y-96012000D01*
X166435253Y-96285781D01*
X166435253Y-96775503D01*
X166622661Y-97227948D01*
X166968947Y-97574234D01*
X167421392Y-97761642D01*
X167911114Y-97761642D01*
X168363559Y-97574234D01*
X168709845Y-97227948D01*
X168897253Y-96775503D01*
X168897253Y-96285781D01*
X168783850Y-96012000D01*
X169088656Y-96012000D01*
X168975253Y-96285781D01*
X168975253Y-96775503D01*
X169162661Y-97227948D01*
X169508947Y-97574234D01*
X169961392Y-97761642D01*
X170451114Y-97761642D01*
X170903559Y-97574234D01*
X171001577Y-97476216D01*
X172385253Y-97476216D01*
X172385253Y-98125068D01*
X172633558Y-98724529D01*
X173092366Y-99183337D01*
X173691827Y-99431642D01*
X174340679Y-99431642D01*
X174940140Y-99183337D01*
X175398948Y-98724529D01*
X175647253Y-98125068D01*
X175647253Y-97476216D01*
X175398948Y-96876755D01*
X174940140Y-96417947D01*
X174340679Y-96169642D01*
X173691827Y-96169642D01*
X173092366Y-96417947D01*
X172633558Y-96876755D01*
X172385253Y-97476216D01*
X171001577Y-97476216D01*
X171249845Y-97227948D01*
X171437253Y-96775503D01*
X171437253Y-96285781D01*
X171323850Y-96012000D01*
X175768000Y-96012000D01*
X175768000Y-117348000D01*
X171332666Y-117348000D01*
X171437253Y-117095503D01*
X171437253Y-116605781D01*
X171249845Y-116153336D01*
X170903559Y-115807050D01*
X170451114Y-115619642D01*
X169961392Y-115619642D01*
X169508947Y-115807050D01*
X169162661Y-116153336D01*
X168975253Y-116605781D01*
X168975253Y-117095503D01*
X169079840Y-117348000D01*
X168792666Y-117348000D01*
X168897253Y-117095503D01*
X168897253Y-116605781D01*
X168709845Y-116153336D01*
X168363559Y-115807050D01*
X167911114Y-115619642D01*
X167421392Y-115619642D01*
X167181286Y-115719097D01*
X167081200Y-115619011D01*
X167081200Y-113964024D01*
X167090156Y-113918999D01*
X167081200Y-113873974D01*
X167081200Y-113873970D01*
X167054673Y-113740609D01*
X166953623Y-113589377D01*
X166915446Y-113563868D01*
X166344690Y-112993112D01*
X166685986Y-113061000D01*
X167658014Y-113061000D01*
X167851874Y-113022439D01*
X167600558Y-113273755D01*
X167352253Y-113873216D01*
X167352253Y-114522068D01*
X167600558Y-115121529D01*
X168059366Y-115580337D01*
X168658827Y-115828642D01*
X169307679Y-115828642D01*
X169907140Y-115580337D01*
X170231261Y-115256216D01*
X172385253Y-115256216D01*
X172385253Y-115905068D01*
X172633558Y-116504529D01*
X173092366Y-116963337D01*
X173691827Y-117211642D01*
X174340679Y-117211642D01*
X174940140Y-116963337D01*
X175398948Y-116504529D01*
X175647253Y-115905068D01*
X175647253Y-115256216D01*
X175398948Y-114656755D01*
X174940140Y-114197947D01*
X174340679Y-113949642D01*
X173691827Y-113949642D01*
X173092366Y-114197947D01*
X172633558Y-114656755D01*
X172385253Y-115256216D01*
X170231261Y-115256216D01*
X170365948Y-115121529D01*
X170614253Y-114522068D01*
X170614253Y-113873216D01*
X170365948Y-113273755D01*
X169907140Y-112814947D01*
X169307679Y-112566642D01*
X168658827Y-112566642D01*
X168564323Y-112605787D01*
X168822873Y-112218839D01*
X168930055Y-111680000D01*
X168899208Y-111524921D01*
X171141000Y-111524921D01*
X171141000Y-111935079D01*
X171297961Y-112314014D01*
X171587986Y-112604039D01*
X171966921Y-112761000D01*
X172377079Y-112761000D01*
X172756014Y-112604039D01*
X173046039Y-112314014D01*
X173203000Y-111935079D01*
X173203000Y-111524921D01*
X173046039Y-111145986D01*
X172756014Y-110855961D01*
X172377079Y-110699000D01*
X171966921Y-110699000D01*
X171587986Y-110855961D01*
X171297961Y-111145986D01*
X171141000Y-111524921D01*
X168899208Y-111524921D01*
X168822873Y-111141161D01*
X168517645Y-110684355D01*
X168136976Y-110430000D01*
X168517645Y-110175645D01*
X168822873Y-109718839D01*
X168930055Y-109180000D01*
X168822873Y-108641161D01*
X168517645Y-108184355D01*
X168060839Y-107879127D01*
X167658014Y-107799000D01*
X166685986Y-107799000D01*
X166283161Y-107879127D01*
X165826355Y-108184355D01*
X165521127Y-108641161D01*
X165413945Y-109180000D01*
X165521127Y-109718839D01*
X165826355Y-110175645D01*
X166207024Y-110430000D01*
X165826355Y-110684355D01*
X165521127Y-111141161D01*
X165413945Y-111680000D01*
X165508888Y-112157310D01*
X162306010Y-108954432D01*
X162306010Y-107958667D01*
X162901834Y-107958667D01*
X163018854Y-108241088D01*
X163682916Y-108492660D01*
X164392701Y-108470956D01*
X164947652Y-108241088D01*
X165064672Y-107958667D01*
X163983253Y-106877247D01*
X162901834Y-107958667D01*
X162306010Y-107958667D01*
X162306009Y-107339024D01*
X162439807Y-107662041D01*
X162722228Y-107779061D01*
X163803648Y-106697642D01*
X164162858Y-106697642D01*
X165244278Y-107779061D01*
X165526699Y-107662041D01*
X165754610Y-107060434D01*
X170231876Y-107060434D01*
X170262856Y-107188355D01*
X170576078Y-107746317D01*
X171078980Y-108141942D01*
X171695000Y-108315000D01*
X172045000Y-108315000D01*
X172045000Y-106807000D01*
X172299000Y-106807000D01*
X172299000Y-108315000D01*
X172649000Y-108315000D01*
X173015956Y-108211911D01*
X172812498Y-108415369D01*
X172602253Y-108922944D01*
X172602253Y-109472340D01*
X172812498Y-109979915D01*
X173200980Y-110368397D01*
X173708555Y-110578642D01*
X174257951Y-110578642D01*
X174765526Y-110368397D01*
X175154008Y-109979915D01*
X175364253Y-109472340D01*
X175364253Y-108922944D01*
X175154008Y-108415369D01*
X174765526Y-108026887D01*
X174257951Y-107816642D01*
X173708555Y-107816642D01*
X173645135Y-107842911D01*
X173767922Y-107746317D01*
X174081144Y-107188355D01*
X174112124Y-107060434D01*
X173992777Y-106807000D01*
X172299000Y-106807000D01*
X172045000Y-106807000D01*
X170351223Y-106807000D01*
X170231876Y-107060434D01*
X165754610Y-107060434D01*
X165778271Y-106997979D01*
X165756915Y-106299566D01*
X170231876Y-106299566D01*
X170351223Y-106553000D01*
X172045000Y-106553000D01*
X172045000Y-105045000D01*
X172299000Y-105045000D01*
X172299000Y-106553000D01*
X173992777Y-106553000D01*
X174112124Y-106299566D01*
X174081144Y-106171645D01*
X173767922Y-105613683D01*
X173723379Y-105578642D01*
X174257951Y-105578642D01*
X174765526Y-105368397D01*
X175154008Y-104979915D01*
X175364253Y-104472340D01*
X175364253Y-103922944D01*
X175154008Y-103415369D01*
X174765526Y-103026887D01*
X174257951Y-102816642D01*
X173708555Y-102816642D01*
X173200980Y-103026887D01*
X172812498Y-103415369D01*
X172602253Y-103922944D01*
X172602253Y-104472340D01*
X172812498Y-104979915D01*
X172966887Y-105134304D01*
X172649000Y-105045000D01*
X172299000Y-105045000D01*
X172045000Y-105045000D01*
X171695000Y-105045000D01*
X171078980Y-105218058D01*
X170576078Y-105613683D01*
X170262856Y-106171645D01*
X170231876Y-106299566D01*
X165756915Y-106299566D01*
X165756567Y-106288194D01*
X165526699Y-105733243D01*
X165244278Y-105616223D01*
X164162858Y-106697642D01*
X163803648Y-106697642D01*
X162722228Y-105616223D01*
X162439807Y-105733243D01*
X162306009Y-106086423D01*
X162306009Y-105436617D01*
X162901834Y-105436617D01*
X163983253Y-106518037D01*
X165064672Y-105436617D01*
X164947652Y-105154196D01*
X164283590Y-104902624D01*
X163573805Y-104924328D01*
X163018854Y-105154196D01*
X162901834Y-105436617D01*
X162306009Y-105436617D01*
X162306008Y-103993229D01*
X162314966Y-103948194D01*
X162279482Y-103769804D01*
X162203939Y-103656746D01*
X162203936Y-103656743D01*
X162178431Y-103618572D01*
X162140259Y-103593067D01*
X161775834Y-103228642D01*
X161787788Y-103228642D01*
X162350495Y-102995561D01*
X162781172Y-102564884D01*
X163014253Y-102002177D01*
X163014253Y-101680000D01*
X165413945Y-101680000D01*
X165521127Y-102218839D01*
X165826355Y-102675645D01*
X166207024Y-102930000D01*
X165826355Y-103184355D01*
X165521127Y-103641161D01*
X165413945Y-104180000D01*
X165521127Y-104718839D01*
X165826355Y-105175645D01*
X166283161Y-105480873D01*
X166685986Y-105561000D01*
X167658014Y-105561000D01*
X168060839Y-105480873D01*
X168517645Y-105175645D01*
X168822873Y-104718839D01*
X168930055Y-104180000D01*
X168822873Y-103641161D01*
X168517645Y-103184355D01*
X168136976Y-102930000D01*
X168517645Y-102675645D01*
X168822873Y-102218839D01*
X168930055Y-101680000D01*
X168879317Y-101424921D01*
X171141000Y-101424921D01*
X171141000Y-101835079D01*
X171297961Y-102214014D01*
X171587986Y-102504039D01*
X171966921Y-102661000D01*
X172377079Y-102661000D01*
X172756014Y-102504039D01*
X173046039Y-102214014D01*
X173203000Y-101835079D01*
X173203000Y-101424921D01*
X173046039Y-101045986D01*
X172756014Y-100755961D01*
X172377079Y-100599000D01*
X171966921Y-100599000D01*
X171587986Y-100755961D01*
X171297961Y-101045986D01*
X171141000Y-101424921D01*
X168879317Y-101424921D01*
X168822873Y-101141161D01*
X168596921Y-100803000D01*
X168658827Y-100828642D01*
X169307679Y-100828642D01*
X169907140Y-100580337D01*
X170365948Y-100121529D01*
X170614253Y-99522068D01*
X170614253Y-98873216D01*
X170365948Y-98273755D01*
X169907140Y-97814947D01*
X169307679Y-97566642D01*
X168658827Y-97566642D01*
X168059366Y-97814947D01*
X167600558Y-98273755D01*
X167352253Y-98873216D01*
X167352253Y-99522068D01*
X167600558Y-100121529D01*
X167807829Y-100328800D01*
X167658014Y-100299000D01*
X166685986Y-100299000D01*
X166283161Y-100379127D01*
X165826355Y-100684355D01*
X165521127Y-101141161D01*
X165413945Y-101680000D01*
X163014253Y-101680000D01*
X163014253Y-101393107D01*
X162781172Y-100830400D01*
X162350495Y-100399723D01*
X161787788Y-100166642D01*
X161178718Y-100166642D01*
X160616011Y-100399723D01*
X160185334Y-100830400D01*
X159952253Y-101393107D01*
X159952253Y-102002177D01*
X160185334Y-102564884D01*
X160616011Y-102995561D01*
X160767819Y-103058442D01*
X156802802Y-103058442D01*
X156646309Y-102901949D01*
X156380246Y-102791742D01*
X156092260Y-102791742D01*
X155826197Y-102901949D01*
X155669704Y-103058442D01*
X152270432Y-103058442D01*
X150845095Y-101633106D01*
X150862453Y-101633106D01*
X151011112Y-101603536D01*
X151137139Y-101519328D01*
X151221347Y-101393301D01*
X151250917Y-101244642D01*
X151250917Y-99944642D01*
X151221347Y-99795983D01*
X151137139Y-99669956D01*
X151011112Y-99585748D01*
X150862453Y-99556178D01*
X149062453Y-99556178D01*
X148913794Y-99585748D01*
X148870253Y-99614841D01*
X148826712Y-99585748D01*
X148678053Y-99556178D01*
X146878053Y-99556178D01*
X146729394Y-99585748D01*
X146603367Y-99669956D01*
X146519159Y-99795983D01*
X146489589Y-99944642D01*
X146489589Y-101244642D01*
X146519159Y-101393301D01*
X146603367Y-101519328D01*
X146729394Y-101603536D01*
X146878053Y-101633106D01*
X147385916Y-101633106D01*
X147448430Y-101726665D01*
X147486607Y-101752174D01*
X147890523Y-102156090D01*
X147916030Y-102194265D01*
X147954204Y-102219772D01*
X148067262Y-102295315D01*
X148245652Y-102330799D01*
X148290682Y-102321842D01*
X149809609Y-102321842D01*
X150826054Y-103338288D01*
X150826053Y-104473093D01*
X150669560Y-104629586D01*
X150559353Y-104895649D01*
X150559353Y-105183635D01*
X150669560Y-105449698D01*
X150873197Y-105653335D01*
X151139260Y-105763542D01*
X151427246Y-105763542D01*
X151693309Y-105653335D01*
X151896946Y-105449698D01*
X152007153Y-105183635D01*
X152007153Y-104895649D01*
X151896946Y-104629586D01*
X151740453Y-104473093D01*
X151740453Y-104227101D01*
X151776406Y-104251124D01*
X151954796Y-104286608D01*
X151999831Y-104277650D01*
X155081685Y-104277652D01*
X155550931Y-104746898D01*
X155576440Y-104785075D01*
X155704734Y-104870798D01*
X155727672Y-104886125D01*
X155906063Y-104921609D01*
X155951093Y-104912652D01*
X156795053Y-104912652D01*
X156795053Y-105211671D01*
X156795054Y-105211676D01*
X156795053Y-108029093D01*
X156638560Y-108185586D01*
X156528353Y-108451649D01*
X156528353Y-108739635D01*
X156638560Y-109005698D01*
X156842197Y-109209335D01*
X157108260Y-109319542D01*
X157396246Y-109319542D01*
X157662309Y-109209335D01*
X157865946Y-109005698D01*
X157976153Y-108739635D01*
X157976153Y-108451649D01*
X157865946Y-108185586D01*
X157709453Y-108029093D01*
X157709453Y-104644830D01*
X158076631Y-104277652D01*
X161086800Y-104277652D01*
X161086801Y-106234089D01*
X161040946Y-106123386D01*
X160837309Y-105919749D01*
X160571246Y-105809542D01*
X160283260Y-105809542D01*
X160017197Y-105919749D01*
X159813560Y-106123386D01*
X159703353Y-106389449D01*
X159703353Y-106677435D01*
X159813560Y-106943498D01*
X159944653Y-107074591D01*
X159944654Y-109538742D01*
X157179355Y-112304042D01*
X152908853Y-112304042D01*
X152908853Y-107226791D01*
X153039946Y-107095698D01*
X153150153Y-106829635D01*
X153150153Y-106541649D01*
X153039946Y-106275586D01*
X152836309Y-106071949D01*
X152570246Y-105961742D01*
X152282260Y-105961742D01*
X152016197Y-106071949D01*
X151812560Y-106275586D01*
X151702353Y-106541649D01*
X151702353Y-106829635D01*
X151812560Y-107095698D01*
X151943653Y-107226791D01*
X151943654Y-112586742D01*
X151324655Y-113205742D01*
X151139260Y-113205742D01*
X150873197Y-113315949D01*
X150669560Y-113519586D01*
X150559353Y-113785649D01*
X150559353Y-114073635D01*
X150669560Y-114339698D01*
X150873197Y-114543335D01*
X151139260Y-114653542D01*
X151427246Y-114653542D01*
X151693309Y-114543335D01*
X151896946Y-114339698D01*
X152007153Y-114073635D01*
X152007153Y-113888240D01*
X152626152Y-113269242D01*
X157331725Y-113269242D01*
X157379253Y-113278696D01*
X157426781Y-113269242D01*
X157426782Y-113269242D01*
X157567554Y-113241241D01*
X157727188Y-113134577D01*
X157754115Y-113094278D01*
X160734892Y-110113502D01*
X160775188Y-110086577D01*
X160881852Y-109926943D01*
X160909853Y-109786171D01*
X160909853Y-109786170D01*
X160919307Y-109738642D01*
X160909853Y-109691114D01*
X160909853Y-107074591D01*
X161040946Y-106943498D01*
X161086801Y-106832794D01*
X161086802Y-109225030D01*
X161077844Y-109270065D01*
X161113328Y-109448455D01*
X161130017Y-109473432D01*
X161214379Y-109599688D01*
X161252553Y-109625195D01*
X161798392Y-110171034D01*
X161787788Y-110166642D01*
X161178718Y-110166642D01*
X160616011Y-110399723D01*
X160185334Y-110830400D01*
X159952253Y-111393107D01*
X159952253Y-112002177D01*
X160185334Y-112564884D01*
X160616011Y-112995561D01*
X161178718Y-113228642D01*
X161787788Y-113228642D01*
X162350495Y-112995561D01*
X162781172Y-112564884D01*
X163014253Y-112002177D01*
X163014253Y-111393107D01*
X163009861Y-111382504D01*
X164298390Y-112671034D01*
X164287788Y-112666642D01*
X163678718Y-112666642D01*
X163116011Y-112899723D01*
X162685334Y-113330400D01*
X162452253Y-113893107D01*
X162452253Y-114502177D01*
X162685334Y-115064884D01*
X163116011Y-115495561D01*
X163678718Y-115728642D01*
X164287788Y-115728642D01*
X164850495Y-115495561D01*
X165281172Y-115064884D01*
X165514253Y-114502177D01*
X165514253Y-113893107D01*
X165509862Y-113882505D01*
X165861991Y-114234635D01*
X165861990Y-115468327D01*
X165611220Y-115719097D01*
X165371114Y-115619642D01*
X164881392Y-115619642D01*
X164428947Y-115807050D01*
X164082661Y-116153336D01*
X163895253Y-116605781D01*
X163895253Y-117095503D01*
X163999840Y-117348000D01*
X163712666Y-117348000D01*
X163817253Y-117095503D01*
X163817253Y-116605781D01*
X163629845Y-116153336D01*
X163283559Y-115807050D01*
X162831114Y-115619642D01*
X162341392Y-115619642D01*
X161888947Y-115807050D01*
X161542661Y-116153336D01*
X161355253Y-116605781D01*
X161355253Y-117095503D01*
X161459840Y-117348000D01*
X161172666Y-117348000D01*
X161277253Y-117095503D01*
X161277253Y-116605781D01*
X161089845Y-116153336D01*
X160743559Y-115807050D01*
X160291114Y-115619642D01*
X159801392Y-115619642D01*
X159348947Y-115807050D01*
X159002661Y-116153336D01*
X158815253Y-116605781D01*
X158815253Y-117095503D01*
X158919840Y-117348000D01*
X158632666Y-117348000D01*
X158737253Y-117095503D01*
X158737253Y-116605781D01*
X158549845Y-116153336D01*
X158203559Y-115807050D01*
X157751114Y-115619642D01*
X157261392Y-115619642D01*
X156808947Y-115807050D01*
X156462661Y-116153336D01*
X156275253Y-116605781D01*
X156275253Y-117095503D01*
X156379840Y-117348000D01*
X156092666Y-117348000D01*
X156197253Y-117095503D01*
X156197253Y-116605781D01*
X156009845Y-116153336D01*
X155663559Y-115807050D01*
X155211114Y-115619642D01*
X154721392Y-115619642D01*
X154268947Y-115807050D01*
X153922661Y-116153336D01*
X153735253Y-116605781D01*
X153735253Y-117095503D01*
X153839840Y-117348000D01*
X153552666Y-117348000D01*
X153657253Y-117095503D01*
X153657253Y-116605781D01*
X153469845Y-116153336D01*
X153123559Y-115807050D01*
X152671114Y-115619642D01*
X152181392Y-115619642D01*
X151728947Y-115807050D01*
X151382661Y-116153336D01*
X151195253Y-116605781D01*
X151195253Y-117095503D01*
X151299840Y-117348000D01*
X151012666Y-117348000D01*
X151117253Y-117095503D01*
X151117253Y-116605781D01*
X150929845Y-116153336D01*
X150583559Y-115807050D01*
X150131114Y-115619642D01*
X149641392Y-115619642D01*
X149188947Y-115807050D01*
X148842661Y-116153336D01*
X148655253Y-116605781D01*
X148655253Y-117095503D01*
X148759840Y-117348000D01*
X148472666Y-117348000D01*
X148577253Y-117095503D01*
X148577253Y-116605781D01*
X148389845Y-116153336D01*
X148043559Y-115807050D01*
X147591114Y-115619642D01*
X147101392Y-115619642D01*
X146648947Y-115807050D01*
X146302661Y-116153336D01*
X146115253Y-116605781D01*
X146115253Y-117095503D01*
X146219840Y-117348000D01*
X145932666Y-117348000D01*
X146037253Y-117095503D01*
X146037253Y-116605781D01*
X145849845Y-116153336D01*
X145503559Y-115807050D01*
X145051114Y-115619642D01*
X144561392Y-115619642D01*
X144108947Y-115807050D01*
X143762661Y-116153336D01*
X143575253Y-116605781D01*
X143575253Y-117095503D01*
X143679840Y-117348000D01*
X143392666Y-117348000D01*
X143497253Y-117095503D01*
X143497253Y-116605781D01*
X143309845Y-116153336D01*
X142963559Y-115807050D01*
X142511114Y-115619642D01*
X142021392Y-115619642D01*
X141568947Y-115807050D01*
X141222661Y-116153336D01*
X141140058Y-116352758D01*
X141021512Y-116066562D01*
X140770211Y-115986289D01*
X139905858Y-116850642D01*
X139920001Y-116864785D01*
X139740396Y-117044390D01*
X139726253Y-117030247D01*
X139712111Y-117044390D01*
X139532506Y-116864785D01*
X139546648Y-116850642D01*
X138682295Y-115986289D01*
X138430994Y-116066562D01*
X138320299Y-116371713D01*
X138229845Y-116153336D01*
X137883559Y-115807050D01*
X137617874Y-115697000D01*
X137982126Y-115697000D01*
X138024718Y-115714642D01*
X138633788Y-115714642D01*
X138676379Y-115697000D01*
X138896936Y-115697000D01*
X138861900Y-115806684D01*
X139726253Y-116671037D01*
X140590606Y-115806684D01*
X140555570Y-115697000D01*
X141605000Y-115697000D01*
X141653601Y-115687333D01*
X141694803Y-115659803D01*
X142329803Y-115024803D01*
X142357333Y-114983601D01*
X142367000Y-114935000D01*
X142367000Y-113157000D01*
X146050000Y-113157000D01*
X146098601Y-113147333D01*
X146139803Y-113119803D01*
X146774803Y-112484803D01*
X146802333Y-112443601D01*
X146812000Y-112395000D01*
X146812000Y-104438644D01*
X146943946Y-104306698D01*
X147054153Y-104040635D01*
X147054153Y-103752649D01*
X146943946Y-103486586D01*
X146740309Y-103282949D01*
X146573432Y-103213826D01*
X146139803Y-102780197D01*
X146098601Y-102752667D01*
X146050000Y-102743000D01*
X142927606Y-102743000D01*
X142367000Y-102182394D01*
X142367000Y-98893107D01*
X162452253Y-98893107D01*
X162452253Y-99502177D01*
X162685334Y-100064884D01*
X163116011Y-100495561D01*
X163678718Y-100728642D01*
X164287788Y-100728642D01*
X164850495Y-100495561D01*
X165281172Y-100064884D01*
X165514253Y-99502177D01*
X165514253Y-98893107D01*
X165281172Y-98330400D01*
X164850495Y-97899723D01*
X164287788Y-97666642D01*
X163678718Y-97666642D01*
X163116011Y-97899723D01*
X162685334Y-98330400D01*
X162452253Y-98893107D01*
X142367000Y-98893107D01*
X142367000Y-98425000D01*
X142357333Y-98376399D01*
X142329803Y-98335197D01*
X141097000Y-97102394D01*
X141097000Y-96924574D01*
X141222661Y-97227948D01*
X141568947Y-97574234D01*
X142021392Y-97761642D01*
X142511114Y-97761642D01*
X142963559Y-97574234D01*
X143309845Y-97227948D01*
X143497253Y-96775503D01*
X143497253Y-96285781D01*
X143383850Y-96012000D01*
X143688656Y-96012000D01*
X143575253Y-96285781D01*
X143575253Y-96285781D01*
G37*
X143575253Y-96285781D02*
X143575253Y-96775503D01*
X143762661Y-97227948D01*
X144108947Y-97574234D01*
X144561392Y-97761642D01*
X145051114Y-97761642D01*
X145503559Y-97574234D01*
X145849845Y-97227948D01*
X146037253Y-96775503D01*
X146037253Y-96285781D01*
X145923850Y-96012000D01*
X146228656Y-96012000D01*
X146115253Y-96285781D01*
X146115253Y-96775503D01*
X146302661Y-97227948D01*
X146648947Y-97574234D01*
X147101392Y-97761642D01*
X147591114Y-97761642D01*
X148043559Y-97574234D01*
X148389845Y-97227948D01*
X148577253Y-96775503D01*
X148577253Y-96285781D01*
X148463850Y-96012000D01*
X148768656Y-96012000D01*
X148655253Y-96285781D01*
X148655253Y-96775503D01*
X148842661Y-97227948D01*
X149188947Y-97574234D01*
X149641392Y-97761642D01*
X150131114Y-97761642D01*
X150583559Y-97574234D01*
X150929845Y-97227948D01*
X151117253Y-96775503D01*
X151117253Y-96285781D01*
X151003850Y-96012000D01*
X151308656Y-96012000D01*
X151195253Y-96285781D01*
X151195253Y-96775503D01*
X151382661Y-97227948D01*
X151728947Y-97574234D01*
X152181392Y-97761642D01*
X152671114Y-97761642D01*
X153123559Y-97574234D01*
X153469845Y-97227948D01*
X153657253Y-96775503D01*
X153657253Y-96285781D01*
X153543850Y-96012000D01*
X153848656Y-96012000D01*
X153735253Y-96285781D01*
X153735253Y-96775503D01*
X153922661Y-97227948D01*
X154268947Y-97574234D01*
X154721392Y-97761642D01*
X155211114Y-97761642D01*
X155663559Y-97574234D01*
X156009845Y-97227948D01*
X156197253Y-96775503D01*
X156197253Y-96285781D01*
X156083850Y-96012000D01*
X156388656Y-96012000D01*
X156275253Y-96285781D01*
X156275253Y-96775503D01*
X156462661Y-97227948D01*
X156808947Y-97574234D01*
X157261392Y-97761642D01*
X157751114Y-97761642D01*
X158203559Y-97574234D01*
X158549845Y-97227948D01*
X158737253Y-96775503D01*
X158737253Y-96285781D01*
X158623850Y-96012000D01*
X158928656Y-96012000D01*
X158815253Y-96285781D01*
X158815253Y-96775503D01*
X159002661Y-97227948D01*
X159348947Y-97574234D01*
X159801392Y-97761642D01*
X160291114Y-97761642D01*
X160743559Y-97574234D01*
X161089845Y-97227948D01*
X161277253Y-96775503D01*
X161277253Y-96285781D01*
X161163850Y-96012000D01*
X161468656Y-96012000D01*
X161355253Y-96285781D01*
X161355253Y-96775503D01*
X161542661Y-97227948D01*
X161888947Y-97574234D01*
X162341392Y-97761642D01*
X162831114Y-97761642D01*
X163283559Y-97574234D01*
X163629845Y-97227948D01*
X163817253Y-96775503D01*
X163817253Y-96285781D01*
X163703850Y-96012000D01*
X164008656Y-96012000D01*
X163895253Y-96285781D01*
X163895253Y-96775503D01*
X164082661Y-97227948D01*
X164428947Y-97574234D01*
X164881392Y-97761642D01*
X165371114Y-97761642D01*
X165823559Y-97574234D01*
X166169845Y-97227948D01*
X166357253Y-96775503D01*
X166357253Y-96285781D01*
X166243850Y-96012000D01*
X166548656Y-96012000D01*
X166435253Y-96285781D01*
X166435253Y-96775503D01*
X166622661Y-97227948D01*
X166968947Y-97574234D01*
X167421392Y-97761642D01*
X167911114Y-97761642D01*
X168363559Y-97574234D01*
X168709845Y-97227948D01*
X168897253Y-96775503D01*
X168897253Y-96285781D01*
X168783850Y-96012000D01*
X169088656Y-96012000D01*
X168975253Y-96285781D01*
X168975253Y-96775503D01*
X169162661Y-97227948D01*
X169508947Y-97574234D01*
X169961392Y-97761642D01*
X170451114Y-97761642D01*
X170903559Y-97574234D01*
X171001577Y-97476216D01*
X172385253Y-97476216D01*
X172385253Y-98125068D01*
X172633558Y-98724529D01*
X173092366Y-99183337D01*
X173691827Y-99431642D01*
X174340679Y-99431642D01*
X174940140Y-99183337D01*
X175398948Y-98724529D01*
X175647253Y-98125068D01*
X175647253Y-97476216D01*
X175398948Y-96876755D01*
X174940140Y-96417947D01*
X174340679Y-96169642D01*
X173691827Y-96169642D01*
X173092366Y-96417947D01*
X172633558Y-96876755D01*
X172385253Y-97476216D01*
X171001577Y-97476216D01*
X171249845Y-97227948D01*
X171437253Y-96775503D01*
X171437253Y-96285781D01*
X171323850Y-96012000D01*
X175768000Y-96012000D01*
X175768000Y-117348000D01*
X171332666Y-117348000D01*
X171437253Y-117095503D01*
X171437253Y-116605781D01*
X171249845Y-116153336D01*
X170903559Y-115807050D01*
X170451114Y-115619642D01*
X169961392Y-115619642D01*
X169508947Y-115807050D01*
X169162661Y-116153336D01*
X168975253Y-116605781D01*
X168975253Y-117095503D01*
X169079840Y-117348000D01*
X168792666Y-117348000D01*
X168897253Y-117095503D01*
X168897253Y-116605781D01*
X168709845Y-116153336D01*
X168363559Y-115807050D01*
X167911114Y-115619642D01*
X167421392Y-115619642D01*
X167181286Y-115719097D01*
X167081200Y-115619011D01*
X167081200Y-113964024D01*
X167090156Y-113918999D01*
X167081200Y-113873974D01*
X167081200Y-113873970D01*
X167054673Y-113740609D01*
X166953623Y-113589377D01*
X166915446Y-113563868D01*
X166344690Y-112993112D01*
X166685986Y-113061000D01*
X167658014Y-113061000D01*
X167851874Y-113022439D01*
X167600558Y-113273755D01*
X167352253Y-113873216D01*
X167352253Y-114522068D01*
X167600558Y-115121529D01*
X168059366Y-115580337D01*
X168658827Y-115828642D01*
X169307679Y-115828642D01*
X169907140Y-115580337D01*
X170231261Y-115256216D01*
X172385253Y-115256216D01*
X172385253Y-115905068D01*
X172633558Y-116504529D01*
X173092366Y-116963337D01*
X173691827Y-117211642D01*
X174340679Y-117211642D01*
X174940140Y-116963337D01*
X175398948Y-116504529D01*
X175647253Y-115905068D01*
X175647253Y-115256216D01*
X175398948Y-114656755D01*
X174940140Y-114197947D01*
X174340679Y-113949642D01*
X173691827Y-113949642D01*
X173092366Y-114197947D01*
X172633558Y-114656755D01*
X172385253Y-115256216D01*
X170231261Y-115256216D01*
X170365948Y-115121529D01*
X170614253Y-114522068D01*
X170614253Y-113873216D01*
X170365948Y-113273755D01*
X169907140Y-112814947D01*
X169307679Y-112566642D01*
X168658827Y-112566642D01*
X168564323Y-112605787D01*
X168822873Y-112218839D01*
X168930055Y-111680000D01*
X168899208Y-111524921D01*
X171141000Y-111524921D01*
X171141000Y-111935079D01*
X171297961Y-112314014D01*
X171587986Y-112604039D01*
X171966921Y-112761000D01*
X172377079Y-112761000D01*
X172756014Y-112604039D01*
X173046039Y-112314014D01*
X173203000Y-111935079D01*
X173203000Y-111524921D01*
X173046039Y-111145986D01*
X172756014Y-110855961D01*
X172377079Y-110699000D01*
X171966921Y-110699000D01*
X171587986Y-110855961D01*
X171297961Y-111145986D01*
X171141000Y-111524921D01*
X168899208Y-111524921D01*
X168822873Y-111141161D01*
X168517645Y-110684355D01*
X168136976Y-110430000D01*
X168517645Y-110175645D01*
X168822873Y-109718839D01*
X168930055Y-109180000D01*
X168822873Y-108641161D01*
X168517645Y-108184355D01*
X168060839Y-107879127D01*
X167658014Y-107799000D01*
X166685986Y-107799000D01*
X166283161Y-107879127D01*
X165826355Y-108184355D01*
X165521127Y-108641161D01*
X165413945Y-109180000D01*
X165521127Y-109718839D01*
X165826355Y-110175645D01*
X166207024Y-110430000D01*
X165826355Y-110684355D01*
X165521127Y-111141161D01*
X165413945Y-111680000D01*
X165508888Y-112157310D01*
X162306010Y-108954432D01*
X162306010Y-107958667D01*
X162901834Y-107958667D01*
X163018854Y-108241088D01*
X163682916Y-108492660D01*
X164392701Y-108470956D01*
X164947652Y-108241088D01*
X165064672Y-107958667D01*
X163983253Y-106877247D01*
X162901834Y-107958667D01*
X162306010Y-107958667D01*
X162306009Y-107339024D01*
X162439807Y-107662041D01*
X162722228Y-107779061D01*
X163803648Y-106697642D01*
X164162858Y-106697642D01*
X165244278Y-107779061D01*
X165526699Y-107662041D01*
X165754610Y-107060434D01*
X170231876Y-107060434D01*
X170262856Y-107188355D01*
X170576078Y-107746317D01*
X171078980Y-108141942D01*
X171695000Y-108315000D01*
X172045000Y-108315000D01*
X172045000Y-106807000D01*
X172299000Y-106807000D01*
X172299000Y-108315000D01*
X172649000Y-108315000D01*
X173015956Y-108211911D01*
X172812498Y-108415369D01*
X172602253Y-108922944D01*
X172602253Y-109472340D01*
X172812498Y-109979915D01*
X173200980Y-110368397D01*
X173708555Y-110578642D01*
X174257951Y-110578642D01*
X174765526Y-110368397D01*
X175154008Y-109979915D01*
X175364253Y-109472340D01*
X175364253Y-108922944D01*
X175154008Y-108415369D01*
X174765526Y-108026887D01*
X174257951Y-107816642D01*
X173708555Y-107816642D01*
X173645135Y-107842911D01*
X173767922Y-107746317D01*
X174081144Y-107188355D01*
X174112124Y-107060434D01*
X173992777Y-106807000D01*
X172299000Y-106807000D01*
X172045000Y-106807000D01*
X170351223Y-106807000D01*
X170231876Y-107060434D01*
X165754610Y-107060434D01*
X165778271Y-106997979D01*
X165756915Y-106299566D01*
X170231876Y-106299566D01*
X170351223Y-106553000D01*
X172045000Y-106553000D01*
X172045000Y-105045000D01*
X172299000Y-105045000D01*
X172299000Y-106553000D01*
X173992777Y-106553000D01*
X174112124Y-106299566D01*
X174081144Y-106171645D01*
X173767922Y-105613683D01*
X173723379Y-105578642D01*
X174257951Y-105578642D01*
X174765526Y-105368397D01*
X175154008Y-104979915D01*
X175364253Y-104472340D01*
X175364253Y-103922944D01*
X175154008Y-103415369D01*
X174765526Y-103026887D01*
X174257951Y-102816642D01*
X173708555Y-102816642D01*
X173200980Y-103026887D01*
X172812498Y-103415369D01*
X172602253Y-103922944D01*
X172602253Y-104472340D01*
X172812498Y-104979915D01*
X172966887Y-105134304D01*
X172649000Y-105045000D01*
X172299000Y-105045000D01*
X172045000Y-105045000D01*
X171695000Y-105045000D01*
X171078980Y-105218058D01*
X170576078Y-105613683D01*
X170262856Y-106171645D01*
X170231876Y-106299566D01*
X165756915Y-106299566D01*
X165756567Y-106288194D01*
X165526699Y-105733243D01*
X165244278Y-105616223D01*
X164162858Y-106697642D01*
X163803648Y-106697642D01*
X162722228Y-105616223D01*
X162439807Y-105733243D01*
X162306009Y-106086423D01*
X162306009Y-105436617D01*
X162901834Y-105436617D01*
X163983253Y-106518037D01*
X165064672Y-105436617D01*
X164947652Y-105154196D01*
X164283590Y-104902624D01*
X163573805Y-104924328D01*
X163018854Y-105154196D01*
X162901834Y-105436617D01*
X162306009Y-105436617D01*
X162306008Y-103993229D01*
X162314966Y-103948194D01*
X162279482Y-103769804D01*
X162203939Y-103656746D01*
X162203936Y-103656743D01*
X162178431Y-103618572D01*
X162140259Y-103593067D01*
X161775834Y-103228642D01*
X161787788Y-103228642D01*
X162350495Y-102995561D01*
X162781172Y-102564884D01*
X163014253Y-102002177D01*
X163014253Y-101680000D01*
X165413945Y-101680000D01*
X165521127Y-102218839D01*
X165826355Y-102675645D01*
X166207024Y-102930000D01*
X165826355Y-103184355D01*
X165521127Y-103641161D01*
X165413945Y-104180000D01*
X165521127Y-104718839D01*
X165826355Y-105175645D01*
X166283161Y-105480873D01*
X166685986Y-105561000D01*
X167658014Y-105561000D01*
X168060839Y-105480873D01*
X168517645Y-105175645D01*
X168822873Y-104718839D01*
X168930055Y-104180000D01*
X168822873Y-103641161D01*
X168517645Y-103184355D01*
X168136976Y-102930000D01*
X168517645Y-102675645D01*
X168822873Y-102218839D01*
X168930055Y-101680000D01*
X168879317Y-101424921D01*
X171141000Y-101424921D01*
X171141000Y-101835079D01*
X171297961Y-102214014D01*
X171587986Y-102504039D01*
X171966921Y-102661000D01*
X172377079Y-102661000D01*
X172756014Y-102504039D01*
X173046039Y-102214014D01*
X173203000Y-101835079D01*
X173203000Y-101424921D01*
X173046039Y-101045986D01*
X172756014Y-100755961D01*
X172377079Y-100599000D01*
X171966921Y-100599000D01*
X171587986Y-100755961D01*
X171297961Y-101045986D01*
X171141000Y-101424921D01*
X168879317Y-101424921D01*
X168822873Y-101141161D01*
X168596921Y-100803000D01*
X168658827Y-100828642D01*
X169307679Y-100828642D01*
X169907140Y-100580337D01*
X170365948Y-100121529D01*
X170614253Y-99522068D01*
X170614253Y-98873216D01*
X170365948Y-98273755D01*
X169907140Y-97814947D01*
X169307679Y-97566642D01*
X168658827Y-97566642D01*
X168059366Y-97814947D01*
X167600558Y-98273755D01*
X167352253Y-98873216D01*
X167352253Y-99522068D01*
X167600558Y-100121529D01*
X167807829Y-100328800D01*
X167658014Y-100299000D01*
X166685986Y-100299000D01*
X166283161Y-100379127D01*
X165826355Y-100684355D01*
X165521127Y-101141161D01*
X165413945Y-101680000D01*
X163014253Y-101680000D01*
X163014253Y-101393107D01*
X162781172Y-100830400D01*
X162350495Y-100399723D01*
X161787788Y-100166642D01*
X161178718Y-100166642D01*
X160616011Y-100399723D01*
X160185334Y-100830400D01*
X159952253Y-101393107D01*
X159952253Y-102002177D01*
X160185334Y-102564884D01*
X160616011Y-102995561D01*
X160767819Y-103058442D01*
X156802802Y-103058442D01*
X156646309Y-102901949D01*
X156380246Y-102791742D01*
X156092260Y-102791742D01*
X155826197Y-102901949D01*
X155669704Y-103058442D01*
X152270432Y-103058442D01*
X150845095Y-101633106D01*
X150862453Y-101633106D01*
X151011112Y-101603536D01*
X151137139Y-101519328D01*
X151221347Y-101393301D01*
X151250917Y-101244642D01*
X151250917Y-99944642D01*
X151221347Y-99795983D01*
X151137139Y-99669956D01*
X151011112Y-99585748D01*
X150862453Y-99556178D01*
X149062453Y-99556178D01*
X148913794Y-99585748D01*
X148870253Y-99614841D01*
X148826712Y-99585748D01*
X148678053Y-99556178D01*
X146878053Y-99556178D01*
X146729394Y-99585748D01*
X146603367Y-99669956D01*
X146519159Y-99795983D01*
X146489589Y-99944642D01*
X146489589Y-101244642D01*
X146519159Y-101393301D01*
X146603367Y-101519328D01*
X146729394Y-101603536D01*
X146878053Y-101633106D01*
X147385916Y-101633106D01*
X147448430Y-101726665D01*
X147486607Y-101752174D01*
X147890523Y-102156090D01*
X147916030Y-102194265D01*
X147954204Y-102219772D01*
X148067262Y-102295315D01*
X148245652Y-102330799D01*
X148290682Y-102321842D01*
X149809609Y-102321842D01*
X150826054Y-103338288D01*
X150826053Y-104473093D01*
X150669560Y-104629586D01*
X150559353Y-104895649D01*
X150559353Y-105183635D01*
X150669560Y-105449698D01*
X150873197Y-105653335D01*
X151139260Y-105763542D01*
X151427246Y-105763542D01*
X151693309Y-105653335D01*
X151896946Y-105449698D01*
X152007153Y-105183635D01*
X152007153Y-104895649D01*
X151896946Y-104629586D01*
X151740453Y-104473093D01*
X151740453Y-104227101D01*
X151776406Y-104251124D01*
X151954796Y-104286608D01*
X151999831Y-104277650D01*
X155081685Y-104277652D01*
X155550931Y-104746898D01*
X155576440Y-104785075D01*
X155704734Y-104870798D01*
X155727672Y-104886125D01*
X155906063Y-104921609D01*
X155951093Y-104912652D01*
X156795053Y-104912652D01*
X156795053Y-105211671D01*
X156795054Y-105211676D01*
X156795053Y-108029093D01*
X156638560Y-108185586D01*
X156528353Y-108451649D01*
X156528353Y-108739635D01*
X156638560Y-109005698D01*
X156842197Y-109209335D01*
X157108260Y-109319542D01*
X157396246Y-109319542D01*
X157662309Y-109209335D01*
X157865946Y-109005698D01*
X157976153Y-108739635D01*
X157976153Y-108451649D01*
X157865946Y-108185586D01*
X157709453Y-108029093D01*
X157709453Y-104644830D01*
X158076631Y-104277652D01*
X161086800Y-104277652D01*
X161086801Y-106234089D01*
X161040946Y-106123386D01*
X160837309Y-105919749D01*
X160571246Y-105809542D01*
X160283260Y-105809542D01*
X160017197Y-105919749D01*
X159813560Y-106123386D01*
X159703353Y-106389449D01*
X159703353Y-106677435D01*
X159813560Y-106943498D01*
X159944653Y-107074591D01*
X159944654Y-109538742D01*
X157179355Y-112304042D01*
X152908853Y-112304042D01*
X152908853Y-107226791D01*
X153039946Y-107095698D01*
X153150153Y-106829635D01*
X153150153Y-106541649D01*
X153039946Y-106275586D01*
X152836309Y-106071949D01*
X152570246Y-105961742D01*
X152282260Y-105961742D01*
X152016197Y-106071949D01*
X151812560Y-106275586D01*
X151702353Y-106541649D01*
X151702353Y-106829635D01*
X151812560Y-107095698D01*
X151943653Y-107226791D01*
X151943654Y-112586742D01*
X151324655Y-113205742D01*
X151139260Y-113205742D01*
X150873197Y-113315949D01*
X150669560Y-113519586D01*
X150559353Y-113785649D01*
X150559353Y-114073635D01*
X150669560Y-114339698D01*
X150873197Y-114543335D01*
X151139260Y-114653542D01*
X151427246Y-114653542D01*
X151693309Y-114543335D01*
X151896946Y-114339698D01*
X152007153Y-114073635D01*
X152007153Y-113888240D01*
X152626152Y-113269242D01*
X157331725Y-113269242D01*
X157379253Y-113278696D01*
X157426781Y-113269242D01*
X157426782Y-113269242D01*
X157567554Y-113241241D01*
X157727188Y-113134577D01*
X157754115Y-113094278D01*
X160734892Y-110113502D01*
X160775188Y-110086577D01*
X160881852Y-109926943D01*
X160909853Y-109786171D01*
X160909853Y-109786170D01*
X160919307Y-109738642D01*
X160909853Y-109691114D01*
X160909853Y-107074591D01*
X161040946Y-106943498D01*
X161086801Y-106832794D01*
X161086802Y-109225030D01*
X161077844Y-109270065D01*
X161113328Y-109448455D01*
X161130017Y-109473432D01*
X161214379Y-109599688D01*
X161252553Y-109625195D01*
X161798392Y-110171034D01*
X161787788Y-110166642D01*
X161178718Y-110166642D01*
X160616011Y-110399723D01*
X160185334Y-110830400D01*
X159952253Y-111393107D01*
X159952253Y-112002177D01*
X160185334Y-112564884D01*
X160616011Y-112995561D01*
X161178718Y-113228642D01*
X161787788Y-113228642D01*
X162350495Y-112995561D01*
X162781172Y-112564884D01*
X163014253Y-112002177D01*
X163014253Y-111393107D01*
X163009861Y-111382504D01*
X164298390Y-112671034D01*
X164287788Y-112666642D01*
X163678718Y-112666642D01*
X163116011Y-112899723D01*
X162685334Y-113330400D01*
X162452253Y-113893107D01*
X162452253Y-114502177D01*
X162685334Y-115064884D01*
X163116011Y-115495561D01*
X163678718Y-115728642D01*
X164287788Y-115728642D01*
X164850495Y-115495561D01*
X165281172Y-115064884D01*
X165514253Y-114502177D01*
X165514253Y-113893107D01*
X165509862Y-113882505D01*
X165861991Y-114234635D01*
X165861990Y-115468327D01*
X165611220Y-115719097D01*
X165371114Y-115619642D01*
X164881392Y-115619642D01*
X164428947Y-115807050D01*
X164082661Y-116153336D01*
X163895253Y-116605781D01*
X163895253Y-117095503D01*
X163999840Y-117348000D01*
X163712666Y-117348000D01*
X163817253Y-117095503D01*
X163817253Y-116605781D01*
X163629845Y-116153336D01*
X163283559Y-115807050D01*
X162831114Y-115619642D01*
X162341392Y-115619642D01*
X161888947Y-115807050D01*
X161542661Y-116153336D01*
X161355253Y-116605781D01*
X161355253Y-117095503D01*
X161459840Y-117348000D01*
X161172666Y-117348000D01*
X161277253Y-117095503D01*
X161277253Y-116605781D01*
X161089845Y-116153336D01*
X160743559Y-115807050D01*
X160291114Y-115619642D01*
X159801392Y-115619642D01*
X159348947Y-115807050D01*
X159002661Y-116153336D01*
X158815253Y-116605781D01*
X158815253Y-117095503D01*
X158919840Y-117348000D01*
X158632666Y-117348000D01*
X158737253Y-117095503D01*
X158737253Y-116605781D01*
X158549845Y-116153336D01*
X158203559Y-115807050D01*
X157751114Y-115619642D01*
X157261392Y-115619642D01*
X156808947Y-115807050D01*
X156462661Y-116153336D01*
X156275253Y-116605781D01*
X156275253Y-117095503D01*
X156379840Y-117348000D01*
X156092666Y-117348000D01*
X156197253Y-117095503D01*
X156197253Y-116605781D01*
X156009845Y-116153336D01*
X155663559Y-115807050D01*
X155211114Y-115619642D01*
X154721392Y-115619642D01*
X154268947Y-115807050D01*
X153922661Y-116153336D01*
X153735253Y-116605781D01*
X153735253Y-117095503D01*
X153839840Y-117348000D01*
X153552666Y-117348000D01*
X153657253Y-117095503D01*
X153657253Y-116605781D01*
X153469845Y-116153336D01*
X153123559Y-115807050D01*
X152671114Y-115619642D01*
X152181392Y-115619642D01*
X151728947Y-115807050D01*
X151382661Y-116153336D01*
X151195253Y-116605781D01*
X151195253Y-117095503D01*
X151299840Y-117348000D01*
X151012666Y-117348000D01*
X151117253Y-117095503D01*
X151117253Y-116605781D01*
X150929845Y-116153336D01*
X150583559Y-115807050D01*
X150131114Y-115619642D01*
X149641392Y-115619642D01*
X149188947Y-115807050D01*
X148842661Y-116153336D01*
X148655253Y-116605781D01*
X148655253Y-117095503D01*
X148759840Y-117348000D01*
X148472666Y-117348000D01*
X148577253Y-117095503D01*
X148577253Y-116605781D01*
X148389845Y-116153336D01*
X148043559Y-115807050D01*
X147591114Y-115619642D01*
X147101392Y-115619642D01*
X146648947Y-115807050D01*
X146302661Y-116153336D01*
X146115253Y-116605781D01*
X146115253Y-117095503D01*
X146219840Y-117348000D01*
X145932666Y-117348000D01*
X146037253Y-117095503D01*
X146037253Y-116605781D01*
X145849845Y-116153336D01*
X145503559Y-115807050D01*
X145051114Y-115619642D01*
X144561392Y-115619642D01*
X144108947Y-115807050D01*
X143762661Y-116153336D01*
X143575253Y-116605781D01*
X143575253Y-117095503D01*
X143679840Y-117348000D01*
X143392666Y-117348000D01*
X143497253Y-117095503D01*
X143497253Y-116605781D01*
X143309845Y-116153336D01*
X142963559Y-115807050D01*
X142511114Y-115619642D01*
X142021392Y-115619642D01*
X141568947Y-115807050D01*
X141222661Y-116153336D01*
X141140058Y-116352758D01*
X141021512Y-116066562D01*
X140770211Y-115986289D01*
X139905858Y-116850642D01*
X139920001Y-116864785D01*
X139740396Y-117044390D01*
X139726253Y-117030247D01*
X139712111Y-117044390D01*
X139532506Y-116864785D01*
X139546648Y-116850642D01*
X138682295Y-115986289D01*
X138430994Y-116066562D01*
X138320299Y-116371713D01*
X138229845Y-116153336D01*
X137883559Y-115807050D01*
X137617874Y-115697000D01*
X137982126Y-115697000D01*
X138024718Y-115714642D01*
X138633788Y-115714642D01*
X138676379Y-115697000D01*
X138896936Y-115697000D01*
X138861900Y-115806684D01*
X139726253Y-116671037D01*
X140590606Y-115806684D01*
X140555570Y-115697000D01*
X141605000Y-115697000D01*
X141653601Y-115687333D01*
X141694803Y-115659803D01*
X142329803Y-115024803D01*
X142357333Y-114983601D01*
X142367000Y-114935000D01*
X142367000Y-113157000D01*
X146050000Y-113157000D01*
X146098601Y-113147333D01*
X146139803Y-113119803D01*
X146774803Y-112484803D01*
X146802333Y-112443601D01*
X146812000Y-112395000D01*
X146812000Y-104438644D01*
X146943946Y-104306698D01*
X147054153Y-104040635D01*
X147054153Y-103752649D01*
X146943946Y-103486586D01*
X146740309Y-103282949D01*
X146573432Y-103213826D01*
X146139803Y-102780197D01*
X146098601Y-102752667D01*
X146050000Y-102743000D01*
X142927606Y-102743000D01*
X142367000Y-102182394D01*
X142367000Y-98893107D01*
X162452253Y-98893107D01*
X162452253Y-99502177D01*
X162685334Y-100064884D01*
X163116011Y-100495561D01*
X163678718Y-100728642D01*
X164287788Y-100728642D01*
X164850495Y-100495561D01*
X165281172Y-100064884D01*
X165514253Y-99502177D01*
X165514253Y-98893107D01*
X165281172Y-98330400D01*
X164850495Y-97899723D01*
X164287788Y-97666642D01*
X163678718Y-97666642D01*
X163116011Y-97899723D01*
X162685334Y-98330400D01*
X162452253Y-98893107D01*
X142367000Y-98893107D01*
X142367000Y-98425000D01*
X142357333Y-98376399D01*
X142329803Y-98335197D01*
X141097000Y-97102394D01*
X141097000Y-96924574D01*
X141222661Y-97227948D01*
X141568947Y-97574234D01*
X142021392Y-97761642D01*
X142511114Y-97761642D01*
X142963559Y-97574234D01*
X143309845Y-97227948D01*
X143497253Y-96775503D01*
X143497253Y-96285781D01*
X143383850Y-96012000D01*
X143688656Y-96012000D01*
X143575253Y-96285781D01*
M02*
