G04 #@! TF.GenerationSoftware,KiCad,Pcbnew,(5.0.0-rc2-dev-444-g2974a2c10)*
G04 #@! TF.CreationDate,2019-08-12T19:19:49-07:00*
G04 #@! TF.ProjectId,Classic MIDI FeatherWing,436C6173736963204D49444920466561,v01*
G04 #@! TF.SameCoordinates,Original*
G04 #@! TF.FileFunction,Legend,Top*
G04 #@! TF.FilePolarity,Positive*
%FSLAX46Y46*%
G04 Gerber Fmt 4.6, Leading zero omitted, Abs format (unit mm)*
G04 Created by KiCad (PCBNEW (5.0.0-rc2-dev-444-g2974a2c10)) date 08/12/19 19:19:49*
%MOMM*%
%LPD*%
G01*
G04 APERTURE LIST*
%ADD10C,0.100000*%
%ADD11C,0.200000*%
%ADD12C,0.150000*%
%ADD13C,0.080000*%
%ADD14C,0.120000*%
G04 APERTURE END LIST*
D10*
X175514000Y-95885000D02*
X175006000Y-95504000D01*
X175514000Y-95885000D02*
X175006000Y-96266000D01*
X173482000Y-95885000D02*
X175514000Y-95885000D01*
X132207000Y-96012000D02*
X131699000Y-96393000D01*
X132207000Y-96012000D02*
X131699000Y-95631000D01*
X130175000Y-96012000D02*
X132207000Y-96012000D01*
D11*
X149250400Y-100863400D02*
X149910800Y-101346000D01*
X149250400Y-100838000D02*
X148615400Y-101346000D01*
X149250400Y-100711000D02*
X149250400Y-102489000D01*
X156583684Y-102946000D02*
G75*
G03X156583684Y-102946000I-143684J0D01*
G01*
X156607684Y-107442000D02*
G75*
G03X156607684Y-107442000I-143684J0D01*
G01*
X156607684Y-111760000D02*
G75*
G03X156607684Y-111760000I-143684J0D01*
G01*
X146447684Y-112268000D02*
G75*
G03X146447684Y-112268000I-143684J0D01*
G01*
X142891684Y-105012316D02*
G75*
G03X142891684Y-105012316I-143684J0D01*
G01*
X144669684Y-102616000D02*
G75*
G03X144669684Y-102616000I-143684J0D01*
G01*
D12*
X171702666Y-117091666D02*
X171836000Y-117091666D01*
X171902666Y-117125000D01*
X171969333Y-117191666D01*
X172002666Y-117325000D01*
X172002666Y-117558333D01*
X171969333Y-117691666D01*
X171902666Y-117758333D01*
X171836000Y-117791666D01*
X171702666Y-117791666D01*
X171636000Y-117758333D01*
X171569333Y-117691666D01*
X171536000Y-117558333D01*
X171536000Y-117325000D01*
X171569333Y-117191666D01*
X171636000Y-117125000D01*
X171702666Y-117091666D01*
X172302666Y-117091666D02*
X172302666Y-117658333D01*
X172336000Y-117725000D01*
X172369333Y-117758333D01*
X172436000Y-117791666D01*
X172569333Y-117791666D01*
X172636000Y-117758333D01*
X172669333Y-117725000D01*
X172702666Y-117658333D01*
X172702666Y-117091666D01*
X172936000Y-117091666D02*
X173336000Y-117091666D01*
X173136000Y-117791666D02*
X173136000Y-117091666D01*
X174302666Y-118058333D02*
X174269333Y-118025000D01*
X174202666Y-117925000D01*
X174169333Y-117858333D01*
X174136000Y-117758333D01*
X174102666Y-117591666D01*
X174102666Y-117458333D01*
X174136000Y-117291666D01*
X174169333Y-117191666D01*
X174202666Y-117125000D01*
X174269333Y-117025000D01*
X174302666Y-116991666D01*
X174469333Y-117091666D02*
X174869333Y-117091666D01*
X174669333Y-117791666D02*
X174669333Y-117091666D01*
X175036000Y-117091666D02*
X175502666Y-117791666D01*
X175502666Y-117091666D02*
X175036000Y-117791666D01*
X175702666Y-118058333D02*
X175736000Y-118025000D01*
X175802666Y-117925000D01*
X175836000Y-117858333D01*
X175869333Y-117758333D01*
X175902666Y-117591666D01*
X175902666Y-117458333D01*
X175869333Y-117291666D01*
X175836000Y-117191666D01*
X175802666Y-117125000D01*
X175736000Y-117025000D01*
X175702666Y-116991666D01*
X132836666Y-96328666D02*
X132836666Y-95628666D01*
X133170000Y-96328666D02*
X133170000Y-95628666D01*
X133570000Y-96328666D01*
X133570000Y-95628666D01*
X134636666Y-96595333D02*
X134603333Y-96562000D01*
X134536666Y-96462000D01*
X134503333Y-96395333D01*
X134470000Y-96295333D01*
X134436666Y-96128666D01*
X134436666Y-95995333D01*
X134470000Y-95828666D01*
X134503333Y-95728666D01*
X134536666Y-95662000D01*
X134603333Y-95562000D01*
X134636666Y-95528666D01*
X135303333Y-96328666D02*
X135070000Y-95995333D01*
X134903333Y-96328666D02*
X134903333Y-95628666D01*
X135170000Y-95628666D01*
X135236666Y-95662000D01*
X135270000Y-95695333D01*
X135303333Y-95762000D01*
X135303333Y-95862000D01*
X135270000Y-95928666D01*
X135236666Y-95962000D01*
X135170000Y-95995333D01*
X134903333Y-95995333D01*
X135536666Y-95628666D02*
X136003333Y-96328666D01*
X136003333Y-95628666D02*
X135536666Y-96328666D01*
X136203333Y-96595333D02*
X136236666Y-96562000D01*
X136303333Y-96462000D01*
X136336666Y-96395333D01*
X136370000Y-96295333D01*
X136403333Y-96128666D01*
X136403333Y-95995333D01*
X136370000Y-95828666D01*
X136336666Y-95728666D01*
X136303333Y-95662000D01*
X136236666Y-95562000D01*
X136203333Y-95528666D01*
D11*
X147777200Y-99644200D02*
X147777200Y-99060000D01*
X152527000Y-99060000D02*
X151892000Y-99568000D01*
X152527000Y-99060000D02*
X151892000Y-98552000D01*
X147777200Y-99060000D02*
X152527000Y-99060000D01*
D10*
X152344619Y-112248190D02*
X152439857Y-112248190D01*
X152487476Y-112272000D01*
X152535095Y-112319619D01*
X152558904Y-112414857D01*
X152558904Y-112581523D01*
X152535095Y-112676761D01*
X152487476Y-112724380D01*
X152439857Y-112748190D01*
X152344619Y-112748190D01*
X152297000Y-112724380D01*
X152249380Y-112676761D01*
X152225571Y-112581523D01*
X152225571Y-112414857D01*
X152249380Y-112319619D01*
X152297000Y-112272000D01*
X152344619Y-112248190D01*
X152773190Y-112248190D02*
X152773190Y-112652952D01*
X152797000Y-112700571D01*
X152820809Y-112724380D01*
X152868428Y-112748190D01*
X152963666Y-112748190D01*
X153011285Y-112724380D01*
X153035095Y-112700571D01*
X153058904Y-112652952D01*
X153058904Y-112248190D01*
X153225571Y-112248190D02*
X153511285Y-112248190D01*
X153368428Y-112748190D02*
X153368428Y-112248190D01*
X154201761Y-112938666D02*
X154177952Y-112914857D01*
X154130333Y-112843428D01*
X154106523Y-112795809D01*
X154082714Y-112724380D01*
X154058904Y-112605333D01*
X154058904Y-112510095D01*
X154082714Y-112391047D01*
X154106523Y-112319619D01*
X154130333Y-112272000D01*
X154177952Y-112200571D01*
X154201761Y-112176761D01*
X154320809Y-112248190D02*
X154606523Y-112248190D01*
X154463666Y-112748190D02*
X154463666Y-112248190D01*
X154725571Y-112248190D02*
X155058904Y-112748190D01*
X155058904Y-112248190D02*
X154725571Y-112748190D01*
X155201761Y-112938666D02*
X155225571Y-112914857D01*
X155273190Y-112843428D01*
X155297000Y-112795809D01*
X155320809Y-112724380D01*
X155344619Y-112605333D01*
X155344619Y-112510095D01*
X155320809Y-112391047D01*
X155297000Y-112319619D01*
X155273190Y-112272000D01*
X155225571Y-112200571D01*
X155201761Y-112176761D01*
X147697190Y-112748190D02*
X147697190Y-112248190D01*
X147935285Y-112748190D02*
X147935285Y-112248190D01*
X148221000Y-112748190D01*
X148221000Y-112248190D01*
X148982904Y-112938666D02*
X148959095Y-112914857D01*
X148911476Y-112843428D01*
X148887666Y-112795809D01*
X148863857Y-112724380D01*
X148840047Y-112605333D01*
X148840047Y-112510095D01*
X148863857Y-112391047D01*
X148887666Y-112319619D01*
X148911476Y-112272000D01*
X148959095Y-112200571D01*
X148982904Y-112176761D01*
X149459095Y-112748190D02*
X149292428Y-112510095D01*
X149173380Y-112748190D02*
X149173380Y-112248190D01*
X149363857Y-112248190D01*
X149411476Y-112272000D01*
X149435285Y-112295809D01*
X149459095Y-112343428D01*
X149459095Y-112414857D01*
X149435285Y-112462476D01*
X149411476Y-112486285D01*
X149363857Y-112510095D01*
X149173380Y-112510095D01*
X149625761Y-112248190D02*
X149959095Y-112748190D01*
X149959095Y-112248190D02*
X149625761Y-112748190D01*
X150101952Y-112938666D02*
X150125761Y-112914857D01*
X150173380Y-112843428D01*
X150197190Y-112795809D01*
X150221000Y-112724380D01*
X150244809Y-112605333D01*
X150244809Y-112510095D01*
X150221000Y-112391047D01*
X150197190Y-112319619D01*
X150173380Y-112272000D01*
X150125761Y-112200571D01*
X150101952Y-112176761D01*
X151967000Y-111939000D02*
X151967000Y-110288000D01*
X151586000Y-110923000D02*
X151967000Y-110542000D01*
X151967000Y-110161000D02*
X152348000Y-110542000D01*
X151967000Y-110542000D02*
X152348000Y-110923000D01*
X151967000Y-110923000D02*
X152348000Y-111304000D01*
X151586000Y-111304000D02*
X151967000Y-110923000D01*
X151586000Y-110542000D02*
X151967000Y-110161000D01*
X150824000Y-110542000D02*
X151205000Y-110161000D01*
X151205000Y-111431000D02*
X151205000Y-109780000D01*
X151205000Y-110161000D02*
X151586000Y-110542000D01*
X151205000Y-110542000D02*
X151586000Y-110923000D01*
X151205000Y-109780000D02*
X151586000Y-110161000D01*
X150824000Y-110923000D02*
X151205000Y-110542000D01*
X150824000Y-110161000D02*
X151205000Y-109780000D01*
X150443000Y-110923000D02*
X150824000Y-111304000D01*
X150443000Y-110542000D02*
X150824000Y-110923000D01*
X150443000Y-110161000D02*
X150824000Y-110542000D01*
X150062000Y-111304000D02*
X150443000Y-110923000D01*
X150062000Y-110923000D02*
X150443000Y-110542000D01*
X150062000Y-110542000D02*
X150443000Y-110161000D01*
X150443000Y-111939000D02*
X150443000Y-110288000D01*
D13*
X158204142Y-98539047D02*
X158223190Y-98520000D01*
X158261285Y-98500952D01*
X158356523Y-98500952D01*
X158394619Y-98520000D01*
X158413666Y-98539047D01*
X158432714Y-98577142D01*
X158432714Y-98615238D01*
X158413666Y-98672380D01*
X158185095Y-98900952D01*
X158432714Y-98900952D01*
X158680333Y-98500952D02*
X158718428Y-98500952D01*
X158756523Y-98520000D01*
X158775571Y-98539047D01*
X158794619Y-98577142D01*
X158813666Y-98653333D01*
X158813666Y-98748571D01*
X158794619Y-98824761D01*
X158775571Y-98862857D01*
X158756523Y-98881904D01*
X158718428Y-98900952D01*
X158680333Y-98900952D01*
X158642238Y-98881904D01*
X158623190Y-98862857D01*
X158604142Y-98824761D01*
X158585095Y-98748571D01*
X158585095Y-98653333D01*
X158604142Y-98577142D01*
X158623190Y-98539047D01*
X158642238Y-98520000D01*
X158680333Y-98500952D01*
X159194619Y-98900952D02*
X158966047Y-98900952D01*
X159080333Y-98900952D02*
X159080333Y-98500952D01*
X159042238Y-98558095D01*
X159004142Y-98596190D01*
X158966047Y-98615238D01*
X159385095Y-98900952D02*
X159461285Y-98900952D01*
X159499380Y-98881904D01*
X159518428Y-98862857D01*
X159556523Y-98805714D01*
X159575571Y-98729523D01*
X159575571Y-98577142D01*
X159556523Y-98539047D01*
X159537476Y-98520000D01*
X159499380Y-98500952D01*
X159423190Y-98500952D01*
X159385095Y-98520000D01*
X159366047Y-98539047D01*
X159347000Y-98577142D01*
X159347000Y-98672380D01*
X159366047Y-98710476D01*
X159385095Y-98729523D01*
X159423190Y-98748571D01*
X159499380Y-98748571D01*
X159537476Y-98729523D01*
X159556523Y-98710476D01*
X159575571Y-98672380D01*
X159747000Y-98748571D02*
X160051761Y-98748571D01*
X160318428Y-98500952D02*
X160356523Y-98500952D01*
X160394619Y-98520000D01*
X160413666Y-98539047D01*
X160432714Y-98577142D01*
X160451761Y-98653333D01*
X160451761Y-98748571D01*
X160432714Y-98824761D01*
X160413666Y-98862857D01*
X160394619Y-98881904D01*
X160356523Y-98900952D01*
X160318428Y-98900952D01*
X160280333Y-98881904D01*
X160261285Y-98862857D01*
X160242238Y-98824761D01*
X160223190Y-98748571D01*
X160223190Y-98653333D01*
X160242238Y-98577142D01*
X160261285Y-98539047D01*
X160280333Y-98520000D01*
X160318428Y-98500952D01*
X160794619Y-98500952D02*
X160718428Y-98500952D01*
X160680333Y-98520000D01*
X160661285Y-98539047D01*
X160623190Y-98596190D01*
X160604142Y-98672380D01*
X160604142Y-98824761D01*
X160623190Y-98862857D01*
X160642238Y-98881904D01*
X160680333Y-98900952D01*
X160756523Y-98900952D01*
X160794619Y-98881904D01*
X160813666Y-98862857D01*
X160832714Y-98824761D01*
X160832714Y-98729523D01*
X160813666Y-98691428D01*
X160794619Y-98672380D01*
X160756523Y-98653333D01*
X160680333Y-98653333D01*
X160642238Y-98672380D01*
X160623190Y-98691428D01*
X160604142Y-98729523D01*
X161004142Y-98748571D02*
X161308904Y-98748571D01*
X161708904Y-98900952D02*
X161480333Y-98900952D01*
X161594619Y-98900952D02*
X161594619Y-98500952D01*
X161556523Y-98558095D01*
X161518428Y-98596190D01*
X161480333Y-98615238D01*
X162070809Y-98500952D02*
X161880333Y-98500952D01*
X161861285Y-98691428D01*
X161880333Y-98672380D01*
X161918428Y-98653333D01*
X162013666Y-98653333D01*
X162051761Y-98672380D01*
X162070809Y-98691428D01*
X162089857Y-98729523D01*
X162089857Y-98824761D01*
X162070809Y-98862857D01*
X162051761Y-98881904D01*
X162013666Y-98900952D01*
X161918428Y-98900952D01*
X161880333Y-98881904D01*
X161861285Y-98862857D01*
X159670809Y-99314285D02*
X159766047Y-99580952D01*
X159861285Y-99314285D01*
X160089857Y-99180952D02*
X160127952Y-99180952D01*
X160166047Y-99200000D01*
X160185095Y-99219047D01*
X160204142Y-99257142D01*
X160223190Y-99333333D01*
X160223190Y-99428571D01*
X160204142Y-99504761D01*
X160185095Y-99542857D01*
X160166047Y-99561904D01*
X160127952Y-99580952D01*
X160089857Y-99580952D01*
X160051761Y-99561904D01*
X160032714Y-99542857D01*
X160013666Y-99504761D01*
X159994619Y-99428571D01*
X159994619Y-99333333D01*
X160013666Y-99257142D01*
X160032714Y-99219047D01*
X160051761Y-99200000D01*
X160089857Y-99180952D01*
X160604142Y-99580952D02*
X160375571Y-99580952D01*
X160489857Y-99580952D02*
X160489857Y-99180952D01*
X160451761Y-99238095D01*
X160413666Y-99276190D01*
X160375571Y-99295238D01*
D11*
X146629809Y-100655380D02*
X146629809Y-99655380D01*
X146963142Y-100369666D01*
X147296476Y-99655380D01*
X147296476Y-100655380D01*
X147772666Y-100655380D02*
X147772666Y-99655380D01*
X148248857Y-100655380D02*
X148248857Y-99655380D01*
X148486952Y-99655380D01*
X148629809Y-99703000D01*
X148725047Y-99798238D01*
X148772666Y-99893476D01*
X148820285Y-100083952D01*
X148820285Y-100226809D01*
X148772666Y-100417285D01*
X148725047Y-100512523D01*
X148629809Y-100607761D01*
X148486952Y-100655380D01*
X148248857Y-100655380D01*
X149248857Y-100655380D02*
X149248857Y-99655380D01*
X149629809Y-99988714D02*
X149820285Y-100655380D01*
X150010761Y-100179190D01*
X150201238Y-100655380D01*
X150391714Y-99988714D01*
X150772666Y-100655380D02*
X150772666Y-99988714D01*
X150772666Y-99655380D02*
X150725047Y-99703000D01*
X150772666Y-99750619D01*
X150820285Y-99703000D01*
X150772666Y-99655380D01*
X150772666Y-99750619D01*
X151248857Y-99988714D02*
X151248857Y-100655380D01*
X151248857Y-100083952D02*
X151296476Y-100036333D01*
X151391714Y-99988714D01*
X151534571Y-99988714D01*
X151629809Y-100036333D01*
X151677428Y-100131571D01*
X151677428Y-100655380D01*
X152582190Y-99988714D02*
X152582190Y-100798238D01*
X152534571Y-100893476D01*
X152486952Y-100941095D01*
X152391714Y-100988714D01*
X152248857Y-100988714D01*
X152153619Y-100941095D01*
X152582190Y-100607761D02*
X152486952Y-100655380D01*
X152296476Y-100655380D01*
X152201238Y-100607761D01*
X152153619Y-100560142D01*
X152106000Y-100464904D01*
X152106000Y-100179190D01*
X152153619Y-100083952D01*
X152201238Y-100036333D01*
X152296476Y-99988714D01*
X152486952Y-99988714D01*
X152582190Y-100036333D01*
D10*
X127342000Y-112680000D02*
X127342000Y-100680000D01*
X127342000Y-100680000D02*
X138842000Y-100680000D01*
X138842000Y-100680000D02*
X138842000Y-112680000D01*
X123842000Y-110180000D02*
X127342000Y-110180000D01*
X123842000Y-110180000D02*
X123842000Y-103180000D01*
X128342000Y-112680000D02*
X128342000Y-100680000D01*
X124342000Y-106680000D02*
X123842000Y-106680000D01*
X136892000Y-100680000D02*
X136892000Y-112680000D01*
X123842000Y-103180000D02*
X127342000Y-103180000D01*
X127342000Y-112680000D02*
X138842000Y-112680000D01*
X175172000Y-100680000D02*
X175172000Y-112680000D01*
X175172000Y-112680000D02*
X163672000Y-112680000D01*
X163672000Y-112680000D02*
X163672000Y-100680000D01*
X178672000Y-103180000D02*
X175172000Y-103180000D01*
X178672000Y-103180000D02*
X178672000Y-110180000D01*
X174172000Y-100680000D02*
X174172000Y-112680000D01*
X178172000Y-106680000D02*
X178672000Y-106680000D01*
X165622000Y-112680000D02*
X165622000Y-100680000D01*
X178672000Y-110180000D02*
X175172000Y-110180000D01*
X175172000Y-100680000D02*
X163672000Y-100680000D01*
D14*
X160593253Y-116697642D02*
X160593253Y-112737642D01*
X160593253Y-116697642D02*
X176523253Y-116697642D01*
X176523253Y-116697642D02*
X176523253Y-96697642D01*
X160593253Y-96697642D02*
X176523253Y-96697642D01*
X160593253Y-110637642D02*
X160593253Y-102767642D01*
X160593253Y-100657642D02*
X160593253Y-96697642D01*
X141719253Y-96683642D02*
X141719253Y-100643642D01*
X141719253Y-96683642D02*
X125789253Y-96683642D01*
X125789253Y-96683642D02*
X125789253Y-116683642D01*
X141719253Y-116683642D02*
X125789253Y-116683642D01*
X141719253Y-102743642D02*
X141719253Y-110613642D01*
X141719253Y-112723642D02*
X141719253Y-116683642D01*
X146027253Y-112324643D02*
X146027253Y-110724643D01*
X146027253Y-110724643D02*
X143427253Y-110724643D01*
X146027253Y-112324643D02*
X143427253Y-112324643D01*
X150706253Y-114502642D02*
X150706253Y-113102642D01*
X150706253Y-113102642D02*
X147906253Y-113102642D01*
X150706253Y-114502642D02*
X147906253Y-114502642D01*
X151987253Y-113102642D02*
X151987253Y-114502642D01*
X151987253Y-114502642D02*
X154787253Y-114502642D01*
X151987253Y-113102642D02*
X154787253Y-113102642D01*
X144692000Y-100338000D02*
X144692000Y-101338000D01*
X146392000Y-101338000D02*
X146392000Y-100338000D01*
X142660000Y-100338000D02*
X142660000Y-101338000D01*
X144360000Y-101338000D02*
X144360000Y-100338000D01*
X143677253Y-102998643D02*
X144877253Y-102998643D01*
X144877253Y-104758643D02*
X143677253Y-104758643D01*
X149216253Y-104776642D02*
X148016253Y-104776642D01*
X148016253Y-103016642D02*
X149216253Y-103016642D01*
X159656253Y-107995642D02*
X159656253Y-109195642D01*
X157896253Y-109195642D02*
X157896253Y-107995642D01*
X159656253Y-104185642D02*
X159656253Y-105385642D01*
X157896253Y-105385642D02*
X157896253Y-104185642D01*
X158868253Y-114682642D02*
X157668253Y-114682642D01*
X157668253Y-112922642D02*
X158868253Y-112922642D01*
X143825253Y-112922642D02*
X145025253Y-112922642D01*
X145025253Y-114682642D02*
X143825253Y-114682642D01*
D12*
X144382253Y-105194143D02*
X142982253Y-105194143D01*
X144382253Y-110294143D02*
X148532253Y-110294143D01*
X144382253Y-105144143D02*
X148532253Y-105144143D01*
X144382253Y-110294143D02*
X144382253Y-110149143D01*
X148532253Y-110294143D02*
X148532253Y-110149143D01*
X148532253Y-105144143D02*
X148532253Y-105289143D01*
X144382253Y-105144143D02*
X144382253Y-105194143D01*
D14*
X154140000Y-102946000D02*
X156440000Y-102946000D01*
X155740000Y-99746000D02*
X154140000Y-99746000D01*
X154013000Y-111582000D02*
X156313000Y-111582000D01*
X155613000Y-108382000D02*
X154013000Y-108382000D01*
X155639253Y-104138142D02*
X154039253Y-104138142D01*
X154039253Y-107338142D02*
X156339253Y-107338142D01*
D10*
X125756253Y-95260642D02*
X176556253Y-95260642D01*
X176556253Y-95260642D02*
X176556253Y-118120642D01*
X176556253Y-118120642D02*
X125756253Y-118120642D01*
X125756253Y-118120642D02*
X125756253Y-95260642D01*
X175286253Y-97800642D02*
G75*
G03X175286253Y-97800642I-1270000J0D01*
G01*
X175286253Y-115580642D02*
G75*
G03X175286253Y-115580642I-1270000J0D01*
G01*
X130201253Y-115580642D02*
G75*
G03X130201253Y-115580642I-1905000J0D01*
G01*
X130201253Y-97800642D02*
G75*
G03X130201253Y-97800642I-1905000J0D01*
G01*
D13*
X124622952Y-106813333D02*
X124908666Y-106813333D01*
X124965809Y-106832380D01*
X125003904Y-106870476D01*
X125022952Y-106927619D01*
X125022952Y-106965714D01*
X124622952Y-106660952D02*
X124622952Y-106413333D01*
X124775333Y-106546666D01*
X124775333Y-106489523D01*
X124794380Y-106451428D01*
X124813428Y-106432380D01*
X124851523Y-106413333D01*
X124946761Y-106413333D01*
X124984857Y-106432380D01*
X125003904Y-106451428D01*
X125022952Y-106489523D01*
X125022952Y-106603809D01*
X125003904Y-106641904D01*
X124984857Y-106660952D01*
X125372952Y-108363333D02*
X125372952Y-108134761D01*
X125772952Y-108249047D02*
X125372952Y-108249047D01*
X125772952Y-107772857D02*
X125582476Y-107906190D01*
X125772952Y-108001428D02*
X125372952Y-108001428D01*
X125372952Y-107849047D01*
X125392000Y-107810952D01*
X125411047Y-107791904D01*
X125449142Y-107772857D01*
X125506285Y-107772857D01*
X125544380Y-107791904D01*
X125563428Y-107810952D01*
X125582476Y-107849047D01*
X125582476Y-108001428D01*
X125753904Y-107620476D02*
X125772952Y-107563333D01*
X125772952Y-107468095D01*
X125753904Y-107430000D01*
X125734857Y-107410952D01*
X125696761Y-107391904D01*
X125658666Y-107391904D01*
X125620571Y-107410952D01*
X125601523Y-107430000D01*
X125582476Y-107468095D01*
X125563428Y-107544285D01*
X125544380Y-107582380D01*
X125525333Y-107601428D01*
X125487238Y-107620476D01*
X125449142Y-107620476D01*
X125411047Y-107601428D01*
X125392000Y-107582380D01*
X125372952Y-107544285D01*
X125372952Y-107449047D01*
X125392000Y-107391904D01*
X125811047Y-107315714D02*
X125811047Y-107010952D01*
X125772952Y-106915714D02*
X125372952Y-106915714D01*
X125658666Y-106782380D01*
X125372952Y-106649047D01*
X125772952Y-106649047D01*
X125772952Y-106458571D02*
X125372952Y-106458571D01*
X125772952Y-106268095D02*
X125372952Y-106268095D01*
X125372952Y-106172857D01*
X125392000Y-106115714D01*
X125430095Y-106077619D01*
X125468190Y-106058571D01*
X125544380Y-106039523D01*
X125601523Y-106039523D01*
X125677714Y-106058571D01*
X125715809Y-106077619D01*
X125753904Y-106115714D01*
X125772952Y-106172857D01*
X125772952Y-106268095D01*
X125772952Y-105868095D02*
X125372952Y-105868095D01*
X125811047Y-105772857D02*
X125811047Y-105468095D01*
X125772952Y-105372857D02*
X125372952Y-105372857D01*
X125772952Y-105182380D02*
X125372952Y-105182380D01*
X125772952Y-104953809D01*
X125372952Y-104953809D01*
X132553904Y-107591904D02*
X132572952Y-107534761D01*
X132572952Y-107439523D01*
X132553904Y-107401428D01*
X132534857Y-107382380D01*
X132496761Y-107363333D01*
X132458666Y-107363333D01*
X132420571Y-107382380D01*
X132401523Y-107401428D01*
X132382476Y-107439523D01*
X132363428Y-107515714D01*
X132344380Y-107553809D01*
X132325333Y-107572857D01*
X132287238Y-107591904D01*
X132249142Y-107591904D01*
X132211047Y-107572857D01*
X132192000Y-107553809D01*
X132172952Y-107515714D01*
X132172952Y-107420476D01*
X132192000Y-107363333D01*
X132572952Y-107191904D02*
X132172952Y-107191904D01*
X132363428Y-107191904D02*
X132363428Y-106963333D01*
X132572952Y-106963333D02*
X132172952Y-106963333D01*
X132572952Y-106772857D02*
X132172952Y-106772857D01*
X132363428Y-106582380D02*
X132363428Y-106449047D01*
X132572952Y-106391904D02*
X132572952Y-106582380D01*
X132172952Y-106582380D01*
X132172952Y-106391904D01*
X132572952Y-106030000D02*
X132572952Y-106220476D01*
X132172952Y-106220476D01*
X132572952Y-105896666D02*
X132172952Y-105896666D01*
X132172952Y-105801428D01*
X132192000Y-105744285D01*
X132230095Y-105706190D01*
X132268190Y-105687142D01*
X132344380Y-105668095D01*
X132401523Y-105668095D01*
X132477714Y-105687142D01*
X132515809Y-105706190D01*
X132553904Y-105744285D01*
X132572952Y-105801428D01*
X132572952Y-105896666D01*
X132872952Y-101989523D02*
X132872952Y-101760952D01*
X133272952Y-101875238D02*
X132872952Y-101875238D01*
X133272952Y-101627619D02*
X132872952Y-101627619D01*
X133272952Y-101437142D02*
X132872952Y-101437142D01*
X132872952Y-101284761D01*
X132892000Y-101246666D01*
X132911047Y-101227619D01*
X132949142Y-101208571D01*
X133006285Y-101208571D01*
X133044380Y-101227619D01*
X133063428Y-101246666D01*
X133082476Y-101284761D01*
X133082476Y-101437142D01*
X133222952Y-104510952D02*
X133032476Y-104644285D01*
X133222952Y-104739523D02*
X132822952Y-104739523D01*
X132822952Y-104587142D01*
X132842000Y-104549047D01*
X132861047Y-104530000D01*
X132899142Y-104510952D01*
X132956285Y-104510952D01*
X132994380Y-104530000D01*
X133013428Y-104549047D01*
X133032476Y-104587142D01*
X133032476Y-104739523D01*
X133222952Y-104339523D02*
X132822952Y-104339523D01*
X133222952Y-104149047D02*
X132822952Y-104149047D01*
X133222952Y-103920476D01*
X132822952Y-103920476D01*
X132842000Y-103520476D02*
X132822952Y-103558571D01*
X132822952Y-103615714D01*
X132842000Y-103672857D01*
X132880095Y-103710952D01*
X132918190Y-103730000D01*
X132994380Y-103749047D01*
X133051523Y-103749047D01*
X133127714Y-103730000D01*
X133165809Y-103710952D01*
X133203904Y-103672857D01*
X133222952Y-103615714D01*
X133222952Y-103577619D01*
X133203904Y-103520476D01*
X133184857Y-103501428D01*
X133051523Y-103501428D01*
X133051523Y-103577619D01*
X133222952Y-109377619D02*
X133032476Y-109510952D01*
X133222952Y-109606190D02*
X132822952Y-109606190D01*
X132822952Y-109453809D01*
X132842000Y-109415714D01*
X132861047Y-109396666D01*
X132899142Y-109377619D01*
X132956285Y-109377619D01*
X132994380Y-109396666D01*
X133013428Y-109415714D01*
X133032476Y-109453809D01*
X133032476Y-109606190D01*
X133203904Y-109225238D02*
X133222952Y-109187142D01*
X133222952Y-109110952D01*
X133203904Y-109072857D01*
X133165809Y-109053809D01*
X133146761Y-109053809D01*
X133108666Y-109072857D01*
X133089619Y-109110952D01*
X133089619Y-109168095D01*
X133070571Y-109206190D01*
X133032476Y-109225238D01*
X133013428Y-109225238D01*
X132975333Y-109206190D01*
X132956285Y-109168095D01*
X132956285Y-109110952D01*
X132975333Y-109072857D01*
X132956285Y-108920476D02*
X133222952Y-108844285D01*
X133032476Y-108768095D01*
X133222952Y-108691904D01*
X132956285Y-108615714D01*
X132822952Y-112215714D02*
X132822952Y-111987142D01*
X133222952Y-112101428D02*
X132822952Y-112101428D01*
X133203904Y-111872857D02*
X133222952Y-111834761D01*
X133222952Y-111758571D01*
X133203904Y-111720476D01*
X133165809Y-111701428D01*
X133146761Y-111701428D01*
X133108666Y-111720476D01*
X133089619Y-111758571D01*
X133089619Y-111815714D01*
X133070571Y-111853809D01*
X133032476Y-111872857D01*
X133013428Y-111872857D01*
X132975333Y-111853809D01*
X132956285Y-111815714D01*
X132956285Y-111758571D01*
X132975333Y-111720476D01*
X132956285Y-111568095D02*
X133222952Y-111491904D01*
X133032476Y-111415714D01*
X133222952Y-111339523D01*
X132956285Y-111263333D01*
X126675333Y-109394285D02*
X126656285Y-109413333D01*
X126599142Y-109451428D01*
X126561047Y-109470476D01*
X126503904Y-109489523D01*
X126408666Y-109508571D01*
X126332476Y-109508571D01*
X126237238Y-109489523D01*
X126180095Y-109470476D01*
X126142000Y-109451428D01*
X126084857Y-109413333D01*
X126065809Y-109394285D01*
X126484857Y-109013333D02*
X126503904Y-109032380D01*
X126522952Y-109089523D01*
X126522952Y-109127619D01*
X126503904Y-109184761D01*
X126465809Y-109222857D01*
X126427714Y-109241904D01*
X126351523Y-109260952D01*
X126294380Y-109260952D01*
X126218190Y-109241904D01*
X126180095Y-109222857D01*
X126142000Y-109184761D01*
X126122952Y-109127619D01*
X126122952Y-109089523D01*
X126142000Y-109032380D01*
X126161047Y-109013333D01*
X126122952Y-108841904D02*
X126446761Y-108841904D01*
X126484857Y-108822857D01*
X126503904Y-108803809D01*
X126522952Y-108765714D01*
X126522952Y-108689523D01*
X126503904Y-108651428D01*
X126484857Y-108632380D01*
X126446761Y-108613333D01*
X126122952Y-108613333D01*
X126522952Y-108422857D02*
X126122952Y-108422857D01*
X126370571Y-108232380D02*
X126370571Y-107927619D01*
X126503904Y-107756190D02*
X126522952Y-107699047D01*
X126522952Y-107603809D01*
X126503904Y-107565714D01*
X126484857Y-107546666D01*
X126446761Y-107527619D01*
X126408666Y-107527619D01*
X126370571Y-107546666D01*
X126351523Y-107565714D01*
X126332476Y-107603809D01*
X126313428Y-107680000D01*
X126294380Y-107718095D01*
X126275333Y-107737142D01*
X126237238Y-107756190D01*
X126199142Y-107756190D01*
X126161047Y-107737142D01*
X126142000Y-107718095D01*
X126122952Y-107680000D01*
X126122952Y-107584761D01*
X126142000Y-107527619D01*
X126122952Y-107241904D02*
X126408666Y-107241904D01*
X126465809Y-107260952D01*
X126503904Y-107299047D01*
X126522952Y-107356190D01*
X126522952Y-107394285D01*
X126522952Y-106841904D02*
X126522952Y-107070476D01*
X126522952Y-106956190D02*
X126122952Y-106956190D01*
X126180095Y-106994285D01*
X126218190Y-107032380D01*
X126237238Y-107070476D01*
X126370571Y-106670476D02*
X126370571Y-106365714D01*
X126122952Y-106213333D02*
X126122952Y-105965714D01*
X126275333Y-106099047D01*
X126275333Y-106041904D01*
X126294380Y-106003809D01*
X126313428Y-105984761D01*
X126351523Y-105965714D01*
X126446761Y-105965714D01*
X126484857Y-105984761D01*
X126503904Y-106003809D01*
X126522952Y-106041904D01*
X126522952Y-106156190D01*
X126503904Y-106194285D01*
X126484857Y-106213333D01*
X126122952Y-105603809D02*
X126122952Y-105794285D01*
X126313428Y-105813333D01*
X126294380Y-105794285D01*
X126275333Y-105756190D01*
X126275333Y-105660952D01*
X126294380Y-105622857D01*
X126313428Y-105603809D01*
X126351523Y-105584761D01*
X126446761Y-105584761D01*
X126484857Y-105603809D01*
X126503904Y-105622857D01*
X126522952Y-105660952D01*
X126522952Y-105756190D01*
X126503904Y-105794285D01*
X126484857Y-105813333D01*
X126122952Y-105222857D02*
X126122952Y-105413333D01*
X126313428Y-105432380D01*
X126294380Y-105413333D01*
X126275333Y-105375238D01*
X126275333Y-105280000D01*
X126294380Y-105241904D01*
X126313428Y-105222857D01*
X126351523Y-105203809D01*
X126446761Y-105203809D01*
X126484857Y-105222857D01*
X126503904Y-105241904D01*
X126522952Y-105280000D01*
X126522952Y-105375238D01*
X126503904Y-105413333D01*
X126484857Y-105432380D01*
X126122952Y-104841904D02*
X126122952Y-105032380D01*
X126313428Y-105051428D01*
X126294380Y-105032380D01*
X126275333Y-104994285D01*
X126275333Y-104899047D01*
X126294380Y-104860952D01*
X126313428Y-104841904D01*
X126351523Y-104822857D01*
X126446761Y-104822857D01*
X126484857Y-104841904D01*
X126503904Y-104860952D01*
X126522952Y-104899047D01*
X126522952Y-104994285D01*
X126503904Y-105032380D01*
X126484857Y-105051428D01*
X126256285Y-104651428D02*
X126522952Y-104651428D01*
X126294380Y-104651428D02*
X126275333Y-104632380D01*
X126256285Y-104594285D01*
X126256285Y-104537142D01*
X126275333Y-104499047D01*
X126313428Y-104480000D01*
X126522952Y-104480000D01*
X126256285Y-104118095D02*
X126580095Y-104118095D01*
X126618190Y-104137142D01*
X126637238Y-104156190D01*
X126656285Y-104194285D01*
X126656285Y-104251428D01*
X126637238Y-104289523D01*
X126503904Y-104118095D02*
X126522952Y-104156190D01*
X126522952Y-104232380D01*
X126503904Y-104270476D01*
X126484857Y-104289523D01*
X126446761Y-104308571D01*
X126332476Y-104308571D01*
X126294380Y-104289523D01*
X126275333Y-104270476D01*
X126256285Y-104232380D01*
X126256285Y-104156190D01*
X126275333Y-104118095D01*
X126675333Y-103965714D02*
X126656285Y-103946666D01*
X126599142Y-103908571D01*
X126561047Y-103889523D01*
X126503904Y-103870476D01*
X126408666Y-103851428D01*
X126332476Y-103851428D01*
X126237238Y-103870476D01*
X126180095Y-103889523D01*
X126142000Y-103908571D01*
X126084857Y-103946666D01*
X126065809Y-103965714D01*
X177452952Y-106813333D02*
X177738666Y-106813333D01*
X177795809Y-106832380D01*
X177833904Y-106870476D01*
X177852952Y-106927619D01*
X177852952Y-106965714D01*
X177586285Y-106451428D02*
X177852952Y-106451428D01*
X177433904Y-106546666D02*
X177719619Y-106641904D01*
X177719619Y-106394285D01*
X176702952Y-108730000D02*
X176702952Y-108501428D01*
X177102952Y-108615714D02*
X176702952Y-108615714D01*
X177102952Y-108139523D02*
X176912476Y-108272857D01*
X177102952Y-108368095D02*
X176702952Y-108368095D01*
X176702952Y-108215714D01*
X176722000Y-108177619D01*
X176741047Y-108158571D01*
X176779142Y-108139523D01*
X176836285Y-108139523D01*
X176874380Y-108158571D01*
X176893428Y-108177619D01*
X176912476Y-108215714D01*
X176912476Y-108368095D01*
X177083904Y-107987142D02*
X177102952Y-107930000D01*
X177102952Y-107834761D01*
X177083904Y-107796666D01*
X177064857Y-107777619D01*
X177026761Y-107758571D01*
X176988666Y-107758571D01*
X176950571Y-107777619D01*
X176931523Y-107796666D01*
X176912476Y-107834761D01*
X176893428Y-107910952D01*
X176874380Y-107949047D01*
X176855333Y-107968095D01*
X176817238Y-107987142D01*
X176779142Y-107987142D01*
X176741047Y-107968095D01*
X176722000Y-107949047D01*
X176702952Y-107910952D01*
X176702952Y-107815714D01*
X176722000Y-107758571D01*
X177141047Y-107682380D02*
X177141047Y-107377619D01*
X177102952Y-107282380D02*
X176702952Y-107282380D01*
X176988666Y-107149047D01*
X176702952Y-107015714D01*
X177102952Y-107015714D01*
X177102952Y-106825238D02*
X176702952Y-106825238D01*
X177102952Y-106634761D02*
X176702952Y-106634761D01*
X176702952Y-106539523D01*
X176722000Y-106482380D01*
X176760095Y-106444285D01*
X176798190Y-106425238D01*
X176874380Y-106406190D01*
X176931523Y-106406190D01*
X177007714Y-106425238D01*
X177045809Y-106444285D01*
X177083904Y-106482380D01*
X177102952Y-106539523D01*
X177102952Y-106634761D01*
X177102952Y-106234761D02*
X176702952Y-106234761D01*
X177141047Y-106139523D02*
X177141047Y-105834761D01*
X176702952Y-105663333D02*
X176702952Y-105587142D01*
X176722000Y-105549047D01*
X176760095Y-105510952D01*
X176836285Y-105491904D01*
X176969619Y-105491904D01*
X177045809Y-105510952D01*
X177083904Y-105549047D01*
X177102952Y-105587142D01*
X177102952Y-105663333D01*
X177083904Y-105701428D01*
X177045809Y-105739523D01*
X176969619Y-105758571D01*
X176836285Y-105758571D01*
X176760095Y-105739523D01*
X176722000Y-105701428D01*
X176702952Y-105663333D01*
X176702952Y-105320476D02*
X177026761Y-105320476D01*
X177064857Y-105301428D01*
X177083904Y-105282380D01*
X177102952Y-105244285D01*
X177102952Y-105168095D01*
X177083904Y-105130000D01*
X177064857Y-105110952D01*
X177026761Y-105091904D01*
X176702952Y-105091904D01*
X176702952Y-104958571D02*
X176702952Y-104730000D01*
X177102952Y-104844285D02*
X176702952Y-104844285D01*
X170283904Y-107691904D02*
X170302952Y-107634761D01*
X170302952Y-107539523D01*
X170283904Y-107501428D01*
X170264857Y-107482380D01*
X170226761Y-107463333D01*
X170188666Y-107463333D01*
X170150571Y-107482380D01*
X170131523Y-107501428D01*
X170112476Y-107539523D01*
X170093428Y-107615714D01*
X170074380Y-107653809D01*
X170055333Y-107672857D01*
X170017238Y-107691904D01*
X169979142Y-107691904D01*
X169941047Y-107672857D01*
X169922000Y-107653809D01*
X169902952Y-107615714D01*
X169902952Y-107520476D01*
X169922000Y-107463333D01*
X170302952Y-107291904D02*
X169902952Y-107291904D01*
X170093428Y-107291904D02*
X170093428Y-107063333D01*
X170302952Y-107063333D02*
X169902952Y-107063333D01*
X170302952Y-106872857D02*
X169902952Y-106872857D01*
X170093428Y-106682380D02*
X170093428Y-106549047D01*
X170302952Y-106491904D02*
X170302952Y-106682380D01*
X169902952Y-106682380D01*
X169902952Y-106491904D01*
X170302952Y-106130000D02*
X170302952Y-106320476D01*
X169902952Y-106320476D01*
X170302952Y-105996666D02*
X169902952Y-105996666D01*
X169902952Y-105901428D01*
X169922000Y-105844285D01*
X169960095Y-105806190D01*
X169998190Y-105787142D01*
X170074380Y-105768095D01*
X170131523Y-105768095D01*
X170207714Y-105787142D01*
X170245809Y-105806190D01*
X170283904Y-105844285D01*
X170302952Y-105901428D01*
X170302952Y-105996666D01*
X169202952Y-112189523D02*
X169202952Y-111960952D01*
X169602952Y-112075238D02*
X169202952Y-112075238D01*
X169602952Y-111827619D02*
X169202952Y-111827619D01*
X169602952Y-111637142D02*
X169202952Y-111637142D01*
X169202952Y-111484761D01*
X169222000Y-111446666D01*
X169241047Y-111427619D01*
X169279142Y-111408571D01*
X169336285Y-111408571D01*
X169374380Y-111427619D01*
X169393428Y-111446666D01*
X169412476Y-111484761D01*
X169412476Y-111637142D01*
X169652952Y-109610952D02*
X169462476Y-109744285D01*
X169652952Y-109839523D02*
X169252952Y-109839523D01*
X169252952Y-109687142D01*
X169272000Y-109649047D01*
X169291047Y-109630000D01*
X169329142Y-109610952D01*
X169386285Y-109610952D01*
X169424380Y-109630000D01*
X169443428Y-109649047D01*
X169462476Y-109687142D01*
X169462476Y-109839523D01*
X169652952Y-109439523D02*
X169252952Y-109439523D01*
X169652952Y-109249047D02*
X169252952Y-109249047D01*
X169652952Y-109020476D01*
X169252952Y-109020476D01*
X169272000Y-108620476D02*
X169252952Y-108658571D01*
X169252952Y-108715714D01*
X169272000Y-108772857D01*
X169310095Y-108810952D01*
X169348190Y-108830000D01*
X169424380Y-108849047D01*
X169481523Y-108849047D01*
X169557714Y-108830000D01*
X169595809Y-108810952D01*
X169633904Y-108772857D01*
X169652952Y-108715714D01*
X169652952Y-108677619D01*
X169633904Y-108620476D01*
X169614857Y-108601428D01*
X169481523Y-108601428D01*
X169481523Y-108677619D01*
X169652952Y-104477619D02*
X169462476Y-104610952D01*
X169652952Y-104706190D02*
X169252952Y-104706190D01*
X169252952Y-104553809D01*
X169272000Y-104515714D01*
X169291047Y-104496666D01*
X169329142Y-104477619D01*
X169386285Y-104477619D01*
X169424380Y-104496666D01*
X169443428Y-104515714D01*
X169462476Y-104553809D01*
X169462476Y-104706190D01*
X169633904Y-104325238D02*
X169652952Y-104287142D01*
X169652952Y-104210952D01*
X169633904Y-104172857D01*
X169595809Y-104153809D01*
X169576761Y-104153809D01*
X169538666Y-104172857D01*
X169519619Y-104210952D01*
X169519619Y-104268095D01*
X169500571Y-104306190D01*
X169462476Y-104325238D01*
X169443428Y-104325238D01*
X169405333Y-104306190D01*
X169386285Y-104268095D01*
X169386285Y-104210952D01*
X169405333Y-104172857D01*
X169386285Y-104020476D02*
X169652952Y-103944285D01*
X169462476Y-103868095D01*
X169652952Y-103791904D01*
X169386285Y-103715714D01*
X169252952Y-102115714D02*
X169252952Y-101887142D01*
X169652952Y-102001428D02*
X169252952Y-102001428D01*
X169633904Y-101772857D02*
X169652952Y-101734761D01*
X169652952Y-101658571D01*
X169633904Y-101620476D01*
X169595809Y-101601428D01*
X169576761Y-101601428D01*
X169538666Y-101620476D01*
X169519619Y-101658571D01*
X169519619Y-101715714D01*
X169500571Y-101753809D01*
X169462476Y-101772857D01*
X169443428Y-101772857D01*
X169405333Y-101753809D01*
X169386285Y-101715714D01*
X169386285Y-101658571D01*
X169405333Y-101620476D01*
X169386285Y-101468095D02*
X169652952Y-101391904D01*
X169462476Y-101315714D01*
X169652952Y-101239523D01*
X169386285Y-101163333D01*
X176505333Y-109394285D02*
X176486285Y-109413333D01*
X176429142Y-109451428D01*
X176391047Y-109470476D01*
X176333904Y-109489523D01*
X176238666Y-109508571D01*
X176162476Y-109508571D01*
X176067238Y-109489523D01*
X176010095Y-109470476D01*
X175972000Y-109451428D01*
X175914857Y-109413333D01*
X175895809Y-109394285D01*
X176314857Y-109013333D02*
X176333904Y-109032380D01*
X176352952Y-109089523D01*
X176352952Y-109127619D01*
X176333904Y-109184761D01*
X176295809Y-109222857D01*
X176257714Y-109241904D01*
X176181523Y-109260952D01*
X176124380Y-109260952D01*
X176048190Y-109241904D01*
X176010095Y-109222857D01*
X175972000Y-109184761D01*
X175952952Y-109127619D01*
X175952952Y-109089523D01*
X175972000Y-109032380D01*
X175991047Y-109013333D01*
X175952952Y-108841904D02*
X176276761Y-108841904D01*
X176314857Y-108822857D01*
X176333904Y-108803809D01*
X176352952Y-108765714D01*
X176352952Y-108689523D01*
X176333904Y-108651428D01*
X176314857Y-108632380D01*
X176276761Y-108613333D01*
X175952952Y-108613333D01*
X176352952Y-108422857D02*
X175952952Y-108422857D01*
X176200571Y-108232380D02*
X176200571Y-107927619D01*
X176333904Y-107756190D02*
X176352952Y-107699047D01*
X176352952Y-107603809D01*
X176333904Y-107565714D01*
X176314857Y-107546666D01*
X176276761Y-107527619D01*
X176238666Y-107527619D01*
X176200571Y-107546666D01*
X176181523Y-107565714D01*
X176162476Y-107603809D01*
X176143428Y-107680000D01*
X176124380Y-107718095D01*
X176105333Y-107737142D01*
X176067238Y-107756190D01*
X176029142Y-107756190D01*
X175991047Y-107737142D01*
X175972000Y-107718095D01*
X175952952Y-107680000D01*
X175952952Y-107584761D01*
X175972000Y-107527619D01*
X175952952Y-107241904D02*
X176238666Y-107241904D01*
X176295809Y-107260952D01*
X176333904Y-107299047D01*
X176352952Y-107356190D01*
X176352952Y-107394285D01*
X176352952Y-106841904D02*
X176352952Y-107070476D01*
X176352952Y-106956190D02*
X175952952Y-106956190D01*
X176010095Y-106994285D01*
X176048190Y-107032380D01*
X176067238Y-107070476D01*
X176200571Y-106670476D02*
X176200571Y-106365714D01*
X175952952Y-106213333D02*
X175952952Y-105965714D01*
X176105333Y-106099047D01*
X176105333Y-106041904D01*
X176124380Y-106003809D01*
X176143428Y-105984761D01*
X176181523Y-105965714D01*
X176276761Y-105965714D01*
X176314857Y-105984761D01*
X176333904Y-106003809D01*
X176352952Y-106041904D01*
X176352952Y-106156190D01*
X176333904Y-106194285D01*
X176314857Y-106213333D01*
X175952952Y-105603809D02*
X175952952Y-105794285D01*
X176143428Y-105813333D01*
X176124380Y-105794285D01*
X176105333Y-105756190D01*
X176105333Y-105660952D01*
X176124380Y-105622857D01*
X176143428Y-105603809D01*
X176181523Y-105584761D01*
X176276761Y-105584761D01*
X176314857Y-105603809D01*
X176333904Y-105622857D01*
X176352952Y-105660952D01*
X176352952Y-105756190D01*
X176333904Y-105794285D01*
X176314857Y-105813333D01*
X175952952Y-105222857D02*
X175952952Y-105413333D01*
X176143428Y-105432380D01*
X176124380Y-105413333D01*
X176105333Y-105375238D01*
X176105333Y-105280000D01*
X176124380Y-105241904D01*
X176143428Y-105222857D01*
X176181523Y-105203809D01*
X176276761Y-105203809D01*
X176314857Y-105222857D01*
X176333904Y-105241904D01*
X176352952Y-105280000D01*
X176352952Y-105375238D01*
X176333904Y-105413333D01*
X176314857Y-105432380D01*
X175952952Y-104841904D02*
X175952952Y-105032380D01*
X176143428Y-105051428D01*
X176124380Y-105032380D01*
X176105333Y-104994285D01*
X176105333Y-104899047D01*
X176124380Y-104860952D01*
X176143428Y-104841904D01*
X176181523Y-104822857D01*
X176276761Y-104822857D01*
X176314857Y-104841904D01*
X176333904Y-104860952D01*
X176352952Y-104899047D01*
X176352952Y-104994285D01*
X176333904Y-105032380D01*
X176314857Y-105051428D01*
X176086285Y-104651428D02*
X176352952Y-104651428D01*
X176124380Y-104651428D02*
X176105333Y-104632380D01*
X176086285Y-104594285D01*
X176086285Y-104537142D01*
X176105333Y-104499047D01*
X176143428Y-104480000D01*
X176352952Y-104480000D01*
X176086285Y-104118095D02*
X176410095Y-104118095D01*
X176448190Y-104137142D01*
X176467238Y-104156190D01*
X176486285Y-104194285D01*
X176486285Y-104251428D01*
X176467238Y-104289523D01*
X176333904Y-104118095D02*
X176352952Y-104156190D01*
X176352952Y-104232380D01*
X176333904Y-104270476D01*
X176314857Y-104289523D01*
X176276761Y-104308571D01*
X176162476Y-104308571D01*
X176124380Y-104289523D01*
X176105333Y-104270476D01*
X176086285Y-104232380D01*
X176086285Y-104156190D01*
X176105333Y-104118095D01*
X176505333Y-103965714D02*
X176486285Y-103946666D01*
X176429142Y-103908571D01*
X176391047Y-103889523D01*
X176333904Y-103870476D01*
X176238666Y-103851428D01*
X176162476Y-103851428D01*
X176067238Y-103870476D01*
X176010095Y-103889523D01*
X175972000Y-103908571D01*
X175914857Y-103946666D01*
X175895809Y-103965714D01*
D10*
X174077333Y-99929190D02*
X174077333Y-100286333D01*
X174053523Y-100357761D01*
X174005904Y-100405380D01*
X173934476Y-100429190D01*
X173886857Y-100429190D01*
X174291619Y-99976809D02*
X174315428Y-99953000D01*
X174363047Y-99929190D01*
X174482095Y-99929190D01*
X174529714Y-99953000D01*
X174553523Y-99976809D01*
X174577333Y-100024428D01*
X174577333Y-100072047D01*
X174553523Y-100143476D01*
X174267809Y-100429190D01*
X174577333Y-100429190D01*
X165709443Y-114364308D02*
X165709443Y-114054784D01*
X165899919Y-114221451D01*
X165899919Y-114150022D01*
X165923729Y-114102403D01*
X165947538Y-114078594D01*
X165995157Y-114054784D01*
X166114205Y-114054784D01*
X166161824Y-114078594D01*
X166185633Y-114102403D01*
X166209443Y-114150022D01*
X166209443Y-114292880D01*
X166185633Y-114340499D01*
X166161824Y-114364308D01*
X163109443Y-111578594D02*
X163109443Y-111816689D01*
X163347538Y-111840499D01*
X163323729Y-111816689D01*
X163299919Y-111769070D01*
X163299919Y-111650022D01*
X163323729Y-111602403D01*
X163347538Y-111578594D01*
X163395157Y-111554784D01*
X163514205Y-111554784D01*
X163561824Y-111578594D01*
X163585633Y-111602403D01*
X163609443Y-111650022D01*
X163609443Y-111769070D01*
X163585633Y-111816689D01*
X163561824Y-111840499D01*
X165707062Y-106840499D02*
X165683253Y-106816689D01*
X165659443Y-106769070D01*
X165659443Y-106650022D01*
X165683253Y-106602403D01*
X165707062Y-106578594D01*
X165754681Y-106554784D01*
X165802300Y-106554784D01*
X165873729Y-106578594D01*
X166159443Y-106864308D01*
X166159443Y-106554784D01*
X163276110Y-101552403D02*
X163609443Y-101552403D01*
X163085633Y-101671451D02*
X163442776Y-101790499D01*
X163442776Y-101480975D01*
X166159443Y-99104784D02*
X166159443Y-99390499D01*
X166159443Y-99247642D02*
X165659443Y-99247642D01*
X165730872Y-99295261D01*
X165778491Y-99342880D01*
X165802300Y-99390499D01*
X162235633Y-107900022D02*
X162259443Y-107828594D01*
X162259443Y-107709546D01*
X162235633Y-107661927D01*
X162211824Y-107638118D01*
X162164205Y-107614308D01*
X162116586Y-107614308D01*
X162068967Y-107638118D01*
X162045157Y-107661927D01*
X162021348Y-107709546D01*
X161997538Y-107804784D01*
X161973729Y-107852403D01*
X161949919Y-107876213D01*
X161902300Y-107900022D01*
X161854681Y-107900022D01*
X161807062Y-107876213D01*
X161783253Y-107852403D01*
X161759443Y-107804784D01*
X161759443Y-107685737D01*
X161783253Y-107614308D01*
X162259443Y-107400022D02*
X161759443Y-107400022D01*
X161997538Y-107400022D02*
X161997538Y-107114308D01*
X162259443Y-107114308D02*
X161759443Y-107114308D01*
X162259443Y-106876213D02*
X161759443Y-106876213D01*
X161997538Y-106638118D02*
X161997538Y-106471451D01*
X162259443Y-106400022D02*
X162259443Y-106638118D01*
X161759443Y-106638118D01*
X161759443Y-106400022D01*
X162259443Y-105947642D02*
X162259443Y-106185737D01*
X161759443Y-106185737D01*
X162259443Y-105780975D02*
X161759443Y-105780975D01*
X161759443Y-105661927D01*
X161783253Y-105590499D01*
X161830872Y-105542880D01*
X161878491Y-105519070D01*
X161973729Y-105495261D01*
X162045157Y-105495261D01*
X162140395Y-105519070D01*
X162188014Y-105542880D01*
X162235633Y-105590499D01*
X162259443Y-105661927D01*
X162259443Y-105780975D01*
X129627333Y-99548190D02*
X129627333Y-99905333D01*
X129603523Y-99976761D01*
X129555904Y-100024380D01*
X129484476Y-100048190D01*
X129436857Y-100048190D01*
X130127333Y-100048190D02*
X129841619Y-100048190D01*
X129984476Y-100048190D02*
X129984476Y-99548190D01*
X129936857Y-99619619D01*
X129889238Y-99667238D01*
X129841619Y-99691047D01*
X136055443Y-99350308D02*
X136055443Y-99040784D01*
X136245919Y-99207451D01*
X136245919Y-99136022D01*
X136269729Y-99088403D01*
X136293538Y-99064594D01*
X136341157Y-99040784D01*
X136460205Y-99040784D01*
X136507824Y-99064594D01*
X136531633Y-99088403D01*
X136555443Y-99136022D01*
X136555443Y-99278880D01*
X136531633Y-99326499D01*
X136507824Y-99350308D01*
X138655443Y-101564594D02*
X138655443Y-101802689D01*
X138893538Y-101826499D01*
X138869729Y-101802689D01*
X138845919Y-101755070D01*
X138845919Y-101636022D01*
X138869729Y-101588403D01*
X138893538Y-101564594D01*
X138941157Y-101540784D01*
X139060205Y-101540784D01*
X139107824Y-101564594D01*
X139131633Y-101588403D01*
X139155443Y-101636022D01*
X139155443Y-101755070D01*
X139131633Y-101802689D01*
X139107824Y-101826499D01*
X136153062Y-106826499D02*
X136129253Y-106802689D01*
X136105443Y-106755070D01*
X136105443Y-106636022D01*
X136129253Y-106588403D01*
X136153062Y-106564594D01*
X136200681Y-106540784D01*
X136248300Y-106540784D01*
X136319729Y-106564594D01*
X136605443Y-106850308D01*
X136605443Y-106540784D01*
X138822110Y-111638403D02*
X139155443Y-111638403D01*
X138631633Y-111757451D02*
X138988776Y-111876499D01*
X138988776Y-111566975D01*
X136605443Y-113990784D02*
X136605443Y-114276499D01*
X136605443Y-114133642D02*
X136105443Y-114133642D01*
X136176872Y-114181261D01*
X136224491Y-114228880D01*
X136248300Y-114276499D01*
X140481633Y-107886022D02*
X140505443Y-107814594D01*
X140505443Y-107695546D01*
X140481633Y-107647927D01*
X140457824Y-107624118D01*
X140410205Y-107600308D01*
X140362586Y-107600308D01*
X140314967Y-107624118D01*
X140291157Y-107647927D01*
X140267348Y-107695546D01*
X140243538Y-107790784D01*
X140219729Y-107838403D01*
X140195919Y-107862213D01*
X140148300Y-107886022D01*
X140100681Y-107886022D01*
X140053062Y-107862213D01*
X140029253Y-107838403D01*
X140005443Y-107790784D01*
X140005443Y-107671737D01*
X140029253Y-107600308D01*
X140505443Y-107386022D02*
X140005443Y-107386022D01*
X140243538Y-107386022D02*
X140243538Y-107100308D01*
X140505443Y-107100308D02*
X140005443Y-107100308D01*
X140505443Y-106862213D02*
X140005443Y-106862213D01*
X140243538Y-106624118D02*
X140243538Y-106457451D01*
X140505443Y-106386022D02*
X140505443Y-106624118D01*
X140005443Y-106624118D01*
X140005443Y-106386022D01*
X140505443Y-105933642D02*
X140505443Y-106171737D01*
X140005443Y-106171737D01*
X140505443Y-105766975D02*
X140005443Y-105766975D01*
X140005443Y-105647927D01*
X140029253Y-105576499D01*
X140076872Y-105528880D01*
X140124491Y-105505070D01*
X140219729Y-105481261D01*
X140291157Y-105481261D01*
X140386395Y-105505070D01*
X140434014Y-105528880D01*
X140481633Y-105576499D01*
X140505443Y-105647927D01*
X140505443Y-105766975D01*
D13*
X146262761Y-111178952D02*
X146262761Y-110778952D01*
X146358000Y-110778952D01*
X146415142Y-110798000D01*
X146453238Y-110836095D01*
X146472285Y-110874190D01*
X146491333Y-110950380D01*
X146491333Y-111007523D01*
X146472285Y-111083714D01*
X146453238Y-111121809D01*
X146415142Y-111159904D01*
X146358000Y-111178952D01*
X146262761Y-111178952D01*
X146872285Y-111178952D02*
X146643714Y-111178952D01*
X146758000Y-111178952D02*
X146758000Y-110778952D01*
X146719904Y-110836095D01*
X146681809Y-110874190D01*
X146643714Y-110893238D01*
X146243809Y-111794904D02*
X146300952Y-111813952D01*
X146396190Y-111813952D01*
X146434285Y-111794904D01*
X146453333Y-111775857D01*
X146472380Y-111737761D01*
X146472380Y-111699666D01*
X146453333Y-111661571D01*
X146434285Y-111642523D01*
X146396190Y-111623476D01*
X146320000Y-111604428D01*
X146281904Y-111585380D01*
X146262857Y-111566333D01*
X146243809Y-111528238D01*
X146243809Y-111490142D01*
X146262857Y-111452047D01*
X146281904Y-111433000D01*
X146320000Y-111413952D01*
X146415238Y-111413952D01*
X146472380Y-111433000D01*
X146643809Y-111813952D02*
X146643809Y-111413952D01*
X146739047Y-111413952D01*
X146796190Y-111433000D01*
X146834285Y-111471095D01*
X146853333Y-111509190D01*
X146872380Y-111585380D01*
X146872380Y-111642523D01*
X146853333Y-111718714D01*
X146834285Y-111756809D01*
X146796190Y-111794904D01*
X146739047Y-111813952D01*
X146643809Y-111813952D01*
X147120000Y-111413952D02*
X147158095Y-111413952D01*
X147196190Y-111433000D01*
X147215238Y-111452047D01*
X147234285Y-111490142D01*
X147253333Y-111566333D01*
X147253333Y-111661571D01*
X147234285Y-111737761D01*
X147215238Y-111775857D01*
X147196190Y-111794904D01*
X147158095Y-111813952D01*
X147120000Y-111813952D01*
X147081904Y-111794904D01*
X147062857Y-111775857D01*
X147043809Y-111737761D01*
X147024761Y-111661571D01*
X147024761Y-111566333D01*
X147043809Y-111490142D01*
X147062857Y-111452047D01*
X147081904Y-111433000D01*
X147120000Y-111413952D01*
X147481904Y-111585380D02*
X147443809Y-111566333D01*
X147424761Y-111547285D01*
X147405714Y-111509190D01*
X147405714Y-111490142D01*
X147424761Y-111452047D01*
X147443809Y-111433000D01*
X147481904Y-111413952D01*
X147558095Y-111413952D01*
X147596190Y-111433000D01*
X147615238Y-111452047D01*
X147634285Y-111490142D01*
X147634285Y-111509190D01*
X147615238Y-111547285D01*
X147596190Y-111566333D01*
X147558095Y-111585380D01*
X147481904Y-111585380D01*
X147443809Y-111604428D01*
X147424761Y-111623476D01*
X147405714Y-111661571D01*
X147405714Y-111737761D01*
X147424761Y-111775857D01*
X147443809Y-111794904D01*
X147481904Y-111813952D01*
X147558095Y-111813952D01*
X147596190Y-111794904D01*
X147615238Y-111775857D01*
X147634285Y-111737761D01*
X147634285Y-111661571D01*
X147615238Y-111623476D01*
X147596190Y-111604428D01*
X147558095Y-111585380D01*
X147881904Y-111413952D02*
X147920000Y-111413952D01*
X147958095Y-111433000D01*
X147977142Y-111452047D01*
X147996190Y-111490142D01*
X148015238Y-111566333D01*
X148015238Y-111661571D01*
X147996190Y-111737761D01*
X147977142Y-111775857D01*
X147958095Y-111794904D01*
X147920000Y-111813952D01*
X147881904Y-111813952D01*
X147843809Y-111794904D01*
X147824761Y-111775857D01*
X147805714Y-111737761D01*
X147786666Y-111661571D01*
X147786666Y-111566333D01*
X147805714Y-111490142D01*
X147824761Y-111452047D01*
X147843809Y-111433000D01*
X147881904Y-111413952D01*
X148377142Y-111413952D02*
X148186666Y-111413952D01*
X148167619Y-111604428D01*
X148186666Y-111585380D01*
X148224761Y-111566333D01*
X148320000Y-111566333D01*
X148358095Y-111585380D01*
X148377142Y-111604428D01*
X148396190Y-111642523D01*
X148396190Y-111737761D01*
X148377142Y-111775857D01*
X148358095Y-111794904D01*
X148320000Y-111813952D01*
X148224761Y-111813952D01*
X148186666Y-111794904D01*
X148167619Y-111775857D01*
X146262761Y-113591952D02*
X146262761Y-113191952D01*
X146358000Y-113191952D01*
X146415142Y-113211000D01*
X146453238Y-113249095D01*
X146472285Y-113287190D01*
X146491333Y-113363380D01*
X146491333Y-113420523D01*
X146472285Y-113496714D01*
X146453238Y-113534809D01*
X146415142Y-113572904D01*
X146358000Y-113591952D01*
X146262761Y-113591952D01*
X146624666Y-113191952D02*
X146872285Y-113191952D01*
X146738952Y-113344333D01*
X146796095Y-113344333D01*
X146834190Y-113363380D01*
X146853238Y-113382428D01*
X146872285Y-113420523D01*
X146872285Y-113515761D01*
X146853238Y-113553857D01*
X146834190Y-113572904D01*
X146796095Y-113591952D01*
X146681809Y-113591952D01*
X146643714Y-113572904D01*
X146624666Y-113553857D01*
X155787761Y-113591952D02*
X155787761Y-113191952D01*
X155883000Y-113191952D01*
X155940142Y-113211000D01*
X155978238Y-113249095D01*
X155997285Y-113287190D01*
X156016333Y-113363380D01*
X156016333Y-113420523D01*
X155997285Y-113496714D01*
X155978238Y-113534809D01*
X155940142Y-113572904D01*
X155883000Y-113591952D01*
X155787761Y-113591952D01*
X156168714Y-113230047D02*
X156187761Y-113211000D01*
X156225857Y-113191952D01*
X156321095Y-113191952D01*
X156359190Y-113211000D01*
X156378238Y-113230047D01*
X156397285Y-113268142D01*
X156397285Y-113306238D01*
X156378238Y-113363380D01*
X156149666Y-113591952D01*
X156397285Y-113591952D01*
X145983333Y-98567857D02*
X145964285Y-98586904D01*
X145907142Y-98605952D01*
X145869047Y-98605952D01*
X145811904Y-98586904D01*
X145773809Y-98548809D01*
X145754761Y-98510714D01*
X145735714Y-98434523D01*
X145735714Y-98377380D01*
X145754761Y-98301190D01*
X145773809Y-98263095D01*
X145811904Y-98225000D01*
X145869047Y-98205952D01*
X145907142Y-98205952D01*
X145964285Y-98225000D01*
X145983333Y-98244047D01*
X146364285Y-98605952D02*
X146135714Y-98605952D01*
X146250000Y-98605952D02*
X146250000Y-98205952D01*
X146211904Y-98263095D01*
X146173809Y-98301190D01*
X146135714Y-98320238D01*
X144884857Y-98713952D02*
X144922952Y-98713952D01*
X144961047Y-98733000D01*
X144980095Y-98752047D01*
X144999142Y-98790142D01*
X145018190Y-98866333D01*
X145018190Y-98961571D01*
X144999142Y-99037761D01*
X144980095Y-99075857D01*
X144961047Y-99094904D01*
X144922952Y-99113952D01*
X144884857Y-99113952D01*
X144846761Y-99094904D01*
X144827714Y-99075857D01*
X144808666Y-99037761D01*
X144789619Y-98961571D01*
X144789619Y-98866333D01*
X144808666Y-98790142D01*
X144827714Y-98752047D01*
X144846761Y-98733000D01*
X144884857Y-98713952D01*
X145189619Y-99075857D02*
X145208666Y-99094904D01*
X145189619Y-99113952D01*
X145170571Y-99094904D01*
X145189619Y-99075857D01*
X145189619Y-99113952D01*
X145589619Y-99113952D02*
X145361047Y-99113952D01*
X145475333Y-99113952D02*
X145475333Y-98713952D01*
X145437238Y-98771095D01*
X145399142Y-98809190D01*
X145361047Y-98828238D01*
X145932476Y-98847285D02*
X145932476Y-99113952D01*
X145761047Y-98847285D02*
X145761047Y-99056809D01*
X145780095Y-99094904D01*
X145818190Y-99113952D01*
X145875333Y-99113952D01*
X145913428Y-99094904D01*
X145932476Y-99075857D01*
X146256285Y-98904428D02*
X146122952Y-98904428D01*
X146122952Y-99113952D02*
X146122952Y-98713952D01*
X146313428Y-98713952D01*
X143697333Y-98567857D02*
X143678285Y-98586904D01*
X143621142Y-98605952D01*
X143583047Y-98605952D01*
X143525904Y-98586904D01*
X143487809Y-98548809D01*
X143468761Y-98510714D01*
X143449714Y-98434523D01*
X143449714Y-98377380D01*
X143468761Y-98301190D01*
X143487809Y-98263095D01*
X143525904Y-98225000D01*
X143583047Y-98205952D01*
X143621142Y-98205952D01*
X143678285Y-98225000D01*
X143697333Y-98244047D01*
X143849714Y-98244047D02*
X143868761Y-98225000D01*
X143906857Y-98205952D01*
X144002095Y-98205952D01*
X144040190Y-98225000D01*
X144059238Y-98244047D01*
X144078285Y-98282142D01*
X144078285Y-98320238D01*
X144059238Y-98377380D01*
X143830666Y-98605952D01*
X144078285Y-98605952D01*
X142954428Y-99113952D02*
X142725857Y-99113952D01*
X142840142Y-99113952D02*
X142840142Y-98713952D01*
X142802047Y-98771095D01*
X142763952Y-98809190D01*
X142725857Y-98828238D01*
X143202047Y-98713952D02*
X143240142Y-98713952D01*
X143278238Y-98733000D01*
X143297285Y-98752047D01*
X143316333Y-98790142D01*
X143335380Y-98866333D01*
X143335380Y-98961571D01*
X143316333Y-99037761D01*
X143297285Y-99075857D01*
X143278238Y-99094904D01*
X143240142Y-99113952D01*
X143202047Y-99113952D01*
X143163952Y-99094904D01*
X143144904Y-99075857D01*
X143125857Y-99037761D01*
X143106809Y-98961571D01*
X143106809Y-98866333D01*
X143125857Y-98790142D01*
X143144904Y-98752047D01*
X143163952Y-98733000D01*
X143202047Y-98713952D01*
X143678238Y-98847285D02*
X143678238Y-99113952D01*
X143506809Y-98847285D02*
X143506809Y-99056809D01*
X143525857Y-99094904D01*
X143563952Y-99113952D01*
X143621095Y-99113952D01*
X143659190Y-99094904D01*
X143678238Y-99075857D01*
X144002047Y-98904428D02*
X143868714Y-98904428D01*
X143868714Y-99113952D02*
X143868714Y-98713952D01*
X144059190Y-98713952D01*
X146110333Y-103431952D02*
X145977000Y-103241476D01*
X145881761Y-103431952D02*
X145881761Y-103031952D01*
X146034142Y-103031952D01*
X146072238Y-103051000D01*
X146091285Y-103070047D01*
X146110333Y-103108142D01*
X146110333Y-103165285D01*
X146091285Y-103203380D01*
X146072238Y-103222428D01*
X146034142Y-103241476D01*
X145881761Y-103241476D01*
X146491285Y-103431952D02*
X146262714Y-103431952D01*
X146377000Y-103431952D02*
X146377000Y-103031952D01*
X146338904Y-103089095D01*
X146300809Y-103127190D01*
X146262714Y-103146238D01*
X145808761Y-104340047D02*
X145827809Y-104321000D01*
X145865904Y-104301952D01*
X145961142Y-104301952D01*
X145999238Y-104321000D01*
X146018285Y-104340047D01*
X146037333Y-104378142D01*
X146037333Y-104416238D01*
X146018285Y-104473380D01*
X145789714Y-104701952D01*
X146037333Y-104701952D01*
X146189714Y-104340047D02*
X146208761Y-104321000D01*
X146246857Y-104301952D01*
X146342095Y-104301952D01*
X146380190Y-104321000D01*
X146399238Y-104340047D01*
X146418285Y-104378142D01*
X146418285Y-104416238D01*
X146399238Y-104473380D01*
X146170666Y-104701952D01*
X146418285Y-104701952D01*
X146665904Y-104301952D02*
X146704000Y-104301952D01*
X146742095Y-104321000D01*
X146761142Y-104340047D01*
X146780190Y-104378142D01*
X146799238Y-104454333D01*
X146799238Y-104549571D01*
X146780190Y-104625761D01*
X146761142Y-104663857D01*
X146742095Y-104682904D01*
X146704000Y-104701952D01*
X146665904Y-104701952D01*
X146627809Y-104682904D01*
X146608761Y-104663857D01*
X146589714Y-104625761D01*
X146570666Y-104549571D01*
X146570666Y-104454333D01*
X146589714Y-104378142D01*
X146608761Y-104340047D01*
X146627809Y-104321000D01*
X146665904Y-104301952D01*
X150555333Y-103558952D02*
X150422000Y-103368476D01*
X150326761Y-103558952D02*
X150326761Y-103158952D01*
X150479142Y-103158952D01*
X150517238Y-103178000D01*
X150536285Y-103197047D01*
X150555333Y-103235142D01*
X150555333Y-103292285D01*
X150536285Y-103330380D01*
X150517238Y-103349428D01*
X150479142Y-103368476D01*
X150326761Y-103368476D01*
X150707714Y-103197047D02*
X150726761Y-103178000D01*
X150764857Y-103158952D01*
X150860095Y-103158952D01*
X150898190Y-103178000D01*
X150917238Y-103197047D01*
X150936285Y-103235142D01*
X150936285Y-103273238D01*
X150917238Y-103330380D01*
X150688666Y-103558952D01*
X150936285Y-103558952D01*
X150472809Y-104193952D02*
X150244238Y-104193952D01*
X150358523Y-104193952D02*
X150358523Y-103793952D01*
X150320428Y-103851095D01*
X150282333Y-103889190D01*
X150244238Y-103908238D01*
X150720428Y-103793952D02*
X150758523Y-103793952D01*
X150796619Y-103813000D01*
X150815666Y-103832047D01*
X150834714Y-103870142D01*
X150853761Y-103946333D01*
X150853761Y-104041571D01*
X150834714Y-104117761D01*
X150815666Y-104155857D01*
X150796619Y-104174904D01*
X150758523Y-104193952D01*
X150720428Y-104193952D01*
X150682333Y-104174904D01*
X150663285Y-104155857D01*
X150644238Y-104117761D01*
X150625190Y-104041571D01*
X150625190Y-103946333D01*
X150644238Y-103870142D01*
X150663285Y-103832047D01*
X150682333Y-103813000D01*
X150720428Y-103793952D01*
X151025190Y-104193952D02*
X151025190Y-103793952D01*
X151253761Y-104193952D02*
X151082333Y-103965380D01*
X151253761Y-103793952D02*
X151025190Y-104022523D01*
X158175333Y-110543952D02*
X158042000Y-110353476D01*
X157946761Y-110543952D02*
X157946761Y-110143952D01*
X158099142Y-110143952D01*
X158137238Y-110163000D01*
X158156285Y-110182047D01*
X158175333Y-110220142D01*
X158175333Y-110277285D01*
X158156285Y-110315380D01*
X158137238Y-110334428D01*
X158099142Y-110353476D01*
X157946761Y-110353476D01*
X158308666Y-110143952D02*
X158556285Y-110143952D01*
X158422952Y-110296333D01*
X158480095Y-110296333D01*
X158518190Y-110315380D01*
X158537238Y-110334428D01*
X158556285Y-110372523D01*
X158556285Y-110467761D01*
X158537238Y-110505857D01*
X158518190Y-110524904D01*
X158480095Y-110543952D01*
X158365809Y-110543952D01*
X158327714Y-110524904D01*
X158308666Y-110505857D01*
X158127714Y-110912285D02*
X158127714Y-111178952D01*
X158032476Y-110759904D02*
X157937238Y-111045619D01*
X158184857Y-111045619D01*
X158299142Y-110778952D02*
X158565809Y-110778952D01*
X158394380Y-111178952D01*
D10*
X158285666Y-102334190D02*
X158119000Y-102096095D01*
X157999952Y-102334190D02*
X157999952Y-101834190D01*
X158190428Y-101834190D01*
X158238047Y-101858000D01*
X158261857Y-101881809D01*
X158285666Y-101929428D01*
X158285666Y-102000857D01*
X158261857Y-102048476D01*
X158238047Y-102072285D01*
X158190428Y-102096095D01*
X157999952Y-102096095D01*
X158714238Y-102000857D02*
X158714238Y-102334190D01*
X158595190Y-101810380D02*
X158476142Y-102167523D01*
X158785666Y-102167523D01*
X158099142Y-102762857D02*
X158099142Y-103096190D01*
X157980095Y-102572380D02*
X157861047Y-102929523D01*
X158170571Y-102929523D01*
X158313428Y-102596190D02*
X158646761Y-102596190D01*
X158432476Y-103096190D01*
D13*
X157794333Y-112702952D02*
X157661000Y-112512476D01*
X157565761Y-112702952D02*
X157565761Y-112302952D01*
X157718142Y-112302952D01*
X157756238Y-112322000D01*
X157775285Y-112341047D01*
X157794333Y-112379142D01*
X157794333Y-112436285D01*
X157775285Y-112474380D01*
X157756238Y-112493428D01*
X157718142Y-112512476D01*
X157565761Y-112512476D01*
X158156238Y-112302952D02*
X157965761Y-112302952D01*
X157946714Y-112493428D01*
X157965761Y-112474380D01*
X158003857Y-112455333D01*
X158099095Y-112455333D01*
X158137190Y-112474380D01*
X158156238Y-112493428D01*
X158175285Y-112531523D01*
X158175285Y-112626761D01*
X158156238Y-112664857D01*
X158137190Y-112683904D01*
X158099095Y-112702952D01*
X158003857Y-112702952D01*
X157965761Y-112683904D01*
X157946714Y-112664857D01*
X158635761Y-112341047D02*
X158654809Y-112322000D01*
X158692904Y-112302952D01*
X158788142Y-112302952D01*
X158826238Y-112322000D01*
X158845285Y-112341047D01*
X158864333Y-112379142D01*
X158864333Y-112417238D01*
X158845285Y-112474380D01*
X158616714Y-112702952D01*
X158864333Y-112702952D01*
X159016714Y-112341047D02*
X159035761Y-112322000D01*
X159073857Y-112302952D01*
X159169095Y-112302952D01*
X159207190Y-112322000D01*
X159226238Y-112341047D01*
X159245285Y-112379142D01*
X159245285Y-112417238D01*
X159226238Y-112474380D01*
X158997666Y-112702952D01*
X159245285Y-112702952D01*
X159492904Y-112302952D02*
X159531000Y-112302952D01*
X159569095Y-112322000D01*
X159588142Y-112341047D01*
X159607190Y-112379142D01*
X159626238Y-112455333D01*
X159626238Y-112550571D01*
X159607190Y-112626761D01*
X159588142Y-112664857D01*
X159569095Y-112683904D01*
X159531000Y-112702952D01*
X159492904Y-112702952D01*
X159454809Y-112683904D01*
X159435761Y-112664857D01*
X159416714Y-112626761D01*
X159397666Y-112550571D01*
X159397666Y-112455333D01*
X159416714Y-112379142D01*
X159435761Y-112341047D01*
X159454809Y-112322000D01*
X159492904Y-112302952D01*
X142427333Y-113464952D02*
X142294000Y-113274476D01*
X142198761Y-113464952D02*
X142198761Y-113064952D01*
X142351142Y-113064952D01*
X142389238Y-113084000D01*
X142408285Y-113103047D01*
X142427333Y-113141142D01*
X142427333Y-113198285D01*
X142408285Y-113236380D01*
X142389238Y-113255428D01*
X142351142Y-113274476D01*
X142198761Y-113274476D01*
X142770190Y-113064952D02*
X142694000Y-113064952D01*
X142655904Y-113084000D01*
X142636857Y-113103047D01*
X142598761Y-113160190D01*
X142579714Y-113236380D01*
X142579714Y-113388761D01*
X142598761Y-113426857D01*
X142617809Y-113445904D01*
X142655904Y-113464952D01*
X142732095Y-113464952D01*
X142770190Y-113445904D01*
X142789238Y-113426857D01*
X142808285Y-113388761D01*
X142808285Y-113293523D01*
X142789238Y-113255428D01*
X142770190Y-113236380D01*
X142732095Y-113217333D01*
X142655904Y-113217333D01*
X142617809Y-113236380D01*
X142598761Y-113255428D01*
X142579714Y-113293523D01*
X141998761Y-113738047D02*
X142017809Y-113719000D01*
X142055904Y-113699952D01*
X142151142Y-113699952D01*
X142189238Y-113719000D01*
X142208285Y-113738047D01*
X142227333Y-113776142D01*
X142227333Y-113814238D01*
X142208285Y-113871380D01*
X141979714Y-114099952D01*
X142227333Y-114099952D01*
X142379714Y-113738047D02*
X142398761Y-113719000D01*
X142436857Y-113699952D01*
X142532095Y-113699952D01*
X142570190Y-113719000D01*
X142589238Y-113738047D01*
X142608285Y-113776142D01*
X142608285Y-113814238D01*
X142589238Y-113871380D01*
X142360666Y-114099952D01*
X142608285Y-114099952D01*
X142855904Y-113699952D02*
X142894000Y-113699952D01*
X142932095Y-113719000D01*
X142951142Y-113738047D01*
X142970190Y-113776142D01*
X142989238Y-113852333D01*
X142989238Y-113947571D01*
X142970190Y-114023761D01*
X142951142Y-114061857D01*
X142932095Y-114080904D01*
X142894000Y-114099952D01*
X142855904Y-114099952D01*
X142817809Y-114080904D01*
X142798761Y-114061857D01*
X142779714Y-114023761D01*
X142760666Y-113947571D01*
X142760666Y-113852333D01*
X142779714Y-113776142D01*
X142798761Y-113738047D01*
X142817809Y-113719000D01*
X142855904Y-113699952D01*
D10*
X142147952Y-109143761D02*
X142471761Y-109143761D01*
X142509857Y-109124714D01*
X142528904Y-109105666D01*
X142547952Y-109067571D01*
X142547952Y-108991380D01*
X142528904Y-108953285D01*
X142509857Y-108934238D01*
X142471761Y-108915190D01*
X142147952Y-108915190D01*
X142547952Y-108515190D02*
X142547952Y-108743761D01*
X142547952Y-108629476D02*
X142147952Y-108629476D01*
X142205095Y-108667571D01*
X142243190Y-108705666D01*
X142262238Y-108743761D01*
D13*
X142547952Y-107876809D02*
X142147952Y-107876809D01*
X142509857Y-107457761D02*
X142528904Y-107476809D01*
X142547952Y-107533952D01*
X142547952Y-107572047D01*
X142528904Y-107629190D01*
X142490809Y-107667285D01*
X142452714Y-107686333D01*
X142376523Y-107705380D01*
X142319380Y-107705380D01*
X142243190Y-107686333D01*
X142205095Y-107667285D01*
X142167000Y-107629190D01*
X142147952Y-107572047D01*
X142147952Y-107533952D01*
X142167000Y-107476809D01*
X142186047Y-107457761D01*
X142547952Y-107286333D02*
X142147952Y-107286333D01*
X142147952Y-107133952D01*
X142167000Y-107095857D01*
X142186047Y-107076809D01*
X142224142Y-107057761D01*
X142281285Y-107057761D01*
X142319380Y-107076809D01*
X142338428Y-107095857D01*
X142357476Y-107133952D01*
X142357476Y-107286333D01*
X142547952Y-106695857D02*
X142547952Y-106886333D01*
X142147952Y-106886333D01*
X142147952Y-106486333D02*
X142147952Y-106448238D01*
X142167000Y-106410142D01*
X142186047Y-106391095D01*
X142224142Y-106372047D01*
X142300333Y-106353000D01*
X142395571Y-106353000D01*
X142471761Y-106372047D01*
X142509857Y-106391095D01*
X142528904Y-106410142D01*
X142547952Y-106448238D01*
X142547952Y-106486333D01*
X142528904Y-106524428D01*
X142509857Y-106543476D01*
X142471761Y-106562523D01*
X142395571Y-106581571D01*
X142300333Y-106581571D01*
X142224142Y-106562523D01*
X142186047Y-106543476D01*
X142167000Y-106524428D01*
X142147952Y-106486333D01*
X142147952Y-106010142D02*
X142147952Y-106086333D01*
X142167000Y-106124428D01*
X142186047Y-106143476D01*
X142243190Y-106181571D01*
X142319380Y-106200619D01*
X142471761Y-106200619D01*
X142509857Y-106181571D01*
X142528904Y-106162523D01*
X142547952Y-106124428D01*
X142547952Y-106048238D01*
X142528904Y-106010142D01*
X142509857Y-105991095D01*
X142471761Y-105972047D01*
X142376523Y-105972047D01*
X142338428Y-105991095D01*
X142319380Y-106010142D01*
X142300333Y-106048238D01*
X142300333Y-106124428D01*
X142319380Y-106162523D01*
X142338428Y-106181571D01*
X142376523Y-106200619D01*
X142147952Y-105724428D02*
X142147952Y-105686333D01*
X142167000Y-105648238D01*
X142186047Y-105629190D01*
X142224142Y-105610142D01*
X142300333Y-105591095D01*
X142395571Y-105591095D01*
X142471761Y-105610142D01*
X142509857Y-105629190D01*
X142528904Y-105648238D01*
X142547952Y-105686333D01*
X142547952Y-105724428D01*
X142528904Y-105762523D01*
X142509857Y-105781571D01*
X142471761Y-105800619D01*
X142395571Y-105819666D01*
X142300333Y-105819666D01*
X142224142Y-105800619D01*
X142186047Y-105781571D01*
X142167000Y-105762523D01*
X142147952Y-105724428D01*
X142547952Y-105210142D02*
X142547952Y-105438714D01*
X142547952Y-105324428D02*
X142147952Y-105324428D01*
X142205095Y-105362523D01*
X142243190Y-105400619D01*
X142262238Y-105438714D01*
X153238238Y-99221952D02*
X153238238Y-99545761D01*
X153257285Y-99583857D01*
X153276333Y-99602904D01*
X153314428Y-99621952D01*
X153390619Y-99621952D01*
X153428714Y-99602904D01*
X153447761Y-99583857D01*
X153466809Y-99545761D01*
X153466809Y-99221952D01*
X153638238Y-99260047D02*
X153657285Y-99241000D01*
X153695380Y-99221952D01*
X153790619Y-99221952D01*
X153828714Y-99241000D01*
X153847761Y-99260047D01*
X153866809Y-99298142D01*
X153866809Y-99336238D01*
X153847761Y-99393380D01*
X153619190Y-99621952D01*
X153866809Y-99621952D01*
X154108380Y-99221952D02*
X154375047Y-99221952D01*
X154203619Y-99621952D01*
X154698857Y-99355285D02*
X154698857Y-99621952D01*
X154603619Y-99202904D02*
X154508380Y-99488619D01*
X154756000Y-99488619D01*
X154908380Y-99621952D02*
X154908380Y-99221952D01*
X154908380Y-99412428D02*
X155136952Y-99412428D01*
X155136952Y-99621952D02*
X155136952Y-99221952D01*
X155556000Y-99583857D02*
X155536952Y-99602904D01*
X155479809Y-99621952D01*
X155441714Y-99621952D01*
X155384571Y-99602904D01*
X155346476Y-99564809D01*
X155327428Y-99526714D01*
X155308380Y-99450523D01*
X155308380Y-99393380D01*
X155327428Y-99317190D01*
X155346476Y-99279095D01*
X155384571Y-99241000D01*
X155441714Y-99221952D01*
X155479809Y-99221952D01*
X155536952Y-99241000D01*
X155556000Y-99260047D01*
X155670285Y-99221952D02*
X155898857Y-99221952D01*
X155784571Y-99621952D02*
X155784571Y-99221952D01*
X156241714Y-99621952D02*
X156013142Y-99621952D01*
X156127428Y-99621952D02*
X156127428Y-99221952D01*
X156089333Y-99279095D01*
X156051238Y-99317190D01*
X156013142Y-99336238D01*
X156622666Y-99241000D02*
X156584571Y-99221952D01*
X156527428Y-99221952D01*
X156470285Y-99241000D01*
X156432190Y-99279095D01*
X156413142Y-99317190D01*
X156394095Y-99393380D01*
X156394095Y-99450523D01*
X156413142Y-99526714D01*
X156432190Y-99564809D01*
X156470285Y-99602904D01*
X156527428Y-99621952D01*
X156565523Y-99621952D01*
X156622666Y-99602904D01*
X156641714Y-99583857D01*
X156641714Y-99450523D01*
X156565523Y-99450523D01*
X157022666Y-99621952D02*
X156794095Y-99621952D01*
X156908380Y-99621952D02*
X156908380Y-99221952D01*
X156870285Y-99279095D01*
X156832190Y-99317190D01*
X156794095Y-99336238D01*
X157175047Y-99260047D02*
X157194095Y-99241000D01*
X157232190Y-99221952D01*
X157327428Y-99221952D01*
X157365523Y-99241000D01*
X157384571Y-99260047D01*
X157403619Y-99298142D01*
X157403619Y-99336238D01*
X157384571Y-99393380D01*
X157156000Y-99621952D01*
X157403619Y-99621952D01*
X157765523Y-99221952D02*
X157575047Y-99221952D01*
X157556000Y-99412428D01*
X157575047Y-99393380D01*
X157613142Y-99374333D01*
X157708380Y-99374333D01*
X157746476Y-99393380D01*
X157765523Y-99412428D01*
X157784571Y-99450523D01*
X157784571Y-99545761D01*
X157765523Y-99583857D01*
X157746476Y-99602904D01*
X157708380Y-99621952D01*
X157613142Y-99621952D01*
X157575047Y-99602904D01*
X157556000Y-99583857D01*
X152984238Y-107857952D02*
X152984238Y-108181761D01*
X153003285Y-108219857D01*
X153022333Y-108238904D01*
X153060428Y-108257952D01*
X153136619Y-108257952D01*
X153174714Y-108238904D01*
X153193761Y-108219857D01*
X153212809Y-108181761D01*
X153212809Y-107857952D01*
X153365190Y-107857952D02*
X153612809Y-107857952D01*
X153479476Y-108010333D01*
X153536619Y-108010333D01*
X153574714Y-108029380D01*
X153593761Y-108048428D01*
X153612809Y-108086523D01*
X153612809Y-108181761D01*
X153593761Y-108219857D01*
X153574714Y-108238904D01*
X153536619Y-108257952D01*
X153422333Y-108257952D01*
X153384238Y-108238904D01*
X153365190Y-108219857D01*
X153981380Y-107857952D02*
X154248047Y-107857952D01*
X154076619Y-108257952D01*
X154571857Y-107991285D02*
X154571857Y-108257952D01*
X154476619Y-107838904D02*
X154381380Y-108124619D01*
X154629000Y-108124619D01*
X154781380Y-108257952D02*
X154781380Y-107857952D01*
X154781380Y-108048428D02*
X155009952Y-108048428D01*
X155009952Y-108257952D02*
X155009952Y-107857952D01*
X155429000Y-108219857D02*
X155409952Y-108238904D01*
X155352809Y-108257952D01*
X155314714Y-108257952D01*
X155257571Y-108238904D01*
X155219476Y-108200809D01*
X155200428Y-108162714D01*
X155181380Y-108086523D01*
X155181380Y-108029380D01*
X155200428Y-107953190D01*
X155219476Y-107915095D01*
X155257571Y-107877000D01*
X155314714Y-107857952D01*
X155352809Y-107857952D01*
X155409952Y-107877000D01*
X155429000Y-107896047D01*
X155543285Y-107857952D02*
X155771857Y-107857952D01*
X155657571Y-108257952D02*
X155657571Y-107857952D01*
X156114714Y-108257952D02*
X155886142Y-108257952D01*
X156000428Y-108257952D02*
X156000428Y-107857952D01*
X155962333Y-107915095D01*
X155924238Y-107953190D01*
X155886142Y-107972238D01*
X156495666Y-107877000D02*
X156457571Y-107857952D01*
X156400428Y-107857952D01*
X156343285Y-107877000D01*
X156305190Y-107915095D01*
X156286142Y-107953190D01*
X156267095Y-108029380D01*
X156267095Y-108086523D01*
X156286142Y-108162714D01*
X156305190Y-108200809D01*
X156343285Y-108238904D01*
X156400428Y-108257952D01*
X156438523Y-108257952D01*
X156495666Y-108238904D01*
X156514714Y-108219857D01*
X156514714Y-108086523D01*
X156438523Y-108086523D01*
X156895666Y-108257952D02*
X156667095Y-108257952D01*
X156781380Y-108257952D02*
X156781380Y-107857952D01*
X156743285Y-107915095D01*
X156705190Y-107953190D01*
X156667095Y-107972238D01*
X157048047Y-107896047D02*
X157067095Y-107877000D01*
X157105190Y-107857952D01*
X157200428Y-107857952D01*
X157238523Y-107877000D01*
X157257571Y-107896047D01*
X157276619Y-107934142D01*
X157276619Y-107972238D01*
X157257571Y-108029380D01*
X157029000Y-108257952D01*
X157276619Y-108257952D01*
X157638523Y-107857952D02*
X157448047Y-107857952D01*
X157429000Y-108048428D01*
X157448047Y-108029380D01*
X157486142Y-108010333D01*
X157581380Y-108010333D01*
X157619476Y-108029380D01*
X157638523Y-108048428D01*
X157657571Y-108086523D01*
X157657571Y-108181761D01*
X157638523Y-108219857D01*
X157619476Y-108238904D01*
X157581380Y-108257952D01*
X157486142Y-108257952D01*
X157448047Y-108238904D01*
X157429000Y-108219857D01*
X153111238Y-103539952D02*
X153111238Y-103863761D01*
X153130285Y-103901857D01*
X153149333Y-103920904D01*
X153187428Y-103939952D01*
X153263619Y-103939952D01*
X153301714Y-103920904D01*
X153320761Y-103901857D01*
X153339809Y-103863761D01*
X153339809Y-103539952D01*
X153720761Y-103539952D02*
X153530285Y-103539952D01*
X153511238Y-103730428D01*
X153530285Y-103711380D01*
X153568380Y-103692333D01*
X153663619Y-103692333D01*
X153701714Y-103711380D01*
X153720761Y-103730428D01*
X153739809Y-103768523D01*
X153739809Y-103863761D01*
X153720761Y-103901857D01*
X153701714Y-103920904D01*
X153663619Y-103939952D01*
X153568380Y-103939952D01*
X153530285Y-103920904D01*
X153511238Y-103901857D01*
X153981380Y-103539952D02*
X154248047Y-103539952D01*
X154076619Y-103939952D01*
X154571857Y-103673285D02*
X154571857Y-103939952D01*
X154476619Y-103520904D02*
X154381380Y-103806619D01*
X154629000Y-103806619D01*
X154781380Y-103939952D02*
X154781380Y-103539952D01*
X154781380Y-103730428D02*
X155009952Y-103730428D01*
X155009952Y-103939952D02*
X155009952Y-103539952D01*
X155429000Y-103901857D02*
X155409952Y-103920904D01*
X155352809Y-103939952D01*
X155314714Y-103939952D01*
X155257571Y-103920904D01*
X155219476Y-103882809D01*
X155200428Y-103844714D01*
X155181380Y-103768523D01*
X155181380Y-103711380D01*
X155200428Y-103635190D01*
X155219476Y-103597095D01*
X155257571Y-103559000D01*
X155314714Y-103539952D01*
X155352809Y-103539952D01*
X155409952Y-103559000D01*
X155429000Y-103578047D01*
X155543285Y-103539952D02*
X155771857Y-103539952D01*
X155657571Y-103939952D02*
X155657571Y-103539952D01*
X156114714Y-103939952D02*
X155886142Y-103939952D01*
X156000428Y-103939952D02*
X156000428Y-103539952D01*
X155962333Y-103597095D01*
X155924238Y-103635190D01*
X155886142Y-103654238D01*
X156495666Y-103559000D02*
X156457571Y-103539952D01*
X156400428Y-103539952D01*
X156343285Y-103559000D01*
X156305190Y-103597095D01*
X156286142Y-103635190D01*
X156267095Y-103711380D01*
X156267095Y-103768523D01*
X156286142Y-103844714D01*
X156305190Y-103882809D01*
X156343285Y-103920904D01*
X156400428Y-103939952D01*
X156438523Y-103939952D01*
X156495666Y-103920904D01*
X156514714Y-103901857D01*
X156514714Y-103768523D01*
X156438523Y-103768523D01*
X156895666Y-103939952D02*
X156667095Y-103939952D01*
X156781380Y-103939952D02*
X156781380Y-103539952D01*
X156743285Y-103597095D01*
X156705190Y-103635190D01*
X156667095Y-103654238D01*
X157048047Y-103578047D02*
X157067095Y-103559000D01*
X157105190Y-103539952D01*
X157200428Y-103539952D01*
X157238523Y-103559000D01*
X157257571Y-103578047D01*
X157276619Y-103616142D01*
X157276619Y-103654238D01*
X157257571Y-103711380D01*
X157029000Y-103939952D01*
X157276619Y-103939952D01*
X157638523Y-103539952D02*
X157448047Y-103539952D01*
X157429000Y-103730428D01*
X157448047Y-103711380D01*
X157486142Y-103692333D01*
X157581380Y-103692333D01*
X157619476Y-103711380D01*
X157638523Y-103730428D01*
X157657571Y-103768523D01*
X157657571Y-103863761D01*
X157638523Y-103901857D01*
X157619476Y-103920904D01*
X157581380Y-103939952D01*
X157486142Y-103939952D01*
X157448047Y-103920904D01*
X157429000Y-103901857D01*
D10*
X167297205Y-114917832D02*
X167297205Y-114417832D01*
X167416253Y-114417832D01*
X167487681Y-114441642D01*
X167535300Y-114489261D01*
X167559110Y-114536880D01*
X167582919Y-114632118D01*
X167582919Y-114703546D01*
X167559110Y-114798784D01*
X167535300Y-114846403D01*
X167487681Y-114894022D01*
X167416253Y-114917832D01*
X167297205Y-114917832D01*
X168059110Y-114917832D02*
X167773395Y-114917832D01*
X167916253Y-114917832D02*
X167916253Y-114417832D01*
X167868633Y-114489261D01*
X167821014Y-114536880D01*
X167773395Y-114560689D01*
X164757205Y-114917832D02*
X164757205Y-114417832D01*
X164876253Y-114417832D01*
X164947681Y-114441642D01*
X164995300Y-114489261D01*
X165019110Y-114536880D01*
X165042919Y-114632118D01*
X165042919Y-114703546D01*
X165019110Y-114798784D01*
X164995300Y-114846403D01*
X164947681Y-114894022D01*
X164876253Y-114917832D01*
X164757205Y-114917832D01*
X165352443Y-114417832D02*
X165400062Y-114417832D01*
X165447681Y-114441642D01*
X165471491Y-114465451D01*
X165495300Y-114513070D01*
X165519110Y-114608308D01*
X165519110Y-114727356D01*
X165495300Y-114822594D01*
X165471491Y-114870213D01*
X165447681Y-114894022D01*
X165400062Y-114917832D01*
X165352443Y-114917832D01*
X165304824Y-114894022D01*
X165281014Y-114870213D01*
X165257205Y-114822594D01*
X165233395Y-114727356D01*
X165233395Y-114608308D01*
X165257205Y-114513070D01*
X165281014Y-114465451D01*
X165304824Y-114441642D01*
X165352443Y-114417832D01*
X131832443Y-115552832D02*
X131665776Y-115314737D01*
X131546729Y-115552832D02*
X131546729Y-115052832D01*
X131737205Y-115052832D01*
X131784824Y-115076642D01*
X131808633Y-115100451D01*
X131832443Y-115148070D01*
X131832443Y-115219499D01*
X131808633Y-115267118D01*
X131784824Y-115290927D01*
X131737205Y-115314737D01*
X131546729Y-115314737D01*
X132022919Y-115529022D02*
X132094348Y-115552832D01*
X132213395Y-115552832D01*
X132261014Y-115529022D01*
X132284824Y-115505213D01*
X132308633Y-115457594D01*
X132308633Y-115409975D01*
X132284824Y-115362356D01*
X132261014Y-115338546D01*
X132213395Y-115314737D01*
X132118157Y-115290927D01*
X132070538Y-115267118D01*
X132046729Y-115243308D01*
X132022919Y-115195689D01*
X132022919Y-115148070D01*
X132046729Y-115100451D01*
X132070538Y-115076642D01*
X132118157Y-115052832D01*
X132237205Y-115052832D01*
X132308633Y-115076642D01*
X132451491Y-115052832D02*
X132737205Y-115052832D01*
X132594348Y-115552832D02*
X132594348Y-115052832D01*
X134265300Y-115052832D02*
X134574824Y-115052832D01*
X134408157Y-115243308D01*
X134479586Y-115243308D01*
X134527205Y-115267118D01*
X134551014Y-115290927D01*
X134574824Y-115338546D01*
X134574824Y-115457594D01*
X134551014Y-115505213D01*
X134527205Y-115529022D01*
X134479586Y-115552832D01*
X134336729Y-115552832D01*
X134289110Y-115529022D01*
X134265300Y-115505213D01*
X134717681Y-115052832D02*
X134884348Y-115552832D01*
X135051014Y-115052832D01*
X136376729Y-115409975D02*
X136614824Y-115409975D01*
X136329110Y-115552832D02*
X136495776Y-115052832D01*
X136662443Y-115552832D01*
X137114824Y-115552832D02*
X136948157Y-115314737D01*
X136829110Y-115552832D02*
X136829110Y-115052832D01*
X137019586Y-115052832D01*
X137067205Y-115076642D01*
X137091014Y-115100451D01*
X137114824Y-115148070D01*
X137114824Y-115219499D01*
X137091014Y-115267118D01*
X137067205Y-115290927D01*
X137019586Y-115314737D01*
X136829110Y-115314737D01*
X137329110Y-115290927D02*
X137495776Y-115290927D01*
X137567205Y-115552832D02*
X137329110Y-115552832D01*
X137329110Y-115052832D01*
X137567205Y-115052832D01*
X137948157Y-115290927D02*
X137781491Y-115290927D01*
X137781491Y-115552832D02*
X137781491Y-115052832D01*
X138019586Y-115052832D01*
X139345300Y-115076642D02*
X139297681Y-115052832D01*
X139226253Y-115052832D01*
X139154824Y-115076642D01*
X139107205Y-115124261D01*
X139083395Y-115171880D01*
X139059586Y-115267118D01*
X139059586Y-115338546D01*
X139083395Y-115433784D01*
X139107205Y-115481403D01*
X139154824Y-115529022D01*
X139226253Y-115552832D01*
X139273872Y-115552832D01*
X139345300Y-115529022D01*
X139369110Y-115505213D01*
X139369110Y-115338546D01*
X139273872Y-115338546D01*
X139583395Y-115552832D02*
X139583395Y-115052832D01*
X139869110Y-115552832D01*
X139869110Y-115052832D01*
X140107205Y-115552832D02*
X140107205Y-115052832D01*
X140226253Y-115052832D01*
X140297681Y-115076642D01*
X140345300Y-115124261D01*
X140369110Y-115171880D01*
X140392919Y-115267118D01*
X140392919Y-115338546D01*
X140369110Y-115433784D01*
X140345300Y-115481403D01*
X140297681Y-115529022D01*
X140226253Y-115552832D01*
X140107205Y-115552832D01*
X141682919Y-115362356D02*
X141706729Y-115338546D01*
X141754348Y-115314737D01*
X141849586Y-115362356D01*
X141897205Y-115338546D01*
X141921014Y-115314737D01*
X142087681Y-115409975D02*
X142325776Y-115409975D01*
X142040062Y-115552832D02*
X142206729Y-115052832D01*
X142373395Y-115552832D01*
X142635300Y-115052832D02*
X142682919Y-115052832D01*
X142730538Y-115076642D01*
X142754348Y-115100451D01*
X142778157Y-115148070D01*
X142801967Y-115243308D01*
X142801967Y-115362356D01*
X142778157Y-115457594D01*
X142754348Y-115505213D01*
X142730538Y-115529022D01*
X142682919Y-115552832D01*
X142635300Y-115552832D01*
X142587681Y-115529022D01*
X142563872Y-115505213D01*
X142540062Y-115457594D01*
X142516253Y-115362356D01*
X142516253Y-115243308D01*
X142540062Y-115148070D01*
X142563872Y-115100451D01*
X142587681Y-115076642D01*
X142635300Y-115052832D01*
X144222919Y-115362356D02*
X144246729Y-115338546D01*
X144294348Y-115314737D01*
X144389586Y-115362356D01*
X144437205Y-115338546D01*
X144461014Y-115314737D01*
X144627681Y-115409975D02*
X144865776Y-115409975D01*
X144580062Y-115552832D02*
X144746729Y-115052832D01*
X144913395Y-115552832D01*
X145341967Y-115552832D02*
X145056253Y-115552832D01*
X145199110Y-115552832D02*
X145199110Y-115052832D01*
X145151491Y-115124261D01*
X145103872Y-115171880D01*
X145056253Y-115195689D01*
X146989110Y-115409975D02*
X147227205Y-115409975D01*
X146941491Y-115552832D02*
X147108157Y-115052832D01*
X147274824Y-115552832D01*
X147417681Y-115100451D02*
X147441491Y-115076642D01*
X147489110Y-115052832D01*
X147608157Y-115052832D01*
X147655776Y-115076642D01*
X147679586Y-115100451D01*
X147703395Y-115148070D01*
X147703395Y-115195689D01*
X147679586Y-115267118D01*
X147393872Y-115552832D01*
X147703395Y-115552832D01*
X152069110Y-115409975D02*
X152307205Y-115409975D01*
X152021491Y-115552832D02*
X152188157Y-115052832D01*
X152354824Y-115552832D01*
X152735776Y-115219499D02*
X152735776Y-115552832D01*
X152616729Y-115029022D02*
X152497681Y-115386165D01*
X152807205Y-115386165D01*
X154609110Y-115409975D02*
X154847205Y-115409975D01*
X154561491Y-115552832D02*
X154728157Y-115052832D01*
X154894824Y-115552832D01*
X155299586Y-115052832D02*
X155061491Y-115052832D01*
X155037681Y-115290927D01*
X155061491Y-115267118D01*
X155109110Y-115243308D01*
X155228157Y-115243308D01*
X155275776Y-115267118D01*
X155299586Y-115290927D01*
X155323395Y-115338546D01*
X155323395Y-115457594D01*
X155299586Y-115505213D01*
X155275776Y-115529022D01*
X155228157Y-115552832D01*
X155109110Y-115552832D01*
X155061491Y-115529022D01*
X155037681Y-115505213D01*
X149529110Y-115409975D02*
X149767205Y-115409975D01*
X149481491Y-115552832D02*
X149648157Y-115052832D01*
X149814824Y-115552832D01*
X149933872Y-115052832D02*
X150243395Y-115052832D01*
X150076729Y-115243308D01*
X150148157Y-115243308D01*
X150195776Y-115267118D01*
X150219586Y-115290927D01*
X150243395Y-115338546D01*
X150243395Y-115457594D01*
X150219586Y-115505213D01*
X150195776Y-115529022D01*
X150148157Y-115552832D01*
X150005300Y-115552832D01*
X149957681Y-115529022D01*
X149933872Y-115505213D01*
X156863395Y-115529022D02*
X156934824Y-115552832D01*
X157053872Y-115552832D01*
X157101491Y-115529022D01*
X157125300Y-115505213D01*
X157149110Y-115457594D01*
X157149110Y-115409975D01*
X157125300Y-115362356D01*
X157101491Y-115338546D01*
X157053872Y-115314737D01*
X156958633Y-115290927D01*
X156911014Y-115267118D01*
X156887205Y-115243308D01*
X156863395Y-115195689D01*
X156863395Y-115148070D01*
X156887205Y-115100451D01*
X156911014Y-115076642D01*
X156958633Y-115052832D01*
X157077681Y-115052832D01*
X157149110Y-115076642D01*
X157649110Y-115505213D02*
X157625300Y-115529022D01*
X157553872Y-115552832D01*
X157506253Y-115552832D01*
X157434824Y-115529022D01*
X157387205Y-115481403D01*
X157363395Y-115433784D01*
X157339586Y-115338546D01*
X157339586Y-115267118D01*
X157363395Y-115171880D01*
X157387205Y-115124261D01*
X157434824Y-115076642D01*
X157506253Y-115052832D01*
X157553872Y-115052832D01*
X157625300Y-115076642D01*
X157649110Y-115100451D01*
X157863395Y-115552832D02*
X157863395Y-115052832D01*
X158149110Y-115552832D02*
X157934824Y-115267118D01*
X158149110Y-115052832D02*
X157863395Y-115338546D01*
X162300538Y-115552832D02*
X162300538Y-115052832D01*
X162467205Y-115409975D01*
X162633872Y-115052832D01*
X162633872Y-115552832D01*
X162871967Y-115552832D02*
X162871967Y-115052832D01*
X159617681Y-115552832D02*
X159617681Y-115052832D01*
X159784348Y-115409975D01*
X159951014Y-115052832D01*
X159951014Y-115552832D01*
X160284348Y-115052832D02*
X160379586Y-115052832D01*
X160427205Y-115076642D01*
X160474824Y-115124261D01*
X160498633Y-115219499D01*
X160498633Y-115386165D01*
X160474824Y-115481403D01*
X160427205Y-115529022D01*
X160379586Y-115552832D01*
X160284348Y-115552832D01*
X160236729Y-115529022D01*
X160189110Y-115481403D01*
X160165300Y-115386165D01*
X160165300Y-115219499D01*
X160189110Y-115124261D01*
X160236729Y-115076642D01*
X160284348Y-115052832D01*
X165042919Y-115552832D02*
X164876253Y-115314737D01*
X164757205Y-115552832D02*
X164757205Y-115052832D01*
X164947681Y-115052832D01*
X164995300Y-115076642D01*
X165019110Y-115100451D01*
X165042919Y-115148070D01*
X165042919Y-115219499D01*
X165019110Y-115267118D01*
X164995300Y-115290927D01*
X164947681Y-115314737D01*
X164757205Y-115314737D01*
X165209586Y-115052832D02*
X165542919Y-115552832D01*
X165542919Y-115052832D02*
X165209586Y-115552832D01*
X149279110Y-98280832D02*
X149279110Y-97780832D01*
X149398157Y-97780832D01*
X149469586Y-97804642D01*
X149517205Y-97852261D01*
X149541014Y-97899880D01*
X149564824Y-97995118D01*
X149564824Y-98066546D01*
X149541014Y-98161784D01*
X149517205Y-98209403D01*
X149469586Y-98257022D01*
X149398157Y-98280832D01*
X149279110Y-98280832D01*
X150041014Y-98280832D02*
X149755300Y-98280832D01*
X149898157Y-98280832D02*
X149898157Y-97780832D01*
X149850538Y-97852261D01*
X149802919Y-97899880D01*
X149755300Y-97923689D01*
X150207681Y-97780832D02*
X150517205Y-97780832D01*
X150350538Y-97971308D01*
X150421967Y-97971308D01*
X150469586Y-97995118D01*
X150493395Y-98018927D01*
X150517205Y-98066546D01*
X150517205Y-98185594D01*
X150493395Y-98233213D01*
X150469586Y-98257022D01*
X150421967Y-98280832D01*
X150279110Y-98280832D01*
X150231491Y-98257022D01*
X150207681Y-98233213D01*
X154359110Y-98280832D02*
X154359110Y-97780832D01*
X154478157Y-97780832D01*
X154549586Y-97804642D01*
X154597205Y-97852261D01*
X154621014Y-97899880D01*
X154644824Y-97995118D01*
X154644824Y-98066546D01*
X154621014Y-98161784D01*
X154597205Y-98209403D01*
X154549586Y-98257022D01*
X154478157Y-98280832D01*
X154359110Y-98280832D01*
X155121014Y-98280832D02*
X154835300Y-98280832D01*
X154978157Y-98280832D02*
X154978157Y-97780832D01*
X154930538Y-97852261D01*
X154882919Y-97899880D01*
X154835300Y-97923689D01*
X155597205Y-98280832D02*
X155311491Y-98280832D01*
X155454348Y-98280832D02*
X155454348Y-97780832D01*
X155406729Y-97852261D01*
X155359110Y-97899880D01*
X155311491Y-97923689D01*
X156899110Y-98280832D02*
X156899110Y-97780832D01*
X157018157Y-97780832D01*
X157089586Y-97804642D01*
X157137205Y-97852261D01*
X157161014Y-97899880D01*
X157184824Y-97995118D01*
X157184824Y-98066546D01*
X157161014Y-98161784D01*
X157137205Y-98209403D01*
X157089586Y-98257022D01*
X157018157Y-98280832D01*
X156899110Y-98280832D01*
X157661014Y-98280832D02*
X157375300Y-98280832D01*
X157518157Y-98280832D02*
X157518157Y-97780832D01*
X157470538Y-97852261D01*
X157422919Y-97899880D01*
X157375300Y-97923689D01*
X157970538Y-97780832D02*
X158018157Y-97780832D01*
X158065776Y-97804642D01*
X158089586Y-97828451D01*
X158113395Y-97876070D01*
X158137205Y-97971308D01*
X158137205Y-98090356D01*
X158113395Y-98185594D01*
X158089586Y-98233213D01*
X158065776Y-98257022D01*
X158018157Y-98280832D01*
X157970538Y-98280832D01*
X157922919Y-98257022D01*
X157899110Y-98233213D01*
X157875300Y-98185594D01*
X157851491Y-98090356D01*
X157851491Y-97971308D01*
X157875300Y-97876070D01*
X157899110Y-97828451D01*
X157922919Y-97804642D01*
X157970538Y-97780832D01*
X144437205Y-98018927D02*
X144603872Y-98018927D01*
X144675300Y-98280832D02*
X144437205Y-98280832D01*
X144437205Y-97780832D01*
X144675300Y-97780832D01*
X144889586Y-98280832D02*
X144889586Y-97780832D01*
X145175300Y-98280832D01*
X145175300Y-97780832D01*
X146715300Y-97780832D02*
X146715300Y-98185594D01*
X146739110Y-98233213D01*
X146762919Y-98257022D01*
X146810538Y-98280832D01*
X146905776Y-98280832D01*
X146953395Y-98257022D01*
X146977205Y-98233213D01*
X147001014Y-98185594D01*
X147001014Y-97780832D01*
X147215300Y-98257022D02*
X147286729Y-98280832D01*
X147405776Y-98280832D01*
X147453395Y-98257022D01*
X147477205Y-98233213D01*
X147501014Y-98185594D01*
X147501014Y-98137975D01*
X147477205Y-98090356D01*
X147453395Y-98066546D01*
X147405776Y-98042737D01*
X147310538Y-98018927D01*
X147262919Y-97995118D01*
X147239110Y-97971308D01*
X147215300Y-97923689D01*
X147215300Y-97876070D01*
X147239110Y-97828451D01*
X147262919Y-97804642D01*
X147310538Y-97780832D01*
X147429586Y-97780832D01*
X147501014Y-97804642D01*
X147881967Y-98018927D02*
X147953395Y-98042737D01*
X147977205Y-98066546D01*
X148001014Y-98114165D01*
X148001014Y-98185594D01*
X147977205Y-98233213D01*
X147953395Y-98257022D01*
X147905776Y-98280832D01*
X147715300Y-98280832D01*
X147715300Y-97780832D01*
X147881967Y-97780832D01*
X147929586Y-97804642D01*
X147953395Y-97828451D01*
X147977205Y-97876070D01*
X147977205Y-97923689D01*
X147953395Y-97971308D01*
X147929586Y-97995118D01*
X147881967Y-98018927D01*
X147715300Y-98018927D01*
X151819110Y-98280832D02*
X151819110Y-97780832D01*
X151938157Y-97780832D01*
X152009586Y-97804642D01*
X152057205Y-97852261D01*
X152081014Y-97899880D01*
X152104824Y-97995118D01*
X152104824Y-98066546D01*
X152081014Y-98161784D01*
X152057205Y-98209403D01*
X152009586Y-98257022D01*
X151938157Y-98280832D01*
X151819110Y-98280832D01*
X152581014Y-98280832D02*
X152295300Y-98280832D01*
X152438157Y-98280832D02*
X152438157Y-97780832D01*
X152390538Y-97852261D01*
X152342919Y-97899880D01*
X152295300Y-97923689D01*
X152771491Y-97828451D02*
X152795300Y-97804642D01*
X152842919Y-97780832D01*
X152961967Y-97780832D01*
X153009586Y-97804642D01*
X153033395Y-97828451D01*
X153057205Y-97876070D01*
X153057205Y-97923689D01*
X153033395Y-97995118D01*
X152747681Y-98280832D01*
X153057205Y-98280832D01*
X141897205Y-98018927D02*
X141968633Y-98042737D01*
X141992443Y-98066546D01*
X142016253Y-98114165D01*
X142016253Y-98185594D01*
X141992443Y-98233213D01*
X141968633Y-98257022D01*
X141921014Y-98280832D01*
X141730538Y-98280832D01*
X141730538Y-97780832D01*
X141897205Y-97780832D01*
X141944824Y-97804642D01*
X141968633Y-97828451D01*
X141992443Y-97876070D01*
X141992443Y-97923689D01*
X141968633Y-97971308D01*
X141944824Y-97995118D01*
X141897205Y-98018927D01*
X141730538Y-98018927D01*
X142206729Y-98137975D02*
X142444824Y-98137975D01*
X142159110Y-98280832D02*
X142325776Y-97780832D01*
X142492443Y-98280832D01*
X142587681Y-97780832D02*
X142873395Y-97780832D01*
X142730538Y-98280832D02*
X142730538Y-97780832D01*
X169599110Y-98257022D02*
X169670538Y-98280832D01*
X169789586Y-98280832D01*
X169837205Y-98257022D01*
X169861014Y-98233213D01*
X169884824Y-98185594D01*
X169884824Y-98137975D01*
X169861014Y-98090356D01*
X169837205Y-98066546D01*
X169789586Y-98042737D01*
X169694348Y-98018927D01*
X169646729Y-97995118D01*
X169622919Y-97971308D01*
X169599110Y-97923689D01*
X169599110Y-97876070D01*
X169622919Y-97828451D01*
X169646729Y-97804642D01*
X169694348Y-97780832D01*
X169813395Y-97780832D01*
X169884824Y-97804642D01*
X170099110Y-98280832D02*
X170099110Y-97780832D01*
X170218157Y-97780832D01*
X170289586Y-97804642D01*
X170337205Y-97852261D01*
X170361014Y-97899880D01*
X170384824Y-97995118D01*
X170384824Y-98066546D01*
X170361014Y-98161784D01*
X170337205Y-98209403D01*
X170289586Y-98257022D01*
X170218157Y-98280832D01*
X170099110Y-98280832D01*
X170575300Y-98137975D02*
X170813395Y-98137975D01*
X170527681Y-98280832D02*
X170694348Y-97780832D01*
X170861014Y-98280832D01*
X167071014Y-98257022D02*
X167142443Y-98280832D01*
X167261491Y-98280832D01*
X167309110Y-98257022D01*
X167332919Y-98233213D01*
X167356729Y-98185594D01*
X167356729Y-98137975D01*
X167332919Y-98090356D01*
X167309110Y-98066546D01*
X167261491Y-98042737D01*
X167166253Y-98018927D01*
X167118633Y-97995118D01*
X167094824Y-97971308D01*
X167071014Y-97923689D01*
X167071014Y-97876070D01*
X167094824Y-97828451D01*
X167118633Y-97804642D01*
X167166253Y-97780832D01*
X167285300Y-97780832D01*
X167356729Y-97804642D01*
X167856729Y-98233213D02*
X167832919Y-98257022D01*
X167761491Y-98280832D01*
X167713872Y-98280832D01*
X167642443Y-98257022D01*
X167594824Y-98209403D01*
X167571014Y-98161784D01*
X167547205Y-98066546D01*
X167547205Y-97995118D01*
X167571014Y-97899880D01*
X167594824Y-97852261D01*
X167642443Y-97804642D01*
X167713872Y-97780832D01*
X167761491Y-97780832D01*
X167832919Y-97804642D01*
X167856729Y-97828451D01*
X168309110Y-98280832D02*
X168071014Y-98280832D01*
X168071014Y-97780832D01*
X162217205Y-98280832D02*
X162217205Y-97780832D01*
X162336253Y-97780832D01*
X162407681Y-97804642D01*
X162455300Y-97852261D01*
X162479110Y-97899880D01*
X162502919Y-97995118D01*
X162502919Y-98066546D01*
X162479110Y-98161784D01*
X162455300Y-98209403D01*
X162407681Y-98257022D01*
X162336253Y-98280832D01*
X162217205Y-98280832D01*
X162931491Y-97780832D02*
X162836253Y-97780832D01*
X162788633Y-97804642D01*
X162764824Y-97828451D01*
X162717205Y-97899880D01*
X162693395Y-97995118D01*
X162693395Y-98185594D01*
X162717205Y-98233213D01*
X162741014Y-98257022D01*
X162788633Y-98280832D01*
X162883872Y-98280832D01*
X162931491Y-98257022D01*
X162955300Y-98233213D01*
X162979110Y-98185594D01*
X162979110Y-98066546D01*
X162955300Y-98018927D01*
X162931491Y-97995118D01*
X162883872Y-97971308D01*
X162788633Y-97971308D01*
X162741014Y-97995118D01*
X162717205Y-98018927D01*
X162693395Y-98066546D01*
X159677205Y-98280832D02*
X159677205Y-97780832D01*
X159796253Y-97780832D01*
X159867681Y-97804642D01*
X159915300Y-97852261D01*
X159939110Y-97899880D01*
X159962919Y-97995118D01*
X159962919Y-98066546D01*
X159939110Y-98161784D01*
X159915300Y-98209403D01*
X159867681Y-98257022D01*
X159796253Y-98280832D01*
X159677205Y-98280832D01*
X160201014Y-98280832D02*
X160296253Y-98280832D01*
X160343872Y-98257022D01*
X160367681Y-98233213D01*
X160415300Y-98161784D01*
X160439110Y-98066546D01*
X160439110Y-97876070D01*
X160415300Y-97828451D01*
X160391491Y-97804642D01*
X160343872Y-97780832D01*
X160248633Y-97780832D01*
X160201014Y-97804642D01*
X160177205Y-97828451D01*
X160153395Y-97876070D01*
X160153395Y-97995118D01*
X160177205Y-98042737D01*
X160201014Y-98066546D01*
X160248633Y-98090356D01*
X160343872Y-98090356D01*
X160391491Y-98066546D01*
X160415300Y-98042737D01*
X160439110Y-97995118D01*
X164757205Y-98280832D02*
X164757205Y-97780832D01*
X164876253Y-97780832D01*
X164947681Y-97804642D01*
X164995300Y-97852261D01*
X165019110Y-97899880D01*
X165042919Y-97995118D01*
X165042919Y-98066546D01*
X165019110Y-98161784D01*
X164995300Y-98209403D01*
X164947681Y-98257022D01*
X164876253Y-98280832D01*
X164757205Y-98280832D01*
X165495300Y-97780832D02*
X165257205Y-97780832D01*
X165233395Y-98018927D01*
X165257205Y-97995118D01*
X165304824Y-97971308D01*
X165423872Y-97971308D01*
X165471491Y-97995118D01*
X165495300Y-98018927D01*
X165519110Y-98066546D01*
X165519110Y-98185594D01*
X165495300Y-98233213D01*
X165471491Y-98257022D01*
X165423872Y-98280832D01*
X165304824Y-98280832D01*
X165257205Y-98257022D01*
X165233395Y-98233213D01*
X167285300Y-115052832D02*
X167571014Y-115052832D01*
X167428157Y-115552832D02*
X167428157Y-115052832D01*
X167690062Y-115052832D02*
X168023395Y-115552832D01*
X168023395Y-115052832D02*
X167690062Y-115552832D01*
X169837205Y-115552832D02*
X169837205Y-115052832D01*
X169956253Y-115052832D01*
X170027681Y-115076642D01*
X170075300Y-115124261D01*
X170099110Y-115171880D01*
X170122919Y-115267118D01*
X170122919Y-115338546D01*
X170099110Y-115433784D01*
X170075300Y-115481403D01*
X170027681Y-115529022D01*
X169956253Y-115552832D01*
X169837205Y-115552832D01*
X170551491Y-115219499D02*
X170551491Y-115552832D01*
X170432443Y-115029022D02*
X170313395Y-115386165D01*
X170622919Y-115386165D01*
M02*
