G04 #@! TF.GenerationSoftware,KiCad,Pcbnew,(5.0.0-rc2-dev-444-g2974a2c10)*
G04 #@! TF.CreationDate,2019-08-12T19:19:49-07:00*
G04 #@! TF.ProjectId,Classic MIDI FeatherWing,436C6173736963204D49444920466561,v01*
G04 #@! TF.SameCoordinates,Original*
G04 #@! TF.FileFunction,Legend,Bot*
G04 #@! TF.FilePolarity,Positive*
%FSLAX46Y46*%
G04 Gerber Fmt 4.6, Leading zero omitted, Abs format (unit mm)*
G04 Created by KiCad (PCBNEW (5.0.0-rc2-dev-444-g2974a2c10)) date 08/12/19 19:19:49*
%MOMM*%
%LPD*%
G01*
G04 APERTURE LIST*
%ADD10C,0.080000*%
%ADD11C,0.100000*%
%ADD12C,0.120000*%
G04 APERTURE END LIST*
D10*
X158584571Y-107007047D02*
X158565523Y-106988000D01*
X158527428Y-106968952D01*
X158432190Y-106968952D01*
X158394095Y-106988000D01*
X158375047Y-107007047D01*
X158356000Y-107045142D01*
X158356000Y-107083238D01*
X158375047Y-107140380D01*
X158603619Y-107368952D01*
X158356000Y-107368952D01*
X158108380Y-106968952D02*
X158070285Y-106968952D01*
X158032190Y-106988000D01*
X158013142Y-107007047D01*
X157994095Y-107045142D01*
X157975047Y-107121333D01*
X157975047Y-107216571D01*
X157994095Y-107292761D01*
X158013142Y-107330857D01*
X158032190Y-107349904D01*
X158070285Y-107368952D01*
X158108380Y-107368952D01*
X158146476Y-107349904D01*
X158165523Y-107330857D01*
X158184571Y-107292761D01*
X158203619Y-107216571D01*
X158203619Y-107121333D01*
X158184571Y-107045142D01*
X158165523Y-107007047D01*
X158146476Y-106988000D01*
X158108380Y-106968952D01*
X157594095Y-107368952D02*
X157822666Y-107368952D01*
X157708380Y-107368952D02*
X157708380Y-106968952D01*
X157746476Y-107026095D01*
X157784571Y-107064190D01*
X157822666Y-107083238D01*
X157403619Y-107368952D02*
X157327428Y-107368952D01*
X157289333Y-107349904D01*
X157270285Y-107330857D01*
X157232190Y-107273714D01*
X157213142Y-107197523D01*
X157213142Y-107045142D01*
X157232190Y-107007047D01*
X157251238Y-106988000D01*
X157289333Y-106968952D01*
X157365523Y-106968952D01*
X157403619Y-106988000D01*
X157422666Y-107007047D01*
X157441714Y-107045142D01*
X157441714Y-107140380D01*
X157422666Y-107178476D01*
X157403619Y-107197523D01*
X157365523Y-107216571D01*
X157289333Y-107216571D01*
X157251238Y-107197523D01*
X157232190Y-107178476D01*
X157213142Y-107140380D01*
X157041714Y-107216571D02*
X156736952Y-107216571D01*
X156470285Y-106968952D02*
X156432190Y-106968952D01*
X156394095Y-106988000D01*
X156375047Y-107007047D01*
X156356000Y-107045142D01*
X156336952Y-107121333D01*
X156336952Y-107216571D01*
X156356000Y-107292761D01*
X156375047Y-107330857D01*
X156394095Y-107349904D01*
X156432190Y-107368952D01*
X156470285Y-107368952D01*
X156508380Y-107349904D01*
X156527428Y-107330857D01*
X156546476Y-107292761D01*
X156565523Y-107216571D01*
X156565523Y-107121333D01*
X156546476Y-107045142D01*
X156527428Y-107007047D01*
X156508380Y-106988000D01*
X156470285Y-106968952D01*
X155994095Y-106968952D02*
X156070285Y-106968952D01*
X156108380Y-106988000D01*
X156127428Y-107007047D01*
X156165523Y-107064190D01*
X156184571Y-107140380D01*
X156184571Y-107292761D01*
X156165523Y-107330857D01*
X156146476Y-107349904D01*
X156108380Y-107368952D01*
X156032190Y-107368952D01*
X155994095Y-107349904D01*
X155975047Y-107330857D01*
X155956000Y-107292761D01*
X155956000Y-107197523D01*
X155975047Y-107159428D01*
X155994095Y-107140380D01*
X156032190Y-107121333D01*
X156108380Y-107121333D01*
X156146476Y-107140380D01*
X156165523Y-107159428D01*
X156184571Y-107197523D01*
X155784571Y-107216571D02*
X155479809Y-107216571D01*
X155079809Y-107368952D02*
X155308380Y-107368952D01*
X155194095Y-107368952D02*
X155194095Y-106968952D01*
X155232190Y-107026095D01*
X155270285Y-107064190D01*
X155308380Y-107083238D01*
X154717904Y-106968952D02*
X154908380Y-106968952D01*
X154927428Y-107159428D01*
X154908380Y-107140380D01*
X154870285Y-107121333D01*
X154775047Y-107121333D01*
X154736952Y-107140380D01*
X154717904Y-107159428D01*
X154698857Y-107197523D01*
X154698857Y-107292761D01*
X154717904Y-107330857D01*
X154736952Y-107349904D01*
X154775047Y-107368952D01*
X154870285Y-107368952D01*
X154908380Y-107349904D01*
X154927428Y-107330857D01*
X154260761Y-107102285D02*
X154165523Y-107368952D01*
X154070285Y-107102285D01*
X153841714Y-106968952D02*
X153803619Y-106968952D01*
X153765523Y-106988000D01*
X153746476Y-107007047D01*
X153727428Y-107045142D01*
X153708380Y-107121333D01*
X153708380Y-107216571D01*
X153727428Y-107292761D01*
X153746476Y-107330857D01*
X153765523Y-107349904D01*
X153803619Y-107368952D01*
X153841714Y-107368952D01*
X153879809Y-107349904D01*
X153898857Y-107330857D01*
X153917904Y-107292761D01*
X153936952Y-107216571D01*
X153936952Y-107121333D01*
X153917904Y-107045142D01*
X153898857Y-107007047D01*
X153879809Y-106988000D01*
X153841714Y-106968952D01*
X153327428Y-107368952D02*
X153556000Y-107368952D01*
X153441714Y-107368952D02*
X153441714Y-106968952D01*
X153479809Y-107026095D01*
X153517904Y-107064190D01*
X153556000Y-107083238D01*
D11*
X155867000Y-100552285D02*
X155895571Y-100580857D01*
X155981285Y-100609428D01*
X156038428Y-100609428D01*
X156124142Y-100580857D01*
X156181285Y-100523714D01*
X156209857Y-100466571D01*
X156238428Y-100352285D01*
X156238428Y-100266571D01*
X156209857Y-100152285D01*
X156181285Y-100095142D01*
X156124142Y-100038000D01*
X156038428Y-100009428D01*
X155981285Y-100009428D01*
X155895571Y-100038000D01*
X155867000Y-100066571D01*
X155381285Y-100580857D02*
X155438428Y-100609428D01*
X155552714Y-100609428D01*
X155609857Y-100580857D01*
X155638428Y-100523714D01*
X155638428Y-100295142D01*
X155609857Y-100238000D01*
X155552714Y-100209428D01*
X155438428Y-100209428D01*
X155381285Y-100238000D01*
X155352714Y-100295142D01*
X155352714Y-100352285D01*
X155638428Y-100409428D01*
X154838428Y-100609428D02*
X154838428Y-100009428D01*
X154838428Y-100580857D02*
X154895571Y-100609428D01*
X155009857Y-100609428D01*
X155067000Y-100580857D01*
X155095571Y-100552285D01*
X155124142Y-100495142D01*
X155124142Y-100323714D01*
X155095571Y-100266571D01*
X155067000Y-100238000D01*
X155009857Y-100209428D01*
X154895571Y-100209428D01*
X154838428Y-100238000D01*
X154295571Y-100609428D02*
X154295571Y-100295142D01*
X154324142Y-100238000D01*
X154381285Y-100209428D01*
X154495571Y-100209428D01*
X154552714Y-100238000D01*
X154295571Y-100580857D02*
X154352714Y-100609428D01*
X154495571Y-100609428D01*
X154552714Y-100580857D01*
X154581285Y-100523714D01*
X154581285Y-100466571D01*
X154552714Y-100409428D01*
X154495571Y-100380857D01*
X154352714Y-100380857D01*
X154295571Y-100352285D01*
X154009857Y-100609428D02*
X154009857Y-100209428D01*
X154009857Y-100323714D02*
X153981285Y-100266571D01*
X153952714Y-100238000D01*
X153895571Y-100209428D01*
X153838428Y-100209428D01*
X155395571Y-101038000D02*
X155452714Y-101009428D01*
X155538428Y-101009428D01*
X155624142Y-101038000D01*
X155681285Y-101095142D01*
X155709857Y-101152285D01*
X155738428Y-101266571D01*
X155738428Y-101352285D01*
X155709857Y-101466571D01*
X155681285Y-101523714D01*
X155624142Y-101580857D01*
X155538428Y-101609428D01*
X155481285Y-101609428D01*
X155395571Y-101580857D01*
X155367000Y-101552285D01*
X155367000Y-101352285D01*
X155481285Y-101352285D01*
X155109857Y-101609428D02*
X155109857Y-101209428D01*
X155109857Y-101323714D02*
X155081285Y-101266571D01*
X155052714Y-101238000D01*
X154995571Y-101209428D01*
X154938428Y-101209428D01*
X154652714Y-101609428D02*
X154709857Y-101580857D01*
X154738428Y-101552285D01*
X154767000Y-101495142D01*
X154767000Y-101323714D01*
X154738428Y-101266571D01*
X154709857Y-101238000D01*
X154652714Y-101209428D01*
X154567000Y-101209428D01*
X154509857Y-101238000D01*
X154481285Y-101266571D01*
X154452714Y-101323714D01*
X154452714Y-101495142D01*
X154481285Y-101552285D01*
X154509857Y-101580857D01*
X154567000Y-101609428D01*
X154652714Y-101609428D01*
X154252714Y-101209428D02*
X154109857Y-101609428D01*
X153967000Y-101209428D01*
X153509857Y-101580857D02*
X153567000Y-101609428D01*
X153681285Y-101609428D01*
X153738428Y-101580857D01*
X153767000Y-101523714D01*
X153767000Y-101295142D01*
X153738428Y-101238000D01*
X153681285Y-101209428D01*
X153567000Y-101209428D01*
X153509857Y-101238000D01*
X153481285Y-101295142D01*
X153481285Y-101352285D01*
X153767000Y-101409428D01*
X158700337Y-101065271D02*
X158319337Y-100684271D01*
X158700337Y-101827271D02*
X158319337Y-101446271D01*
X158319337Y-102462271D02*
X158319337Y-100811271D01*
X158700337Y-101446271D02*
X158319337Y-101065271D01*
X157938337Y-101446271D02*
X157557337Y-101065271D01*
X158319337Y-101446271D02*
X157938337Y-101827271D01*
X156795337Y-101446271D02*
X156414337Y-101827271D01*
X157557337Y-100684271D02*
X157176337Y-101065271D01*
X157557337Y-101954271D02*
X157557337Y-100303271D01*
X157176337Y-101065271D02*
X156795337Y-100684271D01*
X157176337Y-101446271D02*
X156795337Y-101065271D01*
X156795337Y-100684271D02*
X156414337Y-101065271D01*
X156795337Y-102462271D02*
X156795337Y-100811271D01*
X156795337Y-101065271D02*
X156414337Y-101446271D01*
X157557337Y-101065271D02*
X157176337Y-101446271D01*
X158319337Y-100684271D02*
X157938337Y-101065271D01*
X158319337Y-101065271D02*
X157938337Y-101446271D01*
X157176337Y-101827271D02*
X156795337Y-101446271D01*
X157938337Y-100684271D02*
X157557337Y-100303271D01*
X157557337Y-100303271D02*
X157176337Y-100684271D01*
X157938337Y-101065271D02*
X157557337Y-100684271D01*
D10*
X159286142Y-104828428D02*
X159419476Y-104828428D01*
X159419476Y-105037952D02*
X159419476Y-104637952D01*
X159229000Y-104637952D01*
X158924238Y-105018904D02*
X158962333Y-105037952D01*
X159038523Y-105037952D01*
X159076619Y-105018904D01*
X159095666Y-104980809D01*
X159095666Y-104828428D01*
X159076619Y-104790333D01*
X159038523Y-104771285D01*
X158962333Y-104771285D01*
X158924238Y-104790333D01*
X158905190Y-104828428D01*
X158905190Y-104866523D01*
X159095666Y-104904619D01*
X158562333Y-105037952D02*
X158562333Y-104828428D01*
X158581380Y-104790333D01*
X158619476Y-104771285D01*
X158695666Y-104771285D01*
X158733761Y-104790333D01*
X158562333Y-105018904D02*
X158600428Y-105037952D01*
X158695666Y-105037952D01*
X158733761Y-105018904D01*
X158752809Y-104980809D01*
X158752809Y-104942714D01*
X158733761Y-104904619D01*
X158695666Y-104885571D01*
X158600428Y-104885571D01*
X158562333Y-104866523D01*
X158429000Y-104771285D02*
X158276619Y-104771285D01*
X158371857Y-104637952D02*
X158371857Y-104980809D01*
X158352809Y-105018904D01*
X158314714Y-105037952D01*
X158276619Y-105037952D01*
X158143285Y-105037952D02*
X158143285Y-104637952D01*
X157971857Y-105037952D02*
X157971857Y-104828428D01*
X157990904Y-104790333D01*
X158029000Y-104771285D01*
X158086142Y-104771285D01*
X158124238Y-104790333D01*
X158143285Y-104809380D01*
X157629000Y-105018904D02*
X157667095Y-105037952D01*
X157743285Y-105037952D01*
X157781380Y-105018904D01*
X157800428Y-104980809D01*
X157800428Y-104828428D01*
X157781380Y-104790333D01*
X157743285Y-104771285D01*
X157667095Y-104771285D01*
X157629000Y-104790333D01*
X157609952Y-104828428D01*
X157609952Y-104866523D01*
X157800428Y-104904619D01*
X157438523Y-105037952D02*
X157438523Y-104771285D01*
X157438523Y-104847476D02*
X157419476Y-104809380D01*
X157400428Y-104790333D01*
X157362333Y-104771285D01*
X157324238Y-104771285D01*
X156714714Y-105018904D02*
X156752809Y-105037952D01*
X156829000Y-105037952D01*
X156867095Y-105018904D01*
X156886142Y-104999857D01*
X156905190Y-104961761D01*
X156905190Y-104847476D01*
X156886142Y-104809380D01*
X156867095Y-104790333D01*
X156829000Y-104771285D01*
X156752809Y-104771285D01*
X156714714Y-104790333D01*
X156486142Y-105037952D02*
X156524238Y-105018904D01*
X156543285Y-104999857D01*
X156562333Y-104961761D01*
X156562333Y-104847476D01*
X156543285Y-104809380D01*
X156524238Y-104790333D01*
X156486142Y-104771285D01*
X156429000Y-104771285D01*
X156390904Y-104790333D01*
X156371857Y-104809380D01*
X156352809Y-104847476D01*
X156352809Y-104961761D01*
X156371857Y-104999857D01*
X156390904Y-105018904D01*
X156429000Y-105037952D01*
X156486142Y-105037952D01*
X156181380Y-105037952D02*
X156181380Y-104771285D01*
X156181380Y-104809380D02*
X156162333Y-104790333D01*
X156124238Y-104771285D01*
X156067095Y-104771285D01*
X156029000Y-104790333D01*
X156009952Y-104828428D01*
X156009952Y-105037952D01*
X156009952Y-104828428D02*
X155990904Y-104790333D01*
X155952809Y-104771285D01*
X155895666Y-104771285D01*
X155857571Y-104790333D01*
X155838523Y-104828428D01*
X155838523Y-105037952D01*
X155648047Y-104771285D02*
X155648047Y-105171285D01*
X155648047Y-104790333D02*
X155609952Y-104771285D01*
X155533761Y-104771285D01*
X155495666Y-104790333D01*
X155476619Y-104809380D01*
X155457571Y-104847476D01*
X155457571Y-104961761D01*
X155476619Y-104999857D01*
X155495666Y-105018904D01*
X155533761Y-105037952D01*
X155609952Y-105037952D01*
X155648047Y-105018904D01*
X155114714Y-105037952D02*
X155114714Y-104828428D01*
X155133761Y-104790333D01*
X155171857Y-104771285D01*
X155248047Y-104771285D01*
X155286142Y-104790333D01*
X155114714Y-105018904D02*
X155152809Y-105037952D01*
X155248047Y-105037952D01*
X155286142Y-105018904D01*
X155305190Y-104980809D01*
X155305190Y-104942714D01*
X155286142Y-104904619D01*
X155248047Y-104885571D01*
X155152809Y-104885571D01*
X155114714Y-104866523D01*
X154981380Y-104771285D02*
X154829000Y-104771285D01*
X154924238Y-104637952D02*
X154924238Y-104980809D01*
X154905190Y-105018904D01*
X154867095Y-105037952D01*
X154829000Y-105037952D01*
X154695666Y-105037952D02*
X154695666Y-104771285D01*
X154695666Y-104637952D02*
X154714714Y-104657000D01*
X154695666Y-104676047D01*
X154676619Y-104657000D01*
X154695666Y-104637952D01*
X154695666Y-104676047D01*
X154505190Y-105037952D02*
X154505190Y-104637952D01*
X154505190Y-104790333D02*
X154467095Y-104771285D01*
X154390904Y-104771285D01*
X154352809Y-104790333D01*
X154333761Y-104809380D01*
X154314714Y-104847476D01*
X154314714Y-104961761D01*
X154333761Y-104999857D01*
X154352809Y-105018904D01*
X154390904Y-105037952D01*
X154467095Y-105037952D01*
X154505190Y-105018904D01*
X154086142Y-105037952D02*
X154124238Y-105018904D01*
X154143285Y-104980809D01*
X154143285Y-104637952D01*
X153781380Y-105018904D02*
X153819476Y-105037952D01*
X153895666Y-105037952D01*
X153933761Y-105018904D01*
X153952809Y-104980809D01*
X153952809Y-104828428D01*
X153933761Y-104790333D01*
X153895666Y-104771285D01*
X153819476Y-104771285D01*
X153781380Y-104790333D01*
X153762333Y-104828428D01*
X153762333Y-104866523D01*
X153952809Y-104904619D01*
X153286142Y-105037952D02*
X153286142Y-104637952D01*
X153152809Y-104923666D01*
X153019476Y-104637952D01*
X153019476Y-105037952D01*
X152829000Y-105037952D02*
X152829000Y-104637952D01*
X152638523Y-105037952D02*
X152638523Y-104637952D01*
X152543285Y-104637952D01*
X152486142Y-104657000D01*
X152448047Y-104695095D01*
X152429000Y-104733190D01*
X152409952Y-104809380D01*
X152409952Y-104866523D01*
X152429000Y-104942714D01*
X152448047Y-104980809D01*
X152486142Y-105018904D01*
X152543285Y-105037952D01*
X152638523Y-105037952D01*
X152238523Y-105037952D02*
X152238523Y-104637952D01*
X159648047Y-105717952D02*
X159648047Y-105451285D01*
X159648047Y-105317952D02*
X159667095Y-105337000D01*
X159648047Y-105356047D01*
X159629000Y-105337000D01*
X159648047Y-105317952D01*
X159648047Y-105356047D01*
X159457571Y-105451285D02*
X159457571Y-105717952D01*
X159457571Y-105489380D02*
X159438523Y-105470333D01*
X159400428Y-105451285D01*
X159343285Y-105451285D01*
X159305190Y-105470333D01*
X159286142Y-105508428D01*
X159286142Y-105717952D01*
X159152809Y-105451285D02*
X159000428Y-105451285D01*
X159095666Y-105317952D02*
X159095666Y-105660809D01*
X159076619Y-105698904D01*
X159038523Y-105717952D01*
X159000428Y-105717952D01*
X158714714Y-105698904D02*
X158752809Y-105717952D01*
X158829000Y-105717952D01*
X158867095Y-105698904D01*
X158886142Y-105660809D01*
X158886142Y-105508428D01*
X158867095Y-105470333D01*
X158829000Y-105451285D01*
X158752809Y-105451285D01*
X158714714Y-105470333D01*
X158695666Y-105508428D01*
X158695666Y-105546523D01*
X158886142Y-105584619D01*
X158524238Y-105717952D02*
X158524238Y-105451285D01*
X158524238Y-105527476D02*
X158505190Y-105489380D01*
X158486142Y-105470333D01*
X158448047Y-105451285D01*
X158409952Y-105451285D01*
X158333761Y-105451285D02*
X158181380Y-105451285D01*
X158276619Y-105717952D02*
X158276619Y-105375095D01*
X158257571Y-105337000D01*
X158219476Y-105317952D01*
X158181380Y-105317952D01*
X157876619Y-105717952D02*
X157876619Y-105508428D01*
X157895666Y-105470333D01*
X157933761Y-105451285D01*
X158009952Y-105451285D01*
X158048047Y-105470333D01*
X157876619Y-105698904D02*
X157914714Y-105717952D01*
X158009952Y-105717952D01*
X158048047Y-105698904D01*
X158067095Y-105660809D01*
X158067095Y-105622714D01*
X158048047Y-105584619D01*
X158009952Y-105565571D01*
X157914714Y-105565571D01*
X157876619Y-105546523D01*
X157514714Y-105698904D02*
X157552809Y-105717952D01*
X157629000Y-105717952D01*
X157667095Y-105698904D01*
X157686142Y-105679857D01*
X157705190Y-105641761D01*
X157705190Y-105527476D01*
X157686142Y-105489380D01*
X157667095Y-105470333D01*
X157629000Y-105451285D01*
X157552809Y-105451285D01*
X157514714Y-105470333D01*
X157190904Y-105698904D02*
X157229000Y-105717952D01*
X157305190Y-105717952D01*
X157343285Y-105698904D01*
X157362333Y-105660809D01*
X157362333Y-105508428D01*
X157343285Y-105470333D01*
X157305190Y-105451285D01*
X157229000Y-105451285D01*
X157190904Y-105470333D01*
X157171857Y-105508428D01*
X157171857Y-105546523D01*
X157362333Y-105584619D01*
X157000428Y-105679857D02*
X156981380Y-105698904D01*
X157000428Y-105717952D01*
X157019476Y-105698904D01*
X157000428Y-105679857D01*
X157000428Y-105717952D01*
X156505190Y-105717952D02*
X156505190Y-105317952D01*
X156333761Y-105698904D02*
X156295666Y-105717952D01*
X156219476Y-105717952D01*
X156181380Y-105698904D01*
X156162333Y-105660809D01*
X156162333Y-105641761D01*
X156181380Y-105603666D01*
X156219476Y-105584619D01*
X156276619Y-105584619D01*
X156314714Y-105565571D01*
X156333761Y-105527476D01*
X156333761Y-105508428D01*
X156314714Y-105470333D01*
X156276619Y-105451285D01*
X156219476Y-105451285D01*
X156181380Y-105470333D01*
X155933761Y-105717952D02*
X155971857Y-105698904D01*
X155990904Y-105679857D01*
X156009952Y-105641761D01*
X156009952Y-105527476D01*
X155990904Y-105489380D01*
X155971857Y-105470333D01*
X155933761Y-105451285D01*
X155876619Y-105451285D01*
X155838523Y-105470333D01*
X155819476Y-105489380D01*
X155800428Y-105527476D01*
X155800428Y-105641761D01*
X155819476Y-105679857D01*
X155838523Y-105698904D01*
X155876619Y-105717952D01*
X155933761Y-105717952D01*
X155571857Y-105717952D02*
X155609952Y-105698904D01*
X155629000Y-105660809D01*
X155629000Y-105317952D01*
X155248047Y-105717952D02*
X155248047Y-105508428D01*
X155267095Y-105470333D01*
X155305190Y-105451285D01*
X155381380Y-105451285D01*
X155419476Y-105470333D01*
X155248047Y-105698904D02*
X155286142Y-105717952D01*
X155381380Y-105717952D01*
X155419476Y-105698904D01*
X155438523Y-105660809D01*
X155438523Y-105622714D01*
X155419476Y-105584619D01*
X155381380Y-105565571D01*
X155286142Y-105565571D01*
X155248047Y-105546523D01*
X155114714Y-105451285D02*
X154962333Y-105451285D01*
X155057571Y-105317952D02*
X155057571Y-105660809D01*
X155038523Y-105698904D01*
X155000428Y-105717952D01*
X154962333Y-105717952D01*
X154676619Y-105698904D02*
X154714714Y-105717952D01*
X154790904Y-105717952D01*
X154829000Y-105698904D01*
X154848047Y-105660809D01*
X154848047Y-105508428D01*
X154829000Y-105470333D01*
X154790904Y-105451285D01*
X154714714Y-105451285D01*
X154676619Y-105470333D01*
X154657571Y-105508428D01*
X154657571Y-105546523D01*
X154848047Y-105584619D01*
X154314714Y-105717952D02*
X154314714Y-105317952D01*
X154314714Y-105698904D02*
X154352809Y-105717952D01*
X154429000Y-105717952D01*
X154467095Y-105698904D01*
X154486142Y-105679857D01*
X154505190Y-105641761D01*
X154505190Y-105527476D01*
X154486142Y-105489380D01*
X154467095Y-105470333D01*
X154429000Y-105451285D01*
X154352809Y-105451285D01*
X154314714Y-105470333D01*
X153819476Y-105717952D02*
X153819476Y-105451285D01*
X153819476Y-105317952D02*
X153838523Y-105337000D01*
X153819476Y-105356047D01*
X153800428Y-105337000D01*
X153819476Y-105317952D01*
X153819476Y-105356047D01*
X153629000Y-105451285D02*
X153629000Y-105717952D01*
X153629000Y-105489380D02*
X153609952Y-105470333D01*
X153571857Y-105451285D01*
X153514714Y-105451285D01*
X153476619Y-105470333D01*
X153457571Y-105508428D01*
X153457571Y-105717952D01*
X153267095Y-105451285D02*
X153267095Y-105851285D01*
X153267095Y-105470333D02*
X153229000Y-105451285D01*
X153152809Y-105451285D01*
X153114714Y-105470333D01*
X153095666Y-105489380D01*
X153076619Y-105527476D01*
X153076619Y-105641761D01*
X153095666Y-105679857D01*
X153114714Y-105698904D01*
X153152809Y-105717952D01*
X153229000Y-105717952D01*
X153267095Y-105698904D01*
X152733761Y-105451285D02*
X152733761Y-105717952D01*
X152905190Y-105451285D02*
X152905190Y-105660809D01*
X152886142Y-105698904D01*
X152848047Y-105717952D01*
X152790904Y-105717952D01*
X152752809Y-105698904D01*
X152733761Y-105679857D01*
X152600428Y-105451285D02*
X152448047Y-105451285D01*
X152543285Y-105317952D02*
X152543285Y-105660809D01*
X152524238Y-105698904D01*
X152486142Y-105717952D01*
X152448047Y-105717952D01*
X152295666Y-105698904D02*
X152295666Y-105717952D01*
X152314714Y-105756047D01*
X152333761Y-105775095D01*
X158171857Y-106397952D02*
X158171857Y-105997952D01*
X158171857Y-106150333D02*
X158133761Y-106131285D01*
X158057571Y-106131285D01*
X158019476Y-106150333D01*
X158000428Y-106169380D01*
X157981380Y-106207476D01*
X157981380Y-106321761D01*
X158000428Y-106359857D01*
X158019476Y-106378904D01*
X158057571Y-106397952D01*
X158133761Y-106397952D01*
X158171857Y-106378904D01*
X157638523Y-106131285D02*
X157638523Y-106397952D01*
X157809952Y-106131285D02*
X157809952Y-106340809D01*
X157790904Y-106378904D01*
X157752809Y-106397952D01*
X157695666Y-106397952D01*
X157657571Y-106378904D01*
X157638523Y-106359857D01*
X157505190Y-106131285D02*
X157352809Y-106131285D01*
X157448047Y-106397952D02*
X157448047Y-106055095D01*
X157429000Y-106017000D01*
X157390904Y-105997952D01*
X157352809Y-105997952D01*
X157276619Y-106131285D02*
X157124238Y-106131285D01*
X157219476Y-106397952D02*
X157219476Y-106055095D01*
X157200428Y-106017000D01*
X157162333Y-105997952D01*
X157124238Y-105997952D01*
X156838523Y-106378904D02*
X156876619Y-106397952D01*
X156952809Y-106397952D01*
X156990904Y-106378904D01*
X157009952Y-106340809D01*
X157009952Y-106188428D01*
X156990904Y-106150333D01*
X156952809Y-106131285D01*
X156876619Y-106131285D01*
X156838523Y-106150333D01*
X156819476Y-106188428D01*
X156819476Y-106226523D01*
X157009952Y-106264619D01*
X156648047Y-106397952D02*
X156648047Y-106131285D01*
X156648047Y-106207476D02*
X156629000Y-106169380D01*
X156609952Y-106150333D01*
X156571857Y-106131285D01*
X156533761Y-106131285D01*
X156248047Y-106378904D02*
X156286142Y-106397952D01*
X156362333Y-106397952D01*
X156400428Y-106378904D01*
X156419476Y-106340809D01*
X156419476Y-106188428D01*
X156400428Y-106150333D01*
X156362333Y-106131285D01*
X156286142Y-106131285D01*
X156248047Y-106150333D01*
X156229000Y-106188428D01*
X156229000Y-106226523D01*
X156419476Y-106264619D01*
X155886142Y-106397952D02*
X155886142Y-105997952D01*
X155886142Y-106378904D02*
X155924238Y-106397952D01*
X156000428Y-106397952D01*
X156038523Y-106378904D01*
X156057571Y-106359857D01*
X156076619Y-106321761D01*
X156076619Y-106207476D01*
X156057571Y-106169380D01*
X156038523Y-106150333D01*
X156000428Y-106131285D01*
X155924238Y-106131285D01*
X155886142Y-106150333D01*
X155333761Y-106397952D02*
X155371857Y-106378904D01*
X155390904Y-106359857D01*
X155409952Y-106321761D01*
X155409952Y-106207476D01*
X155390904Y-106169380D01*
X155371857Y-106150333D01*
X155333761Y-106131285D01*
X155276619Y-106131285D01*
X155238523Y-106150333D01*
X155219476Y-106169380D01*
X155200428Y-106207476D01*
X155200428Y-106321761D01*
X155219476Y-106359857D01*
X155238523Y-106378904D01*
X155276619Y-106397952D01*
X155333761Y-106397952D01*
X154857571Y-106131285D02*
X154857571Y-106397952D01*
X155029000Y-106131285D02*
X155029000Y-106340809D01*
X155009952Y-106378904D01*
X154971857Y-106397952D01*
X154914714Y-106397952D01*
X154876619Y-106378904D01*
X154857571Y-106359857D01*
X154724238Y-106131285D02*
X154571857Y-106131285D01*
X154667095Y-105997952D02*
X154667095Y-106340809D01*
X154648047Y-106378904D01*
X154609952Y-106397952D01*
X154571857Y-106397952D01*
X154438523Y-106131285D02*
X154438523Y-106531285D01*
X154438523Y-106150333D02*
X154400428Y-106131285D01*
X154324238Y-106131285D01*
X154286142Y-106150333D01*
X154267095Y-106169380D01*
X154248047Y-106207476D01*
X154248047Y-106321761D01*
X154267095Y-106359857D01*
X154286142Y-106378904D01*
X154324238Y-106397952D01*
X154400428Y-106397952D01*
X154438523Y-106378904D01*
X153905190Y-106131285D02*
X153905190Y-106397952D01*
X154076619Y-106131285D02*
X154076619Y-106340809D01*
X154057571Y-106378904D01*
X154019476Y-106397952D01*
X153962333Y-106397952D01*
X153924238Y-106378904D01*
X153905190Y-106359857D01*
X153771857Y-106131285D02*
X153619476Y-106131285D01*
X153714714Y-105997952D02*
X153714714Y-106340809D01*
X153695666Y-106378904D01*
X153657571Y-106397952D01*
X153619476Y-106397952D01*
X153486142Y-106359857D02*
X153467095Y-106378904D01*
X153486142Y-106397952D01*
X153505190Y-106378904D01*
X153486142Y-106359857D01*
X153486142Y-106397952D01*
X150742380Y-102710952D02*
X150742380Y-102501428D01*
X150761428Y-102463333D01*
X150799523Y-102444285D01*
X150875714Y-102444285D01*
X150913809Y-102463333D01*
X150742380Y-102691904D02*
X150780476Y-102710952D01*
X150875714Y-102710952D01*
X150913809Y-102691904D01*
X150932857Y-102653809D01*
X150932857Y-102615714D01*
X150913809Y-102577619D01*
X150875714Y-102558571D01*
X150780476Y-102558571D01*
X150742380Y-102539523D01*
X150551904Y-102444285D02*
X150551904Y-102844285D01*
X150551904Y-102463333D02*
X150513809Y-102444285D01*
X150437619Y-102444285D01*
X150399523Y-102463333D01*
X150380476Y-102482380D01*
X150361428Y-102520476D01*
X150361428Y-102634761D01*
X150380476Y-102672857D01*
X150399523Y-102691904D01*
X150437619Y-102710952D01*
X150513809Y-102710952D01*
X150551904Y-102691904D01*
X150190000Y-102444285D02*
X150190000Y-102844285D01*
X150190000Y-102463333D02*
X150151904Y-102444285D01*
X150075714Y-102444285D01*
X150037619Y-102463333D01*
X150018571Y-102482380D01*
X149999523Y-102520476D01*
X149999523Y-102634761D01*
X150018571Y-102672857D01*
X150037619Y-102691904D01*
X150075714Y-102710952D01*
X150151904Y-102710952D01*
X150190000Y-102691904D01*
X149770952Y-102710952D02*
X149809047Y-102691904D01*
X149828095Y-102653809D01*
X149828095Y-102310952D01*
X149656666Y-102444285D02*
X149561428Y-102710952D01*
X149466190Y-102444285D02*
X149561428Y-102710952D01*
X149599523Y-102806190D01*
X149618571Y-102825238D01*
X149656666Y-102844285D01*
X149009047Y-102444285D02*
X149009047Y-102787142D01*
X149028095Y-102825238D01*
X149066190Y-102844285D01*
X149085238Y-102844285D01*
X149009047Y-102310952D02*
X149028095Y-102330000D01*
X149009047Y-102349047D01*
X148990000Y-102330000D01*
X149009047Y-102310952D01*
X149009047Y-102349047D01*
X148647142Y-102444285D02*
X148647142Y-102710952D01*
X148818571Y-102444285D02*
X148818571Y-102653809D01*
X148799523Y-102691904D01*
X148761428Y-102710952D01*
X148704285Y-102710952D01*
X148666190Y-102691904D01*
X148647142Y-102672857D01*
X148456666Y-102710952D02*
X148456666Y-102444285D01*
X148456666Y-102482380D02*
X148437619Y-102463333D01*
X148399523Y-102444285D01*
X148342380Y-102444285D01*
X148304285Y-102463333D01*
X148285238Y-102501428D01*
X148285238Y-102710952D01*
X148285238Y-102501428D02*
X148266190Y-102463333D01*
X148228095Y-102444285D01*
X148170952Y-102444285D01*
X148132857Y-102463333D01*
X148113809Y-102501428D01*
X148113809Y-102710952D01*
X147923333Y-102444285D02*
X147923333Y-102844285D01*
X147923333Y-102463333D02*
X147885238Y-102444285D01*
X147809047Y-102444285D01*
X147770952Y-102463333D01*
X147751904Y-102482380D01*
X147732857Y-102520476D01*
X147732857Y-102634761D01*
X147751904Y-102672857D01*
X147770952Y-102691904D01*
X147809047Y-102710952D01*
X147885238Y-102710952D01*
X147923333Y-102691904D01*
X147409047Y-102691904D02*
X147447142Y-102710952D01*
X147523333Y-102710952D01*
X147561428Y-102691904D01*
X147580476Y-102653809D01*
X147580476Y-102501428D01*
X147561428Y-102463333D01*
X147523333Y-102444285D01*
X147447142Y-102444285D01*
X147409047Y-102463333D01*
X147390000Y-102501428D01*
X147390000Y-102539523D01*
X147580476Y-102577619D01*
X147218571Y-102710952D02*
X147218571Y-102444285D01*
X147218571Y-102520476D02*
X147199523Y-102482380D01*
X147180476Y-102463333D01*
X147142380Y-102444285D01*
X147104285Y-102444285D01*
X146723333Y-102444285D02*
X146570952Y-102444285D01*
X146666190Y-102310952D02*
X146666190Y-102653809D01*
X146647142Y-102691904D01*
X146609047Y-102710952D01*
X146570952Y-102710952D01*
X146380476Y-102710952D02*
X146418571Y-102691904D01*
X146437619Y-102672857D01*
X146456666Y-102634761D01*
X146456666Y-102520476D01*
X146437619Y-102482380D01*
X146418571Y-102463333D01*
X146380476Y-102444285D01*
X146323333Y-102444285D01*
X146285238Y-102463333D01*
X146266190Y-102482380D01*
X146247142Y-102520476D01*
X146247142Y-102634761D01*
X146266190Y-102672857D01*
X146285238Y-102691904D01*
X146323333Y-102710952D01*
X146380476Y-102710952D01*
X151028095Y-103371904D02*
X151066190Y-103390952D01*
X151142380Y-103390952D01*
X151180476Y-103371904D01*
X151199523Y-103333809D01*
X151199523Y-103181428D01*
X151180476Y-103143333D01*
X151142380Y-103124285D01*
X151066190Y-103124285D01*
X151028095Y-103143333D01*
X151009047Y-103181428D01*
X151009047Y-103219523D01*
X151199523Y-103257619D01*
X150837619Y-103124285D02*
X150837619Y-103390952D01*
X150837619Y-103162380D02*
X150818571Y-103143333D01*
X150780476Y-103124285D01*
X150723333Y-103124285D01*
X150685238Y-103143333D01*
X150666190Y-103181428D01*
X150666190Y-103390952D01*
X150304285Y-103390952D02*
X150304285Y-103181428D01*
X150323333Y-103143333D01*
X150361428Y-103124285D01*
X150437619Y-103124285D01*
X150475714Y-103143333D01*
X150304285Y-103371904D02*
X150342380Y-103390952D01*
X150437619Y-103390952D01*
X150475714Y-103371904D01*
X150494761Y-103333809D01*
X150494761Y-103295714D01*
X150475714Y-103257619D01*
X150437619Y-103238571D01*
X150342380Y-103238571D01*
X150304285Y-103219523D01*
X150113809Y-103390952D02*
X150113809Y-102990952D01*
X150113809Y-103143333D02*
X150075714Y-103124285D01*
X149999523Y-103124285D01*
X149961428Y-103143333D01*
X149942380Y-103162380D01*
X149923333Y-103200476D01*
X149923333Y-103314761D01*
X149942380Y-103352857D01*
X149961428Y-103371904D01*
X149999523Y-103390952D01*
X150075714Y-103390952D01*
X150113809Y-103371904D01*
X149694761Y-103390952D02*
X149732857Y-103371904D01*
X149751904Y-103333809D01*
X149751904Y-102990952D01*
X149390000Y-103371904D02*
X149428095Y-103390952D01*
X149504285Y-103390952D01*
X149542380Y-103371904D01*
X149561428Y-103333809D01*
X149561428Y-103181428D01*
X149542380Y-103143333D01*
X149504285Y-103124285D01*
X149428095Y-103124285D01*
X149390000Y-103143333D01*
X149370952Y-103181428D01*
X149370952Y-103219523D01*
X149561428Y-103257619D01*
X148894761Y-103390952D02*
X148894761Y-102990952D01*
X148761428Y-103276666D01*
X148628095Y-102990952D01*
X148628095Y-103390952D01*
X148437619Y-103390952D02*
X148437619Y-102990952D01*
X148247142Y-103390952D02*
X148247142Y-102990952D01*
X148151904Y-102990952D01*
X148094761Y-103010000D01*
X148056666Y-103048095D01*
X148037619Y-103086190D01*
X148018571Y-103162380D01*
X148018571Y-103219523D01*
X148037619Y-103295714D01*
X148056666Y-103333809D01*
X148094761Y-103371904D01*
X148151904Y-103390952D01*
X148247142Y-103390952D01*
X147847142Y-103390952D02*
X147847142Y-102990952D01*
X147409047Y-102990952D02*
X147180476Y-102990952D01*
X147294761Y-103390952D02*
X147294761Y-102990952D01*
X147047142Y-103390952D02*
X147047142Y-102990952D01*
X147047142Y-103181428D02*
X146818571Y-103181428D01*
X146818571Y-103390952D02*
X146818571Y-102990952D01*
X146399523Y-103390952D02*
X146532857Y-103200476D01*
X146628095Y-103390952D02*
X146628095Y-102990952D01*
X146475714Y-102990952D01*
X146437619Y-103010000D01*
X146418571Y-103029047D01*
X146399523Y-103067142D01*
X146399523Y-103124285D01*
X146418571Y-103162380D01*
X146437619Y-103181428D01*
X146475714Y-103200476D01*
X146628095Y-103200476D01*
X146228095Y-102990952D02*
X146228095Y-103314761D01*
X146209047Y-103352857D01*
X146190000Y-103371904D01*
X146151904Y-103390952D01*
X146075714Y-103390952D01*
X146037619Y-103371904D01*
X146018571Y-103352857D01*
X145999523Y-103314761D01*
X145999523Y-102990952D01*
X149577333Y-99094952D02*
X149348761Y-99094952D01*
X149463047Y-99494952D02*
X149463047Y-99094952D01*
X149215428Y-99494952D02*
X149215428Y-99094952D01*
X149215428Y-99285428D02*
X148986857Y-99285428D01*
X148986857Y-99494952D02*
X148986857Y-99094952D01*
X148567809Y-99494952D02*
X148701142Y-99304476D01*
X148796380Y-99494952D02*
X148796380Y-99094952D01*
X148644000Y-99094952D01*
X148605904Y-99114000D01*
X148586857Y-99133047D01*
X148567809Y-99171142D01*
X148567809Y-99228285D01*
X148586857Y-99266380D01*
X148605904Y-99285428D01*
X148644000Y-99304476D01*
X148796380Y-99304476D01*
X148396380Y-99094952D02*
X148396380Y-99418761D01*
X148377333Y-99456857D01*
X148358285Y-99475904D01*
X148320190Y-99494952D01*
X148244000Y-99494952D01*
X148205904Y-99475904D01*
X148186857Y-99456857D01*
X148167809Y-99418761D01*
X148167809Y-99094952D01*
D12*
X148270253Y-101474642D02*
X149470253Y-101474642D01*
X149470253Y-99714642D02*
X148270253Y-99714642D01*
D10*
X132553904Y-105668095D02*
X132572952Y-105725238D01*
X132572952Y-105820476D01*
X132553904Y-105858571D01*
X132534857Y-105877619D01*
X132496761Y-105896666D01*
X132458666Y-105896666D01*
X132420571Y-105877619D01*
X132401523Y-105858571D01*
X132382476Y-105820476D01*
X132363428Y-105744285D01*
X132344380Y-105706190D01*
X132325333Y-105687142D01*
X132287238Y-105668095D01*
X132249142Y-105668095D01*
X132211047Y-105687142D01*
X132192000Y-105706190D01*
X132172952Y-105744285D01*
X132172952Y-105839523D01*
X132192000Y-105896666D01*
X132572952Y-106068095D02*
X132172952Y-106068095D01*
X132363428Y-106068095D02*
X132363428Y-106296666D01*
X132572952Y-106296666D02*
X132172952Y-106296666D01*
X132572952Y-106487142D02*
X132172952Y-106487142D01*
X132363428Y-106677619D02*
X132363428Y-106810952D01*
X132572952Y-106868095D02*
X132572952Y-106677619D01*
X132172952Y-106677619D01*
X132172952Y-106868095D01*
X132572952Y-107230000D02*
X132572952Y-107039523D01*
X132172952Y-107039523D01*
X132572952Y-107363333D02*
X132172952Y-107363333D01*
X132172952Y-107458571D01*
X132192000Y-107515714D01*
X132230095Y-107553809D01*
X132268190Y-107572857D01*
X132344380Y-107591904D01*
X132401523Y-107591904D01*
X132477714Y-107572857D01*
X132515809Y-107553809D01*
X132553904Y-107515714D01*
X132572952Y-107458571D01*
X132572952Y-107363333D01*
X132822952Y-111244285D02*
X132822952Y-111472857D01*
X133222952Y-111358571D02*
X132822952Y-111358571D01*
X133203904Y-111587142D02*
X133222952Y-111625238D01*
X133222952Y-111701428D01*
X133203904Y-111739523D01*
X133165809Y-111758571D01*
X133146761Y-111758571D01*
X133108666Y-111739523D01*
X133089619Y-111701428D01*
X133089619Y-111644285D01*
X133070571Y-111606190D01*
X133032476Y-111587142D01*
X133013428Y-111587142D01*
X132975333Y-111606190D01*
X132956285Y-111644285D01*
X132956285Y-111701428D01*
X132975333Y-111739523D01*
X132956285Y-111891904D02*
X133222952Y-111968095D01*
X133032476Y-112044285D01*
X133222952Y-112120476D01*
X132956285Y-112196666D01*
X133222952Y-108882380D02*
X133032476Y-108749047D01*
X133222952Y-108653809D02*
X132822952Y-108653809D01*
X132822952Y-108806190D01*
X132842000Y-108844285D01*
X132861047Y-108863333D01*
X132899142Y-108882380D01*
X132956285Y-108882380D01*
X132994380Y-108863333D01*
X133013428Y-108844285D01*
X133032476Y-108806190D01*
X133032476Y-108653809D01*
X133203904Y-109034761D02*
X133222952Y-109072857D01*
X133222952Y-109149047D01*
X133203904Y-109187142D01*
X133165809Y-109206190D01*
X133146761Y-109206190D01*
X133108666Y-109187142D01*
X133089619Y-109149047D01*
X133089619Y-109091904D01*
X133070571Y-109053809D01*
X133032476Y-109034761D01*
X133013428Y-109034761D01*
X132975333Y-109053809D01*
X132956285Y-109091904D01*
X132956285Y-109149047D01*
X132975333Y-109187142D01*
X132956285Y-109339523D02*
X133222952Y-109415714D01*
X133032476Y-109491904D01*
X133222952Y-109568095D01*
X132956285Y-109644285D01*
X133222952Y-103749047D02*
X133032476Y-103615714D01*
X133222952Y-103520476D02*
X132822952Y-103520476D01*
X132822952Y-103672857D01*
X132842000Y-103710952D01*
X132861047Y-103730000D01*
X132899142Y-103749047D01*
X132956285Y-103749047D01*
X132994380Y-103730000D01*
X133013428Y-103710952D01*
X133032476Y-103672857D01*
X133032476Y-103520476D01*
X133222952Y-103920476D02*
X132822952Y-103920476D01*
X133222952Y-104110952D02*
X132822952Y-104110952D01*
X133222952Y-104339523D01*
X132822952Y-104339523D01*
X132842000Y-104739523D02*
X132822952Y-104701428D01*
X132822952Y-104644285D01*
X132842000Y-104587142D01*
X132880095Y-104549047D01*
X132918190Y-104530000D01*
X132994380Y-104510952D01*
X133051523Y-104510952D01*
X133127714Y-104530000D01*
X133165809Y-104549047D01*
X133203904Y-104587142D01*
X133222952Y-104644285D01*
X133222952Y-104682380D01*
X133203904Y-104739523D01*
X133184857Y-104758571D01*
X133051523Y-104758571D01*
X133051523Y-104682380D01*
X132872952Y-101170476D02*
X132872952Y-101399047D01*
X133272952Y-101284761D02*
X132872952Y-101284761D01*
X133272952Y-101532380D02*
X132872952Y-101532380D01*
X133272952Y-101722857D02*
X132872952Y-101722857D01*
X132872952Y-101875238D01*
X132892000Y-101913333D01*
X132911047Y-101932380D01*
X132949142Y-101951428D01*
X133006285Y-101951428D01*
X133044380Y-101932380D01*
X133063428Y-101913333D01*
X133082476Y-101875238D01*
X133082476Y-101722857D01*
X170283904Y-105768095D02*
X170302952Y-105825238D01*
X170302952Y-105920476D01*
X170283904Y-105958571D01*
X170264857Y-105977619D01*
X170226761Y-105996666D01*
X170188666Y-105996666D01*
X170150571Y-105977619D01*
X170131523Y-105958571D01*
X170112476Y-105920476D01*
X170093428Y-105844285D01*
X170074380Y-105806190D01*
X170055333Y-105787142D01*
X170017238Y-105768095D01*
X169979142Y-105768095D01*
X169941047Y-105787142D01*
X169922000Y-105806190D01*
X169902952Y-105844285D01*
X169902952Y-105939523D01*
X169922000Y-105996666D01*
X170302952Y-106168095D02*
X169902952Y-106168095D01*
X170093428Y-106168095D02*
X170093428Y-106396666D01*
X170302952Y-106396666D02*
X169902952Y-106396666D01*
X170302952Y-106587142D02*
X169902952Y-106587142D01*
X170093428Y-106777619D02*
X170093428Y-106910952D01*
X170302952Y-106968095D02*
X170302952Y-106777619D01*
X169902952Y-106777619D01*
X169902952Y-106968095D01*
X170302952Y-107330000D02*
X170302952Y-107139523D01*
X169902952Y-107139523D01*
X170302952Y-107463333D02*
X169902952Y-107463333D01*
X169902952Y-107558571D01*
X169922000Y-107615714D01*
X169960095Y-107653809D01*
X169998190Y-107672857D01*
X170074380Y-107691904D01*
X170131523Y-107691904D01*
X170207714Y-107672857D01*
X170245809Y-107653809D01*
X170283904Y-107615714D01*
X170302952Y-107558571D01*
X170302952Y-107463333D01*
X169252952Y-101144285D02*
X169252952Y-101372857D01*
X169652952Y-101258571D02*
X169252952Y-101258571D01*
X169633904Y-101487142D02*
X169652952Y-101525238D01*
X169652952Y-101601428D01*
X169633904Y-101639523D01*
X169595809Y-101658571D01*
X169576761Y-101658571D01*
X169538666Y-101639523D01*
X169519619Y-101601428D01*
X169519619Y-101544285D01*
X169500571Y-101506190D01*
X169462476Y-101487142D01*
X169443428Y-101487142D01*
X169405333Y-101506190D01*
X169386285Y-101544285D01*
X169386285Y-101601428D01*
X169405333Y-101639523D01*
X169386285Y-101791904D02*
X169652952Y-101868095D01*
X169462476Y-101944285D01*
X169652952Y-102020476D01*
X169386285Y-102096666D01*
X169652952Y-103982380D02*
X169462476Y-103849047D01*
X169652952Y-103753809D02*
X169252952Y-103753809D01*
X169252952Y-103906190D01*
X169272000Y-103944285D01*
X169291047Y-103963333D01*
X169329142Y-103982380D01*
X169386285Y-103982380D01*
X169424380Y-103963333D01*
X169443428Y-103944285D01*
X169462476Y-103906190D01*
X169462476Y-103753809D01*
X169633904Y-104134761D02*
X169652952Y-104172857D01*
X169652952Y-104249047D01*
X169633904Y-104287142D01*
X169595809Y-104306190D01*
X169576761Y-104306190D01*
X169538666Y-104287142D01*
X169519619Y-104249047D01*
X169519619Y-104191904D01*
X169500571Y-104153809D01*
X169462476Y-104134761D01*
X169443428Y-104134761D01*
X169405333Y-104153809D01*
X169386285Y-104191904D01*
X169386285Y-104249047D01*
X169405333Y-104287142D01*
X169386285Y-104439523D02*
X169652952Y-104515714D01*
X169462476Y-104591904D01*
X169652952Y-104668095D01*
X169386285Y-104744285D01*
X169652952Y-108849047D02*
X169462476Y-108715714D01*
X169652952Y-108620476D02*
X169252952Y-108620476D01*
X169252952Y-108772857D01*
X169272000Y-108810952D01*
X169291047Y-108830000D01*
X169329142Y-108849047D01*
X169386285Y-108849047D01*
X169424380Y-108830000D01*
X169443428Y-108810952D01*
X169462476Y-108772857D01*
X169462476Y-108620476D01*
X169652952Y-109020476D02*
X169252952Y-109020476D01*
X169652952Y-109210952D02*
X169252952Y-109210952D01*
X169652952Y-109439523D01*
X169252952Y-109439523D01*
X169272000Y-109839523D02*
X169252952Y-109801428D01*
X169252952Y-109744285D01*
X169272000Y-109687142D01*
X169310095Y-109649047D01*
X169348190Y-109630000D01*
X169424380Y-109610952D01*
X169481523Y-109610952D01*
X169557714Y-109630000D01*
X169595809Y-109649047D01*
X169633904Y-109687142D01*
X169652952Y-109744285D01*
X169652952Y-109782380D01*
X169633904Y-109839523D01*
X169614857Y-109858571D01*
X169481523Y-109858571D01*
X169481523Y-109782380D01*
X169202952Y-111370476D02*
X169202952Y-111599047D01*
X169602952Y-111484761D02*
X169202952Y-111484761D01*
X169602952Y-111732380D02*
X169202952Y-111732380D01*
X169602952Y-111922857D02*
X169202952Y-111922857D01*
X169202952Y-112075238D01*
X169222000Y-112113333D01*
X169241047Y-112132380D01*
X169279142Y-112151428D01*
X169336285Y-112151428D01*
X169374380Y-112132380D01*
X169393428Y-112113333D01*
X169412476Y-112075238D01*
X169412476Y-111922857D01*
D11*
X165709443Y-114030975D02*
X165709443Y-114340499D01*
X165899919Y-114173832D01*
X165899919Y-114245261D01*
X165923729Y-114292880D01*
X165947538Y-114316689D01*
X165995157Y-114340499D01*
X166114205Y-114340499D01*
X166161824Y-114316689D01*
X166185633Y-114292880D01*
X166209443Y-114245261D01*
X166209443Y-114102403D01*
X166185633Y-114054784D01*
X166161824Y-114030975D01*
X163109443Y-111816689D02*
X163109443Y-111578594D01*
X163347538Y-111554784D01*
X163323729Y-111578594D01*
X163299919Y-111626213D01*
X163299919Y-111745261D01*
X163323729Y-111792880D01*
X163347538Y-111816689D01*
X163395157Y-111840499D01*
X163514205Y-111840499D01*
X163561824Y-111816689D01*
X163585633Y-111792880D01*
X163609443Y-111745261D01*
X163609443Y-111626213D01*
X163585633Y-111578594D01*
X163561824Y-111554784D01*
X162235633Y-105495261D02*
X162259443Y-105566689D01*
X162259443Y-105685737D01*
X162235633Y-105733356D01*
X162211824Y-105757165D01*
X162164205Y-105780975D01*
X162116586Y-105780975D01*
X162068967Y-105757165D01*
X162045157Y-105733356D01*
X162021348Y-105685737D01*
X161997538Y-105590499D01*
X161973729Y-105542880D01*
X161949919Y-105519070D01*
X161902300Y-105495261D01*
X161854681Y-105495261D01*
X161807062Y-105519070D01*
X161783253Y-105542880D01*
X161759443Y-105590499D01*
X161759443Y-105709546D01*
X161783253Y-105780975D01*
X162259443Y-105995261D02*
X161759443Y-105995261D01*
X161997538Y-105995261D02*
X161997538Y-106280975D01*
X162259443Y-106280975D02*
X161759443Y-106280975D01*
X162259443Y-106519070D02*
X161759443Y-106519070D01*
X161997538Y-106757165D02*
X161997538Y-106923832D01*
X162259443Y-106995261D02*
X162259443Y-106757165D01*
X161759443Y-106757165D01*
X161759443Y-106995261D01*
X162259443Y-107447642D02*
X162259443Y-107209546D01*
X161759443Y-107209546D01*
X162259443Y-107614308D02*
X161759443Y-107614308D01*
X161759443Y-107733356D01*
X161783253Y-107804784D01*
X161830872Y-107852403D01*
X161878491Y-107876213D01*
X161973729Y-107900022D01*
X162045157Y-107900022D01*
X162140395Y-107876213D01*
X162188014Y-107852403D01*
X162235633Y-107804784D01*
X162259443Y-107733356D01*
X162259443Y-107614308D01*
X165707062Y-106554784D02*
X165683253Y-106578594D01*
X165659443Y-106626213D01*
X165659443Y-106745261D01*
X165683253Y-106792880D01*
X165707062Y-106816689D01*
X165754681Y-106840499D01*
X165802300Y-106840499D01*
X165873729Y-106816689D01*
X166159443Y-106530975D01*
X166159443Y-106840499D01*
X163276110Y-101742880D02*
X163609443Y-101742880D01*
X163085633Y-101623832D02*
X163442776Y-101504784D01*
X163442776Y-101814308D01*
X166159443Y-99390499D02*
X166159443Y-99104784D01*
X166159443Y-99247642D02*
X165659443Y-99247642D01*
X165730872Y-99200022D01*
X165778491Y-99152403D01*
X165802300Y-99104784D01*
X136055443Y-99016975D02*
X136055443Y-99326499D01*
X136245919Y-99159832D01*
X136245919Y-99231261D01*
X136269729Y-99278880D01*
X136293538Y-99302689D01*
X136341157Y-99326499D01*
X136460205Y-99326499D01*
X136507824Y-99302689D01*
X136531633Y-99278880D01*
X136555443Y-99231261D01*
X136555443Y-99088403D01*
X136531633Y-99040784D01*
X136507824Y-99016975D01*
X138655443Y-101802689D02*
X138655443Y-101564594D01*
X138893538Y-101540784D01*
X138869729Y-101564594D01*
X138845919Y-101612213D01*
X138845919Y-101731261D01*
X138869729Y-101778880D01*
X138893538Y-101802689D01*
X138941157Y-101826499D01*
X139060205Y-101826499D01*
X139107824Y-101802689D01*
X139131633Y-101778880D01*
X139155443Y-101731261D01*
X139155443Y-101612213D01*
X139131633Y-101564594D01*
X139107824Y-101540784D01*
X140481633Y-105481261D02*
X140505443Y-105552689D01*
X140505443Y-105671737D01*
X140481633Y-105719356D01*
X140457824Y-105743165D01*
X140410205Y-105766975D01*
X140362586Y-105766975D01*
X140314967Y-105743165D01*
X140291157Y-105719356D01*
X140267348Y-105671737D01*
X140243538Y-105576499D01*
X140219729Y-105528880D01*
X140195919Y-105505070D01*
X140148300Y-105481261D01*
X140100681Y-105481261D01*
X140053062Y-105505070D01*
X140029253Y-105528880D01*
X140005443Y-105576499D01*
X140005443Y-105695546D01*
X140029253Y-105766975D01*
X140505443Y-105981261D02*
X140005443Y-105981261D01*
X140243538Y-105981261D02*
X140243538Y-106266975D01*
X140505443Y-106266975D02*
X140005443Y-106266975D01*
X140505443Y-106505070D02*
X140005443Y-106505070D01*
X140243538Y-106743165D02*
X140243538Y-106909832D01*
X140505443Y-106981261D02*
X140505443Y-106743165D01*
X140005443Y-106743165D01*
X140005443Y-106981261D01*
X140505443Y-107433642D02*
X140505443Y-107195546D01*
X140005443Y-107195546D01*
X140505443Y-107600308D02*
X140005443Y-107600308D01*
X140005443Y-107719356D01*
X140029253Y-107790784D01*
X140076872Y-107838403D01*
X140124491Y-107862213D01*
X140219729Y-107886022D01*
X140291157Y-107886022D01*
X140386395Y-107862213D01*
X140434014Y-107838403D01*
X140481633Y-107790784D01*
X140505443Y-107719356D01*
X140505443Y-107600308D01*
X136153062Y-106540784D02*
X136129253Y-106564594D01*
X136105443Y-106612213D01*
X136105443Y-106731261D01*
X136129253Y-106778880D01*
X136153062Y-106802689D01*
X136200681Y-106826499D01*
X136248300Y-106826499D01*
X136319729Y-106802689D01*
X136605443Y-106516975D01*
X136605443Y-106826499D01*
X138822110Y-111828880D02*
X139155443Y-111828880D01*
X138631633Y-111709832D02*
X138988776Y-111590784D01*
X138988776Y-111900308D01*
X136605443Y-114276499D02*
X136605443Y-113990784D01*
X136605443Y-114133642D02*
X136105443Y-114133642D01*
X136176872Y-114086022D01*
X136224491Y-114038403D01*
X136248300Y-113990784D01*
M02*
